<svg width="128" height="128" viewBox="0 0 128 128" fill="none" xmlns="http://www.w3.org/2000/svg">
<path d="M64 117C93.2711 117 117 93.2711 117 64C117 34.7289 93.2711 11 64 11C34.7289 11 11 34.7289 11 64C11 93.2711 34.7289 117 64 117Z" fill="#E2EDF8"/>
<path d="M69.5392 106.272V73.344H78.8223L80.0528 61.7548H69.5392L69.5548 55.9539C69.5548 52.9312 69.842 51.3123 74.1837 51.3123H79.9877V39.7211H70.7025C59.5494 39.7211 55.6244 45.3428 55.6244 54.7982V61.7557H48.6719V73.3459H55.6244V105.805C58.3329 106.345 61.1331 106.63 64.0002 106.63C65.8523 106.63 67.7025 106.511 69.5392 106.272Z" fill="#1F1F1F"/>
</svg>
