<svg width="128" height="128" viewBox="0 0 128 128" fill="none" xmlns="http://www.w3.org/2000/svg">
<path d="M64 117C93.2711 117 117 93.2711 117 64C117 34.7289 93.2711 11 64 11C34.7289 11 11 34.7289 11 64C11 93.2711 34.7289 117 64 117Z" fill="#EEEEEE"/>
<rect x="32.6934" y="31.8354" width="62.591" height="64.3297" rx="31.2955" fill="#EEEEEE"/>
<path fill-rule="evenodd" clip-rule="evenodd" d="M63.9112 31.8352C46.1918 31.8352 31.8232 46.2006 31.8232 63.9231C31.8232 78.1009 41.0174 90.1283 53.7669 94.3718C55.37 94.6693 55.9588 93.6757 55.9588 92.8282C55.9588 92.063 55.929 89.5353 55.9152 86.854C46.9883 88.7951 45.1046 83.0681 45.1046 83.0681C43.645 79.3592 41.5419 78.373 41.5419 78.373C38.63 76.3814 41.7613 76.4229 41.7613 76.4229C44.983 76.6487 46.6801 79.7295 46.6801 79.7295C49.5421 84.634 54.1867 83.2163 56.0178 82.397C56.3058 80.3231 57.1373 78.907 58.055 78.1057C50.9278 77.2954 43.4351 74.5434 43.4351 62.2482C43.4351 58.745 44.6891 55.8825 46.7418 53.6349C46.4081 52.8272 45.3098 49.5636 47.0521 45.1437C47.0521 45.1437 49.7461 44.2813 55.878 48.4328C58.4381 47.7213 61.1837 47.3637 63.9112 47.3515C66.637 47.3637 69.3842 47.7203 71.9491 48.4318C78.0736 44.2802 80.7644 45.1426 80.7644 45.1426C82.511 49.562 81.4126 52.8261 81.0795 53.6338C83.1369 55.8815 84.3819 58.7439 84.3819 62.2472C84.3819 74.5716 76.8753 77.2847 69.7301 78.0797C70.8816 79.0754 71.9071 81.0287 71.9071 84.0219C71.9071 88.3153 71.8699 91.7707 71.8699 92.8276C71.8699 93.6815 72.448 94.6821 74.074 94.367C86.8161 90.1193 95.9996 78.0956 95.9996 63.9231C95.9991 46.2016 81.6321 31.8352 63.9112 31.8352Z" fill="#181616"/>
<path d="M43.9771 77.9059C43.9064 78.0653 43.6556 78.1131 43.4272 78.0042C43.1934 77.9001 43.0632 77.6827 43.1386 77.5228C43.2077 77.3581 43.459 77.3129 43.6912 77.4229C43.925 77.5276 44.0579 77.747 43.9766 77.9064L43.9771 77.9059ZM45.2768 79.356C45.1243 79.4979 44.8252 79.432 44.6222 79.2072C44.4118 78.984 44.3725 78.6849 44.5281 78.5409C44.6865 78.3995 44.9766 78.4665 45.187 78.6897C45.3964 78.916 45.4378 79.2125 45.2774 79.3565L45.2768 79.356ZM46.5425 81.2035C46.3459 81.3406 46.0239 81.2126 45.8252 80.9272C45.6286 80.6414 45.6286 80.2986 45.8305 80.1621C46.0287 80.025 46.3459 80.1488 46.5479 80.4315C46.7434 80.7211 46.7434 81.0643 46.5425 81.2035ZM48.2753 82.9895C48.1 83.1834 47.7248 83.1313 47.4506 82.8672C47.1706 82.6085 47.0925 82.2402 47.2684 82.0468C47.4469 81.8523 47.8237 81.9065 48.0994 82.169C48.3795 82.4273 48.4639 82.796 48.2764 82.9889L48.2753 82.9895ZM50.6664 84.0261C50.5883 84.2775 50.2281 84.3917 49.8641 84.2844C49.5012 84.1744 49.2636 83.8805 49.338 83.6266C49.4124 83.3731 49.7753 83.2546 50.1415 83.3688C50.5044 83.4783 50.7419 83.7706 50.6664 84.0261ZM53.293 84.218C53.302 84.4826 52.9938 84.7015 52.6128 84.7068C52.2286 84.7159 51.9178 84.5012 51.9141 84.2408C51.9141 83.9735 52.2159 83.7573 52.5995 83.7498C52.9805 83.7429 53.2935 83.9555 53.2935 84.2174L53.293 84.218ZM55.7362 83.8024C55.7819 84.0602 55.5167 84.3253 55.1379 84.396C54.7659 84.465 54.4205 84.3046 54.3727 84.049C54.327 83.7844 54.5969 83.5192 54.9689 83.4507C55.3483 83.3853 55.6883 83.5405 55.7362 83.8024Z" fill="#181616"/>
</svg>
