<svg width="128" height="128" viewBox="0 0 128 128" fill="none" xmlns="http://www.w3.org/2000/svg">
<path d="M64 117C93.2711 117 117 93.2711 117 64C117 34.7289 93.2711 11 64 11C34.7289 11 11 34.7289 11 64C11 93.2711 34.7289 117 64 117Z" fill="#E2EDF8"/>
<path d="M35 42.5051C35 40.6195 35.66 39.0639 36.9798 37.8384C38.2996 36.6128 40.0155 36 42.1273 36C44.2014 36 45.8794 36.6033 47.1616 37.8101C48.4815 39.0545 49.1414 40.6761 49.1414 42.6747C49.1414 44.4848 48.5004 45.9932 47.2182 47.2C45.8983 48.4444 44.1636 49.0667 42.0141 49.0667H41.9576C39.8835 49.0667 38.2054 48.4444 36.9232 47.2C35.6411 45.9556 35 44.3906 35 42.5051ZM35.7354 92V54.2141H48.2929V92H35.7354ZM55.2505 92H67.8081V70.901C67.8081 69.5811 67.9589 68.5629 68.2606 67.8465C68.7885 66.5643 69.5899 65.4801 70.6646 64.5939C71.7394 63.7077 73.0875 63.2646 74.7091 63.2646C78.9327 63.2646 81.0444 66.1118 81.0444 71.8061V92H93.602V70.3354C93.602 64.7542 92.2822 60.5212 89.6424 57.6364C87.0027 54.7515 83.5145 53.3091 79.1778 53.3091C74.3131 53.3091 70.5232 55.402 67.8081 59.5879V59.701H67.7515L67.8081 59.5879V54.2141H55.2505C55.3259 55.4209 55.3636 59.173 55.3636 65.4707C55.3636 71.7683 55.3259 80.6114 55.2505 92Z" fill="#1F1F1F"/>
</svg>
