<svg width="128" height="128" viewBox="0 0 128 128" fill="none" xmlns="http://www.w3.org/2000/svg">
<path d="M64 117C93.271 117 117 93.271 117 64C117 34.7289 93.271 11 64 11C34.7289 11 11 34.7289 11 64C11 93.271 34.7289 117 64 117Z" fill="#E2EDF8"/>
<path d="M33.6817 65.0274C33.6817 65.0274 60.9317 53.844 70.3824 49.906C74.0054 48.331 86.2914 43.2904 86.2914 43.2904C86.2914 43.2904 91.9621 41.0853 91.4894 46.4407C91.3318 48.646 90.0718 56.3641 88.8117 64.7124C86.9215 76.526 84.8738 89.4421 84.8738 89.4421C84.8738 89.4421 84.5588 93.065 81.8811 93.6951C79.2034 94.3251 74.7928 91.49 74.0054 90.8598C73.3751 90.3873 62.1917 83.2991 58.0964 79.8337C56.9937 78.8887 55.7337 76.9986 58.2538 74.7934C63.9244 69.5954 70.6975 63.1373 74.7928 59.042C76.6831 57.1517 78.5731 52.7413 70.6974 58.0967C59.514 65.815 48.488 73.0607 48.488 73.0607C48.488 73.0607 45.9677 74.6357 41.2424 73.2181C36.5168 71.8007 31.0038 69.9104 31.0038 69.9104C31.0038 69.9104 27.2237 67.5477 33.6817 65.0274Z" fill="#1F1F1F"/>
</svg>
