<svg width="128" height="128" viewBox="0 0 128 128" fill="none" xmlns="http://www.w3.org/2000/svg">
<path d="M64 117C93.2711 117 117 93.2711 117 64C117 34.7289 93.2711 11 64 11C34.7289 11 11 34.7289 11 64C11 93.2711 34.7289 117 64 117Z" fill="#E2EDF8"/>
<mask id="path-2-outside-1_16_313" maskUnits="userSpaceOnUse" x="30.0854" y="29.1472" width="70" height="70" fill="black">
<rect fill="white" x="30.0854" y="29.1472" width="70" height="70"/>
<path d="M88.6478 40.6939C82.6284 34.5524 74.3709 31.107 65.7723 31.1476H65.7175C48.0094 31.1476 33.4373 45.7198 33.4373 63.4279C33.4373 63.511 33.4391 63.5923 33.4391 63.6754C33.5058 69.3055 34.9632 74.8318 37.6818 79.7625L33.0854 96.5567L50.2156 92.1372C54.9478 94.7352 60.268 96.0744 65.6662 96.0264C83.4398 95.9292 98.0102 81.274 97.9995 63.4986C98.0419 54.9583 94.6743 46.7451 88.6478 40.6939ZM65.7723 90.5462C60.9871 90.5711 56.2862 89.2874 52.1778 86.8338L51.1171 86.3034L40.9168 88.9551L43.5686 78.8786L42.8615 77.8179C40.2348 73.5767 38.8433 68.687 38.8432 63.6984C38.8432 48.9867 50.9492 36.8806 65.661 36.8806C80.3727 36.8806 92.4786 48.9867 92.4786 63.6984C92.4786 72.9617 87.6791 81.5922 79.8087 86.4802C75.6462 89.1466 70.804 90.5581 65.8607 90.5462M81.3998 70.9234L79.4552 70.0396C79.4552 70.0396 76.6267 68.802 74.8589 67.9182C74.6821 67.9182 74.5053 67.7414 74.3285 67.7414C73.8927 67.7521 73.4668 67.8738 73.091 68.0949C72.7145 68.3159 72.9143 68.2717 70.4393 71.1002C70.2714 71.4308 69.9267 71.6377 69.5555 71.6306H69.3786C69.1129 71.5861 68.8666 71.4629 68.6715 71.277L67.7876 70.9234C65.891 70.1205 64.1545 68.9828 62.6609 67.5646C62.3074 67.211 61.7771 66.8574 61.4235 66.5039C60.1148 65.2502 58.9846 63.8226 58.0647 62.2612L57.8878 61.9076C57.7343 61.6915 57.615 61.453 57.5343 61.2005C57.4881 60.8942 57.5506 60.5815 57.7111 60.3166C57.8719 60.0514 58.4182 59.4326 58.9485 58.9023C59.4789 58.372 59.4789 58.0184 59.8324 57.6648C60.0142 57.4125 60.1397 57.1241 60.2007 56.8192C60.2617 56.5143 60.2567 56.1998 60.186 55.897C59.3621 53.6095 58.418 51.3672 57.3575 49.1793C57.0733 48.7373 56.6304 48.4209 56.12 48.2954H54.1754C53.8219 48.2954 53.4683 48.4722 53.1147 48.4722L52.938 48.649C52.5844 48.8257 52.2309 49.1793 51.8773 49.3561C51.5237 49.5329 51.347 50.0633 50.9934 50.4168C49.7576 51.9785 49.0737 53.9056 49.0488 55.897C49.0684 57.2978 49.3689 58.6805 49.9327 59.963L50.1095 60.4933C51.6968 63.8871 53.9168 66.947 56.6504 69.5092L57.3575 70.2163C57.8721 70.6425 58.3456 71.116 58.7718 71.6306C62.4346 74.8179 66.7852 77.1161 71.4823 78.3483C72.0127 78.525 72.7198 78.525 73.2501 78.7018H75.018C75.9419 78.6562 76.8457 78.4152 77.6697 77.9947C78.1028 77.7985 78.5164 77.5616 78.9071 77.2876L79.2607 76.934C79.6143 76.5804 79.9678 76.4037 80.3214 76.0501C80.6669 75.7423 80.9648 75.3848 81.2053 74.9894C81.5447 74.1974 81.7834 73.3666 81.9125 72.5145V71.277C81.7536 71.1343 81.575 71.0152 81.3821 70.9234"/>
</mask>
<path d="M88.6478 40.6939C82.6284 34.5524 74.3709 31.107 65.7723 31.1476H65.7175C48.0094 31.1476 33.4373 45.7198 33.4373 63.4279C33.4373 63.511 33.4391 63.5923 33.4391 63.6754C33.5058 69.3055 34.9632 74.8318 37.6818 79.7625L33.0854 96.5567L50.2156 92.1372C54.9478 94.7352 60.268 96.0744 65.6662 96.0264C83.4398 95.9292 98.0102 81.274 97.9995 63.4986C98.0419 54.9583 94.6743 46.7451 88.6478 40.6939ZM65.7723 90.5462C60.9871 90.5711 56.2862 89.2874 52.1778 86.8338L51.1171 86.3034L40.9168 88.9551L43.5686 78.8786L42.8615 77.8179C40.2348 73.5767 38.8433 68.687 38.8432 63.6984C38.8432 48.9867 50.9492 36.8806 65.661 36.8806C80.3727 36.8806 92.4786 48.9867 92.4786 63.6984C92.4786 72.9617 87.6791 81.5922 79.8087 86.4802C75.6462 89.1466 70.804 90.5581 65.8607 90.5462M81.3998 70.9234L79.4552 70.0396C79.4552 70.0396 76.6267 68.802 74.8589 67.9182C74.6821 67.9182 74.5053 67.7414 74.3285 67.7414C73.8927 67.7521 73.4668 67.8738 73.091 68.0949C72.7145 68.3159 72.9143 68.2717 70.4393 71.1002C70.2714 71.4308 69.9267 71.6377 69.5555 71.6306H69.3786C69.1129 71.5861 68.8666 71.4629 68.6715 71.277L67.7876 70.9234C65.891 70.1205 64.1545 68.9828 62.6609 67.5646C62.3074 67.211 61.7771 66.8574 61.4235 66.5039C60.1148 65.2502 58.9846 63.8226 58.0647 62.2612L57.8878 61.9076C57.7343 61.6915 57.615 61.453 57.5343 61.2005C57.4881 60.8942 57.5506 60.5815 57.7111 60.3166C57.8719 60.0514 58.4182 59.4326 58.9485 58.9023C59.4789 58.372 59.4789 58.0184 59.8324 57.6648C60.0142 57.4125 60.1397 57.1241 60.2007 56.8192C60.2617 56.5143 60.2567 56.1998 60.186 55.897C59.3621 53.6095 58.418 51.3672 57.3575 49.1793C57.0733 48.7373 56.6304 48.4209 56.12 48.2954H54.1754C53.8219 48.2954 53.4683 48.4722 53.1147 48.4722L52.938 48.649C52.5844 48.8257 52.2309 49.1793 51.8773 49.3561C51.5237 49.5329 51.347 50.0633 50.9934 50.4168C49.7576 51.9785 49.0737 53.9056 49.0488 55.897C49.0684 57.2978 49.3689 58.6805 49.9327 59.963L50.1095 60.4933C51.6968 63.8871 53.9168 66.947 56.6504 69.5092L57.3575 70.2163C57.8721 70.6425 58.3456 71.116 58.7718 71.6306C62.4346 74.8179 66.7852 77.1161 71.4823 78.3483C72.0127 78.525 72.7198 78.525 73.2501 78.7018H75.018C75.9419 78.6562 76.8457 78.4152 77.6697 77.9947C78.1028 77.7985 78.5164 77.5616 78.9071 77.2876L79.2607 76.934C79.6143 76.5804 79.9678 76.4037 80.3214 76.0501C80.6669 75.7423 80.9648 75.3848 81.2053 74.9894C81.5447 74.1974 81.7834 73.3666 81.9125 72.5145V71.277C81.7536 71.1343 81.575 71.0152 81.3821 70.9234" fill="#1F1F1F"/>
<path d="M88.6478 40.6939L87.5765 41.7439L87.585 41.7523L88.6478 40.6939ZM65.7723 31.1476V32.6476L65.7794 32.6475L65.7723 31.1476ZM65.7175 31.1476V29.6476H65.7175L65.7175 31.1476ZM33.4391 63.6754H31.9391V63.6843L31.9392 63.6932L33.4391 63.6754ZM37.6818 79.7625L39.1286 80.1585L39.2893 79.5713L38.9954 79.0383L37.6818 79.7625ZM33.0854 96.5567L31.6387 96.1608L30.9559 98.6553L33.4602 98.0092L33.0854 96.5567ZM50.2156 92.1372L50.9375 90.8223L50.4164 90.5362L49.8409 90.6847L50.2156 92.1372ZM65.6662 96.0264L65.658 94.5264L65.6529 94.5265L65.6662 96.0264ZM97.9995 63.4986L96.4995 63.4912L96.4995 63.4995L97.9995 63.4986ZM52.1778 86.8338L52.9469 85.546L52.8988 85.5172L52.8487 85.4921L52.1778 86.8338ZM51.1171 86.3034L51.788 84.9618L51.2845 84.71L50.7397 84.8516L51.1171 86.3034ZM40.9168 88.9551L39.4662 88.5734L38.8141 91.0517L41.2943 90.4069L40.9168 88.9551ZM43.5686 78.8786L45.0192 79.2603L45.1909 78.6079L44.8166 78.0466L43.5686 78.8786ZM42.8615 77.8179L41.5862 78.6077L41.5994 78.629L41.6134 78.6499L42.8615 77.8179ZM38.8432 63.6984H37.3432V63.6984L38.8432 63.6984ZM79.8087 86.4802L79.0173 85.2059L79.0085 85.2114L78.9996 85.2171L79.8087 86.4802ZM79.4552 70.0396L80.0759 68.674L80.0662 68.6696L80.0564 68.6653L79.4552 70.0396ZM74.8589 67.9182L75.5297 66.5765L75.213 66.4182H74.8589V67.9182ZM74.3285 67.7414V66.2414H74.31L74.2915 66.2419L74.3285 67.7414ZM73.091 68.0949L73.8502 69.3886L73.8518 69.3877L73.091 68.0949ZM70.4393 71.1002L69.3105 70.1124L69.1869 70.2537L69.1019 70.421L70.4393 71.1002ZM69.5555 71.6306L69.5841 70.1308L69.5698 70.1306H69.5555V71.6306ZM69.3786 71.6306L69.1309 73.11L69.2539 73.1306H69.3786V71.6306ZM68.6715 71.277L69.7065 70.1912L69.4971 69.9917L69.2287 69.8843L68.6715 71.277ZM67.7876 70.9234L67.2028 72.3047L67.2166 72.3106L67.2305 72.3161L67.7876 70.9234ZM62.6609 67.5646L61.6002 68.6252L61.614 68.639L61.6281 68.6524L62.6609 67.5646ZM61.4235 66.5039L62.484 65.4431L62.4727 65.4318L62.4611 65.4207L61.4235 66.5039ZM58.0647 62.2612L56.7231 62.9321L56.7461 62.9782L56.7723 63.0226L58.0647 62.2612ZM57.8878 61.9076L59.2294 61.2366L59.1776 61.1331L59.1106 61.0387L57.8878 61.9076ZM57.5343 61.2005L56.0511 61.4244L56.069 61.543L56.1055 61.6572L57.5343 61.2005ZM57.7111 60.3166L56.4286 59.5386L56.4281 59.5395L57.7111 60.3166ZM58.9485 58.9023L57.8879 57.8416L57.8879 57.8416L58.9485 58.9023ZM59.8324 57.6648L60.8932 58.7254L60.9789 58.6397L61.0497 58.5414L59.8324 57.6648ZM60.186 55.897L61.6467 55.556L61.6269 55.4709L61.5972 55.3887L60.186 55.897ZM57.3575 49.1793L58.7073 48.5251L58.668 48.4439L58.6192 48.3681L57.3575 49.1793ZM56.12 48.2954L56.4783 46.8388L56.3018 46.7954H56.12V48.2954ZM53.1147 48.4722V46.9722H52.4934L52.0541 47.4115L53.1147 48.4722ZM52.938 48.649L53.6088 49.9906L53.8265 49.8817L53.9986 49.7096L52.938 48.649ZM51.8773 49.3561L51.2065 48.0144L51.2065 48.0145L51.8773 49.3561ZM50.9934 50.4168L49.9327 49.3561L49.8712 49.4177L49.8172 49.486L50.9934 50.4168ZM49.0488 55.897L47.5489 55.8782L47.5487 55.8981L47.5489 55.918L49.0488 55.897ZM49.9327 59.963L51.3556 59.4885L51.3337 59.4228L51.3059 59.3594L49.9327 59.963ZM50.1095 60.4933L48.6865 60.9678L48.714 61.0502L48.7508 61.1288L50.1095 60.4933ZM56.6504 69.5092L57.7111 68.4486L57.6939 68.4314L57.6762 68.4147L56.6504 69.5092ZM57.3575 70.2163L56.2968 71.2769L56.3465 71.3267L56.4007 71.3716L57.3575 70.2163ZM58.7718 71.6306L57.6165 72.5874L57.6947 72.6817L57.7871 72.7621L58.7718 71.6306ZM71.4823 78.3483L71.9567 76.9253L71.9103 76.9098L71.863 76.8974L71.4823 78.3483ZM73.2501 78.7018L72.7758 80.1248L73.0067 80.2018H73.2501V78.7018ZM75.018 78.7018V80.2018H75.0549L75.0919 80.2L75.018 78.7018ZM77.6697 77.9947L77.0507 76.6284L77.0189 76.6428L76.9878 76.6586L77.6697 77.9947ZM78.9071 77.2876L79.7685 78.5157L79.8755 78.4406L79.9679 78.3482L78.9071 77.2876ZM79.2607 76.934L78.2001 75.8732L78.2 75.8734L79.2607 76.934ZM80.3214 76.0501L79.3235 74.9302L79.2913 74.9589L79.2607 74.9895L80.3214 76.0501ZM81.2053 74.9894L82.4868 75.769L82.5421 75.6781L82.584 75.5803L81.2053 74.9894ZM81.9125 72.5145L83.3955 72.7392L83.4125 72.6275V72.5145H81.9125ZM81.9125 71.277H83.4125V70.6083L82.915 70.1613L81.9125 71.277ZM88.6478 40.6939L89.7191 39.6439C83.4158 33.2128 74.7692 29.6051 65.7652 29.6476L65.7723 31.1476L65.7794 32.6475C73.9725 32.6089 81.841 35.892 87.5766 41.7438L88.6478 40.6939ZM65.7723 31.1476V29.6476H65.7175V31.1476V32.6476H65.7723V31.1476ZM65.7175 31.1476L65.7175 29.6476C47.1809 29.6476 31.9373 44.8913 31.9373 63.4279H33.4373H34.9373C34.9373 46.5482 48.8378 32.6476 65.7175 32.6476L65.7175 31.1476ZM33.4373 63.4279H31.9373C31.9373 63.4788 31.9378 63.528 31.9383 63.5678C31.9387 63.6102 31.9391 63.6433 31.9391 63.6754H33.4391H34.9391C34.9391 63.6245 34.9385 63.5753 34.9381 63.5355C34.9376 63.4931 34.9373 63.46 34.9373 63.4279H33.4373ZM33.4391 63.6754L31.9392 63.6932C32.0088 69.5706 33.5303 75.3395 36.3683 80.4868L37.6818 79.7625L38.9954 79.0383C36.3962 74.3241 35.0027 69.0405 34.9389 63.6577L33.4391 63.6754ZM37.6818 79.7625L36.235 79.3665L31.6387 96.1608L33.0854 96.5567L34.5322 96.9527L39.1286 80.1585L37.6818 79.7625ZM33.0854 96.5567L33.4602 98.0092L50.5903 93.5896L50.2156 92.1372L49.8409 90.6847L32.7107 95.1043L33.0854 96.5567ZM50.2156 92.1372L49.4937 93.452C54.4511 96.1737 60.0244 97.5766 65.6796 97.5263L65.6662 96.0264L65.6529 94.5265C60.5115 94.5722 55.4445 93.2967 50.9375 90.8223L50.2156 92.1372ZM65.6662 96.0264L65.6744 97.5264C84.2734 97.4246 99.5107 82.0989 99.4995 63.4977L97.9995 63.4986L96.4995 63.4995C96.5097 80.4491 82.6063 94.4337 65.658 94.5264L65.6662 96.0264ZM97.9995 63.4986L99.4995 63.5061C99.5439 54.5665 96.019 45.9696 89.7107 39.6354L88.6478 40.6939L87.585 41.7523C93.3296 47.5205 96.54 55.3501 96.4995 63.4912L97.9995 63.4986ZM65.7723 90.5462L65.7645 89.0462C61.2528 89.0697 56.8205 87.8593 52.9469 85.546L52.1778 86.8338L51.4087 88.1216C55.7518 90.7154 60.7214 92.0725 65.7801 92.0461L65.7723 90.5462ZM52.1778 86.8338L52.8487 85.4921L51.788 84.9618L51.1171 86.3034L50.4463 87.645L51.507 88.1754L52.1778 86.8338ZM51.1171 86.3034L50.7397 84.8516L40.5394 87.5034L40.9168 88.9551L41.2943 90.4069L51.4945 87.7551L51.1171 86.3034ZM40.9168 88.9551L42.3675 89.3369L45.0192 79.2603L43.5686 78.8786L42.1179 78.4969L39.4662 88.5734L40.9168 88.9551ZM43.5686 78.8786L44.8166 78.0466L44.1096 76.9859L42.8615 77.8179L41.6134 78.6499L42.3205 79.7106L43.5686 78.8786ZM42.8615 77.8179L44.1367 77.0281C41.657 73.0242 40.3433 68.408 40.3432 63.6984L38.8432 63.6984L37.3432 63.6984C37.3433 68.9661 38.8127 74.1293 41.5862 78.6077L42.8615 77.8179ZM38.8432 63.6984H40.3432C40.3432 49.8151 51.7776 38.3806 65.661 38.3806V36.8806V35.3806C50.1208 35.3806 37.3432 48.1583 37.3432 63.6984H38.8432ZM65.661 36.8806V38.3806C79.5442 38.3806 90.9786 49.8151 90.9786 63.6984H92.4786H93.9786C93.9786 48.1583 81.2011 35.3806 65.661 35.3806V36.8806ZM92.4786 63.6984H90.9786C90.9786 72.443 86.4471 80.5916 79.0173 85.2059L79.8087 86.4802L80.6001 87.7544C88.911 82.5928 93.9786 73.4805 93.9786 63.6984H92.4786ZM79.8087 86.4802L78.9996 85.2171C75.0797 87.7281 70.5196 89.0574 65.8644 89.0462L65.8607 90.5462L65.8571 92.0462C71.0884 92.0588 76.2128 90.565 80.6178 87.7432L79.8087 86.4802ZM81.3998 70.9234L82.0205 69.5579L80.0759 68.674L79.4552 70.0396L78.8345 71.4051L80.7791 72.289L81.3998 70.9234ZM79.4552 70.0396C80.0564 68.6653 80.0564 68.6653 80.0564 68.6653C80.0564 68.6653 80.0564 68.6653 80.0564 68.6653C80.0563 68.6653 80.0562 68.6652 80.0561 68.6652C80.0558 68.6651 80.0554 68.6649 80.0547 68.6646C80.0535 68.664 80.0516 68.6632 80.049 68.6621C80.0438 68.6598 80.036 68.6564 80.0257 68.6519C80.0051 68.6428 79.9744 68.6293 79.9345 68.6118C79.8548 68.5767 79.7387 68.5255 79.5936 68.4611C79.3034 68.3325 78.8981 68.1517 78.4382 67.9437C77.5134 67.5253 76.3863 67.0048 75.5297 66.5765L74.8589 67.9182L74.1881 69.2598C75.0993 69.7154 76.2703 70.2556 77.2017 70.677C77.6699 70.8888 78.0822 71.0727 78.3776 71.2036C78.5253 71.2691 78.644 71.3215 78.7259 71.3575C78.7668 71.3756 78.7986 71.3895 78.8203 71.399C78.8311 71.4038 78.8394 71.4074 78.8451 71.4099C78.8479 71.4111 78.85 71.4121 78.8515 71.4127C78.8523 71.4131 78.8528 71.4133 78.8532 71.4135C78.8535 71.4136 78.8536 71.4136 78.8537 71.4137C78.8538 71.4137 78.8538 71.4137 78.8539 71.4138C78.8539 71.4138 78.8539 71.4138 79.4552 70.0396ZM74.8589 67.9182V66.4182C75.0604 66.4182 75.204 66.4677 75.253 66.486C75.2956 66.502 75.3229 66.5173 75.2645 66.4881C75.2345 66.4731 75.1188 66.4136 74.9877 66.3645C74.8503 66.313 74.6184 66.2414 74.3285 66.2414V67.7414V69.2414C74.127 69.2414 73.9835 69.1919 73.9345 69.1735C73.8919 69.1576 73.8645 69.1422 73.9229 69.1714C73.9529 69.1864 74.0686 69.2459 74.1996 69.295C74.337 69.3466 74.569 69.4182 74.8589 69.4182V67.9182ZM74.3285 67.7414L74.2915 66.2419C73.6007 66.2589 72.9257 66.4517 72.3302 66.8022L73.091 68.0949L73.8518 69.3877C74.0078 69.2959 74.1846 69.2454 74.3655 69.2409L74.3285 67.7414ZM73.091 68.0949L72.3318 66.8013C72.1882 66.8855 72.0143 66.9952 71.8183 67.1864C71.6762 67.325 71.5333 67.4981 71.3968 67.6631C71.0929 68.03 70.5344 68.7137 69.3105 70.1124L70.4393 71.1002L71.5682 72.088C72.8192 70.6582 73.3983 69.9497 73.7074 69.5764C73.7844 69.4835 73.8349 69.4232 73.8728 69.3794C73.9109 69.3354 73.92 69.3271 73.9134 69.3336C73.8633 69.3825 73.8056 69.4148 73.8502 69.3886L73.091 68.0949ZM70.4393 71.1002L69.1019 70.421C69.1949 70.2379 69.3813 70.127 69.5841 70.1308L69.5555 71.6306L69.5268 73.1303C70.472 73.1483 71.3479 72.6237 71.7767 71.7794L70.4393 71.1002ZM69.5555 71.6306V70.1306H69.3786V71.6306V73.1306H69.5555V71.6306ZM69.3786 71.6306L69.6263 70.1512C69.6564 70.1562 69.6844 70.1702 69.7065 70.1912L68.6715 71.277L67.6366 72.3628C68.0488 72.7557 68.5693 73.016 69.1309 73.11L69.3786 71.6306ZM68.6715 71.277L69.2287 69.8843L68.3447 69.5307L67.7876 70.9234L67.2305 72.3161L68.1144 72.6697L68.6715 71.277ZM67.7876 70.9234L68.3724 69.5421C66.6416 68.8094 65.0568 67.7711 63.6938 66.4769L62.6609 67.5646L61.6281 68.6524C63.2521 70.1945 65.1405 71.4316 67.2028 72.3047L67.7876 70.9234ZM62.6609 67.5646L63.7217 66.504C63.4747 66.257 63.1835 66.0263 62.9793 65.863C62.7415 65.6727 62.5907 65.5498 62.484 65.4431L61.4235 66.5039L60.3629 67.5646C60.6098 67.8115 60.901 68.0422 61.1051 68.2055C61.3429 68.3957 61.4936 68.5186 61.6002 68.6252L62.6609 67.5646ZM61.4235 66.5039L62.4611 65.4207C61.2517 64.2621 60.2072 62.9428 59.357 61.4997L58.0647 62.2612L56.7723 63.0226C57.762 64.7024 58.9779 66.2383 60.3858 67.5871L61.4235 66.5039ZM58.0647 62.2612L59.4062 61.5902L59.2294 61.2366L57.8878 61.9076L56.5463 62.5786L56.7231 62.9321L58.0647 62.2612ZM57.8878 61.9076L59.1106 61.0387C59.0465 60.9486 58.9967 60.8491 58.9631 60.7437L57.5343 61.2005L56.1055 61.6572C56.2333 62.0569 56.4221 62.4344 56.6651 62.7765L57.8878 61.9076ZM57.5343 61.2005L59.0175 60.9766C59.0236 61.0172 59.0153 61.0586 58.994 61.0937L57.7111 60.3166L56.4281 59.5395C56.0859 60.1044 55.9525 60.7713 56.0511 61.4244L57.5343 61.2005ZM57.7111 60.3166L58.9935 61.0946C58.9847 61.1091 59.003 61.0786 59.0732 60.9901C59.1356 60.9114 59.2186 60.8123 59.3188 60.6981C59.5192 60.4698 59.7659 60.2062 60.0092 59.963L58.9485 58.9023L57.8879 57.8416C57.6008 58.1287 57.3093 58.4397 57.0637 58.7196C56.8435 58.9706 56.5851 59.2805 56.4286 59.5386L57.7111 60.3166ZM58.9485 58.9023L60.0091 59.963C60.4118 59.5604 60.6231 59.2066 60.768 58.9458C60.843 58.8107 60.8588 58.7796 60.8853 58.7381C60.893 58.7259 60.8962 58.722 60.8958 58.7224C60.8957 58.7225 60.8953 58.7231 60.8945 58.724C60.8942 58.7244 60.8939 58.7247 60.8936 58.725C60.8935 58.7251 60.8934 58.7252 60.8933 58.7253C60.8933 58.7253 60.8932 58.7254 60.8932 58.7254C60.8932 58.7254 60.8932 58.7254 60.8932 58.7254L59.8324 57.6648L58.7717 56.6043C58.4152 56.9608 58.2237 57.3482 58.1456 57.4888C58.0695 57.6258 58.0156 57.7139 57.8879 57.8416L58.9485 58.9023ZM59.8324 57.6648L61.0497 58.5414C61.3566 58.1152 61.5686 57.6283 61.6716 57.1134L60.2007 56.8192L58.7298 56.5251C58.7108 56.62 58.6718 56.7098 58.6152 56.7883L59.8324 57.6648ZM60.2007 56.8192L61.6716 57.1134C61.7746 56.5984 61.7661 56.0674 61.6467 55.556L60.186 55.897L58.7253 56.2379C58.7473 56.3322 58.7488 56.4301 58.7298 56.5251L60.2007 56.8192ZM60.186 55.897L61.5972 55.3887C60.7555 53.0515 59.7908 50.7605 58.7073 48.5251L57.3575 49.1793L56.0077 49.8336C57.0452 51.9739 57.9688 54.1675 58.7747 56.4053L60.186 55.897ZM57.3575 49.1793L58.6192 48.3681C58.1274 47.6033 57.3612 47.056 56.4783 46.8388L56.12 48.2954L55.7618 49.752C55.8996 49.7859 56.0191 49.8713 56.0958 49.9906L57.3575 49.1793ZM56.12 48.2954V46.7954H54.1754V48.2954V49.7954H56.12V48.2954ZM54.1754 48.2954V46.7954C53.7818 46.7954 53.4229 46.8932 53.2813 46.9286C53.0694 46.9816 53.0747 46.9722 53.1147 46.9722V48.4722V49.9722C53.5084 49.9722 53.8673 49.8744 54.0089 49.839C54.2209 49.786 54.2156 49.7954 54.1754 49.7954V48.2954ZM53.1147 48.4722L52.0541 47.4115L51.8773 47.5883L52.938 48.649L53.9986 49.7096L54.1754 49.5329L53.1147 48.4722ZM52.938 48.649L52.2671 47.3073C51.946 47.4679 51.657 47.6905 51.5076 47.8026C51.4145 47.8724 51.3511 47.9196 51.2927 47.9598C51.2655 47.9785 51.2448 47.9919 51.2293 48.0013C51.2218 48.0059 51.2161 48.0092 51.2121 48.0114C51.2082 48.0136 51.2063 48.0145 51.2065 48.0144L51.8773 49.3561L52.548 50.6978C52.8692 50.5372 53.1583 50.3146 53.3077 50.2025C53.4008 50.1327 53.4642 50.0854 53.5226 50.0452C53.5498 50.0265 53.5705 50.0132 53.586 50.0037C53.5935 49.9991 53.5992 49.9958 53.6032 49.9936C53.6072 49.9914 53.609 49.9905 53.6088 49.9906L52.938 48.649ZM51.8773 49.3561L51.2065 48.0145C50.8951 48.1701 50.6726 48.3783 50.5228 48.5454C50.3762 48.709 50.2614 48.877 50.1872 48.9882C50.0918 49.1313 50.0632 49.1797 50.0036 49.2644C49.9814 49.2961 49.9647 49.3182 49.9519 49.3339C49.9457 49.3416 49.941 49.347 49.9377 49.3508C49.9361 49.3526 49.9349 49.3539 49.934 49.3548C49.9336 49.3553 49.9333 49.3556 49.9331 49.3558C49.9329 49.356 49.9327 49.3561 49.9327 49.3561L50.9934 50.4168L52.0541 51.4775C52.2277 51.3038 52.3611 51.1274 52.4583 50.9892C52.5424 50.8695 52.6463 50.7079 52.6834 50.6522C52.7419 50.5645 52.7596 50.5446 52.7566 50.548C52.7505 50.5549 52.6826 50.6305 52.5481 50.6978L51.8773 49.3561ZM50.9934 50.4168L49.8172 49.486C48.3756 51.3076 47.578 53.5554 47.5489 55.8782L49.0488 55.897L50.5487 55.9158C50.5695 54.2558 51.1395 52.6494 52.1697 51.3476L50.9934 50.4168ZM49.0488 55.897L47.5489 55.918C47.5713 57.5195 47.915 59.1003 48.5595 60.5666L49.9327 59.963L51.3059 59.3594C50.8229 58.2607 50.5654 57.0761 50.5486 55.876L49.0488 55.897ZM49.9327 59.963L48.5097 60.4375L48.6865 60.9678L50.1095 60.4933L51.5325 60.0188L51.3556 59.4885L49.9327 59.963ZM50.1095 60.4933L48.7508 61.1288C50.4189 64.6953 52.7519 67.911 55.6246 70.6036L56.6504 69.5092L57.6762 68.4147C55.0817 65.983 52.9748 63.0788 51.4682 59.8578L50.1095 60.4933ZM56.6504 69.5092L55.5897 70.5698L56.2968 71.2769L57.3575 70.2163L58.4182 69.1557L57.7111 68.4486L56.6504 69.5092ZM57.3575 70.2163L56.4007 71.3716C56.8431 71.7379 57.2501 72.145 57.6165 72.5874L58.7718 71.6306L59.927 70.6738C59.441 70.087 58.9011 69.5471 58.3143 69.0611L57.3575 70.2163ZM58.7718 71.6306L57.7871 72.7621C61.6244 76.1012 66.1817 78.5085 71.1017 79.7992L71.4823 78.3483L71.863 76.8974C67.3887 75.7236 63.2449 73.5346 59.7564 70.499L58.7718 71.6306ZM71.4823 78.3483L71.008 79.7713C71.4262 79.9107 71.8786 79.9706 72.1541 80.01C72.4974 80.059 72.6637 80.0875 72.7758 80.1248L73.2501 78.7018L73.7245 77.2788C73.3062 77.1394 72.8539 77.0795 72.5784 77.0401C72.2351 76.9911 72.0688 76.9626 71.9567 76.9253L71.4823 78.3483ZM73.2501 78.7018V80.2018H75.018V78.7018V77.2018H73.2501V78.7018ZM75.018 78.7018L75.0919 80.2C76.2277 80.144 77.3387 79.8477 78.3516 79.3307L77.6697 77.9947L76.9878 76.6586C76.3527 76.9828 75.6562 77.1685 74.9441 77.2036L75.018 78.7018ZM77.6697 77.9947L78.2887 79.361C78.8082 79.1256 79.3028 78.8422 79.7685 78.5157L78.9071 77.2876L78.0458 76.0595C77.7301 76.281 77.3973 76.4713 77.0507 76.6284L77.6697 77.9947ZM78.9071 77.2876L79.9679 78.3482L80.3214 77.9946L79.2607 76.934L78.2 75.8734L77.8464 76.227L78.9071 77.2876ZM79.2607 76.934L80.3213 77.9947C80.4127 77.9034 80.5078 77.8295 80.691 77.6921C80.8614 77.5643 81.1198 77.373 81.382 77.1108L80.3214 76.0501L79.2607 74.9895C79.1694 75.0808 79.0742 75.1547 78.8911 75.292C78.7207 75.4198 78.4623 75.6111 78.2001 75.8732L79.2607 76.934ZM80.3214 76.0501L81.3192 77.1701C81.7757 76.7634 82.1692 76.2912 82.4868 75.769L81.2053 74.9894L79.9238 74.2099C79.7605 74.4784 79.5582 74.7211 79.3235 74.9302L80.3214 76.0501ZM81.2053 74.9894L82.584 75.5803C82.9728 74.6731 83.247 73.7193 83.3955 72.7392L81.9125 72.5145L80.4294 72.2898C80.3197 73.0138 80.1166 73.7218 79.8266 74.3985L81.2053 74.9894ZM81.9125 72.5145H83.4125V71.277H81.9125H80.4125V72.5145H81.9125ZM81.9125 71.277L82.915 70.1613C82.6489 69.9221 82.3496 69.7226 82.0265 69.5689L81.3821 70.9234L80.7377 72.278C80.8003 72.3077 80.8583 72.3464 80.9099 72.3928L81.9125 71.277Z" fill="#1F1F1F" mask="url(#path-2-outside-1_16_313)"/>
</svg>
