{
  "accessors": [
    {
      "bufferView": 2,
      "componentType": 5126,
      "count": 21982,
      "max": [
        0.5257920026779175,
        -0.049092598259449005,
        -0.6373479962348938
      ],
      "min": [
        -0.5235790014266968,
        -0.7041569948196411,
        -1.3126399517059326
      ],
      "type": "VEC3"
    },
    {
      "bufferView": 2,
      "byteOffset": 263784,
      "componentType": 5126,
      "count": 21982,
      "max": [
        0.9994512796401978,
        0.9250190258026123,
        0.9870589375495911
      ],
      "min": [
        -0.9998441934585571,
        -0.9999815225601196,
        -0.9999909400939941
      ],
      "type": "VEC3"
    },
    {
      "bufferView": 0,
      "componentType": 5125,
      "count": 128196,
      "type": "SCALAR"
    },
    {
      "bufferView": 2,
      "byteOffset": 527568,
      "componentType": 5126,
      "count": 20004,
      "max": [
        0.386570006608963,
        -0.3909110128879547,
        -0.6457120180130005
      ],
      "min": [
        -0.3852429986000061,
        -0.7735360264778137,
        -1.101889967918396
      ],
      "type": "VEC3"
    },
    {
      "bufferView": 2,
      "byteOffset": 767616,
      "componentType": 5126,
      "count": 20004,
      "max": [
        0.9990544319152832,
        0.9999079704284668,
        0.999914288520813
      ],
      "min": [
        -0.9984907507896423,
        -0.999754786491394,
        -0.9999908208847046
      ],
      "type": "VEC3"
    },
    {
      "bufferView": 0,
      "byteOffset": 512784,
      "componentType": 5125,
      "count": 118977,
      "type": "SCALAR"
    },
    {
      "bufferView": 2,
      "byteOffset": 1007664,
      "componentType": 5126,
      "count": 5970,
      "max": [
        0.5716279745101929,
        -0.15718300640583038,
        -0.7047330141067505
      ],
      "min": [
        -0.5694130063056946,
        -0.5303599834442139,
        -0.9578350186347961
      ],
      "type": "VEC3"
    },
    {
      "bufferView": 2,
      "byteOffset": 1079304,
      "componentType": 5126,
      "count": 5970,
      "max": [
        0.9997220039367676,
        0.8925681710243225,
        0.999841570854187
      ],
      "min": [
        -0.9996110200881958,
        -0.999995231628418,
        -0.8820157647132874
      ],
      "type": "VEC3"
    },
    {
      "bufferView": 0,
      "byteOffset": 988692,
      "componentType": 5125,
      "count": 33321,
      "type": "SCALAR"
    },
    {
      "bufferView": 2,
      "byteOffset": 1150944,
      "componentType": 5126,
      "count": 65532,
      "max": [
        0.722258985042572,
        0.43263599276542664,
        -0.0020326999947428703
      ],
      "min": [
        -0.722258985042572,
        -0.6523039937019348,
        -0.8775569796562195
      ],
      "type": "VEC3"
    },
    {
      "bufferView": 2,
      "byteOffset": 1937328,
      "componentType": 5126,
      "count": 65532,
      "max": [
        0.9992856383323669,
        0.9999638795852661,
        0.9999786019325256
      ],
      "min": [
        -0.9997649788856506,
        -0.9999784827232361,
        -0.9997008442878723
      ],
      "type": "VEC3"
    },
    {
      "bufferView": 0,
      "byteOffset": 1121976,
      "componentType": 5125,
      "count": 65532,
      "type": "SCALAR"
    },
    {
      "bufferView": 2,
      "byteOffset": 2723712,
      "componentType": 5126,
      "count": 65532,
      "max": [
        0.721472978591919,
        0.43161600828170776,
        2.3841900542720396e-07
      ],
      "min": [
        -0.7195770144462585,
        -0.6600149869918823,
        -0.8918740153312683
      ],
      "type": "VEC3"
    },
    {
      "bufferView": 2,
      "byteOffset": 3510096,
      "componentType": 5126,
      "count": 65532,
      "max": [
        0.9999393224716187,
        0.9999806880950928,
        1.0
      ],
      "min": [
        -0.9999899864196777,
        -0.9999184608459473,
        -0.9999613761901855
      ],
      "type": "VEC3"
    },
    {
      "bufferView": 0,
      "byteOffset": 1384104,
      "componentType": 5125,
      "count": 65532,
      "type": "SCALAR"
    },
    {
      "bufferView": 2,
      "byteOffset": 4296480,
      "componentType": 5126,
      "count": 35337,
      "max": [
        0.7220550179481506,
        0.43245500326156616,
        -0.0014089900068938732
      ],
      "min": [
        -0.7208690047264099,
        -0.6600149869918823,
        -0.8910539746284485
      ],
      "type": "VEC3"
    },
    {
      "bufferView": 2,
      "byteOffset": 4720524,
      "componentType": 5126,
      "count": 35337,
      "max": [
        0.9997996687889099,
        0.9999643564224243,
        0.9999960064888
      ],
      "min": [
        -0.9999105334281921,
        -0.9999781250953674,
        -0.9997228384017944
      ],
      "type": "VEC3"
    },
    {
      "bufferView": 0,
      "byteOffset": 1646232,
      "componentType": 5125,
      "count": 35337,
      "type": "SCALAR"
    },
    {
      "bufferView": 2,
      "byteOffset": 5144568,
      "componentType": 5126,
      "count": 25052,
      "max": [
        0.6024254560470581,
        0.46331220865249634,
        -0.03165508806705475
      ],
      "min": [
        -0.580173909664154,
        -0.5354762673377991,
        -1.3902499675750732
      ],
      "type": "VEC3"
    },
    {
      "bufferView": 2,
      "byteOffset": 5445192,
      "componentType": 5126,
      "count": 25052,
      "max": [
        0.9999902248382568,
        0.9997702836990356,
        0.9999810457229614
      ],
      "min": [
        -0.9999940395355225,
        -0.9999961853027344,
        -0.9996912479400635
      ],
      "type": "VEC3"
    },
    {
      "bufferView": 0,
      "byteOffset": 1787580,
      "componentType": 5125,
      "count": 149058,
      "type": "SCALAR"
    },
    {
      "bufferView": 2,
      "byteOffset": 5745816,
      "componentType": 5126,
      "count": 14670,
      "max": [
        0.6043943166732788,
        0.24328799545764923,
        -0.512395977973938
      ],
      "min": [
        -0.6021829843521118,
        -0.44000399112701416,
        -1.0048199892044067
      ],
      "type": "VEC3"
    },
    {
      "bufferView": 2,
      "byteOffset": 5921856,
      "componentType": 5126,
      "count": 14670,
      "max": [
        0.9999905824661255,
        0.9999366998672485,
        0.999984860420227
      ],
      "min": [
        -0.9999804496765137,
        -0.999573826789856,
        -0.9624419212341309
      ],
      "type": "VEC3"
    },
    {
      "bufferView": 0,
      "byteOffset": 2383812,
      "componentType": 5125,
      "count": 83097,
      "type": "SCALAR"
    },
    {
      "bufferView": 2,
      "byteOffset": 6097896,
      "componentType": 5126,
      "count": 34,
      "max": [
        1.0256062746047974,
        0.0,
        1.0299999713897705
      ],
      "min": [
        -1.0256061553955078,
        0.0,
        -1.0299999713897705
      ],
      "type": "VEC3"
    },
    {
      "bufferView": 2,
      "byteOffset": 6098304,
      "componentType": 5126,
      "count": 34,
      "max": [
        0.0,
        1.0,
        -0.0
      ],
      "min": [
        0.0,
        1.0,
        -0.0
      ],
      "type": "VEC3"
    },
    {
      "bufferView": 1,
      "componentType": 5126,
      "count": 34,
      "max": [
        0.0,
        0.0
      ],
      "min": [
        0.0,
        0.0
      ],
      "type": "VEC2"
    },
    {
      "bufferView": 0,
      "byteOffset": 2716200,
      "componentType": 5125,
      "count": 96,
      "type": "SCALAR"
    }
  ],
  "asset": {
    "extras": {
      "author": "DEDROX (https://sketchfab.com/Raghavprasanna)",
      "license": "CC-BY-4.0 (http://creativecommons.org/licenses/by/4.0/)",
      "source": "https://sketchfab.com/3d-models/cyberpunk-vr-head-rig-dbaf4b552a814f1ea7b27e4488a0c9f2",
      "title": "Cyberpunk VR head rig"
    },
    "generator": "Sketchfab-12.67.0",
    "version": "2.0"
  },
  "bufferViews": [
    {
      "buffer": 0,
      "byteLength": 2716584,
      "name": "floatBufferViews",
      "target": 34963
    },
    {
      "buffer": 0,
      "byteLength": 272,
      "byteOffset": 2716584,
      "byteStride": 8,
      "name": "floatBufferViews",
      "target": 34962
    },
    {
      "buffer": 0,
      "byteLength": 6098712,
      "byteOffset": 2716856,
      "byteStride": 12,
      "name": "floatBufferViews",
      "target": 34962
    }
  ],
  "buffers": [
    {
      "byteLength": 8815568,
      "uri": "scene.bin"
    }
  ],
  "materials": [
    {
      "doubleSided": true,
      "name": "Material.001",
      "pbrMetallicRoughness": {
        "baseColorFactor": [
          0.1776805423937492,
          0.1776805423937492,
          0.1776805423937492,
          1.0
        ],
        "roughnessFactor": 0.0
      }
    },
    {
      "doubleSided": true,
      "name": "Material",
      "pbrMetallicRoughness": {
        "baseColorFactor": [
          0.2316472727800366,
          0.2316472727800366,
          0.2316472727800366,
          1.0
        ],
        "roughnessFactor": 0.0
      }
    },
    {
      "doubleSided": true,
      "name": "Material.005",
      "pbrMetallicRoughness": {
        "baseColorFactor": [
          0.165696,
          0.165696,
          0.165696,
          1.0
        ],
        "roughnessFactor": 0.0
      }
    },
    {
      "doubleSided": true,
      "name": "Paint_Gloss_White",
      "pbrMetallicRoughness": {
        "baseColorFactor": [
          0.0,
          0.0,
          0.0,
          1.0
        ],
        "metallicFactor": 0.0,
        "roughnessFactor": 0.1655418210866517
      }
    },
    {
      "doubleSided": true,
      "name": "Material.002",
      "pbrMetallicRoughness": {
        "baseColorFactor": [
          0.06707836972977807,
          0.06707836972977807,
          0.06707836972977807,
          1.0
        ],
        "roughnessFactor": 0.0
      }
    },
    {
      "doubleSided": true,
      "name": "Material.003",
      "pbrMetallicRoughness": {
        "baseColorFactor": [
          0.07902301435130014,
          0.07902301435130014,
          0.07902301435130014,
          1.0
        ],
        "roughnessFactor": 0.529703460299577
      }
    },
    {
      "doubleSided": true,
      "name": "Material.004",
      "pbrMetallicRoughness": {
        "baseColorFactor": [
          0.9136978443225868,
          0.09474404949103792,
          0.09474404949103792,
          1.0
        ],
        "metallicFactor": 0.0,
        "roughnessFactor": 0.0
      }
    }
  ],
  "meshes": [
    {
      "name": "Object_0",
      "primitives": [
        {
          "attributes": {
            "NORMAL": 1,
            "POSITION": 0
          },
          "indices": 2,
          "material": 0,
          "mode": 4
        }
      ]
    },
    {
      "name": "Object_1",
      "primitives": [
        {
          "attributes": {
            "NORMAL": 4,
            "POSITION": 3
          },
          "indices": 5,
          "material": 1,
          "mode": 4
        }
      ]
    },
    {
      "name": "Object_2",
      "primitives": [
        {
          "attributes": {
            "NORMAL": 7,
            "POSITION": 6
          },
          "indices": 8,
          "material": 2,
          "mode": 4
        }
      ]
    },
    {
      "name": "Object_3",
      "primitives": [
        {
          "attributes": {
            "NORMAL": 10,
            "POSITION": 9
          },
          "indices": 11,
          "material": 3,
          "mode": 4
        }
      ]
    },
    {
      "name": "Object_4",
      "primitives": [
        {
          "attributes": {
            "NORMAL": 13,
            "POSITION": 12
          },
          "indices": 14,
          "material": 3,
          "mode": 4
        }
      ]
    },
    {
      "name": "Object_5",
      "primitives": [
        {
          "attributes": {
            "NORMAL": 16,
            "POSITION": 15
          },
          "indices": 17,
          "material": 3,
          "mode": 4
        }
      ]
    },
    {
      "name": "Object_6",
      "primitives": [
        {
          "attributes": {
            "NORMAL": 19,
            "POSITION": 18
          },
          "indices": 20,
          "material": 4,
          "mode": 4
        }
      ]
    },
    {
      "name": "Object_7",
      "primitives": [
        {
          "attributes": {
            "NORMAL": 22,
            "POSITION": 21
          },
          "indices": 23,
          "material": 5,
          "mode": 4
        }
      ]
    },
    {
      "name": "Object_8",
      "primitives": [
        {
          "attributes": {
            "NORMAL": 25,
            "POSITION": 24,
            "TEXCOORD_0": 26
          },
          "indices": 27,
          "material": 6,
          "mode": 4
        }
      ]
    }
  ],
  "nodes": [
    {
      "children": [
        1
      ],
      "matrix": [
        1.0,
        0.0,
        0.0,
        0.0,
        0.0,
        2.220446049250313e-16,
        -1.0,
        0.0,
        0.0,
        1.0,
        2.220446049250313e-16,
        0.0,
        0.0,
        0.0,
        0.0,
        1.0
      ],
      "name": "Sketchfab_model"
    },
    {
      "children": [
        2
      ],
      "name": "root"
    },
    {
      "children": [
        3,
        5,
        7,
        9,
        13,
        15,
        17
      ],
      "matrix": [
        1.0,
        0.0,
        0.0,
        0.0,
        0.0,
        2.220446049250313e-16,
        1.0,
        0.0,
        0.0,
        -1.0,
        2.220446049250313e-16,
        0.0,
        0.0,
        0.0,
        0.0,
        1.0
      ],
      "name": "GLTF_SceneRootNode"
    },
    {
      "children": [
        4
      ],
      "matrix": [
        1.0,
        0.0,
        0.0,
        0.0,
        0.0,
        -1.685873969314855e-07,
        0.9999999999999858,
        0.0,
        0.0,
        -0.9999999999999858,
        -1.685873969314855e-07,
        0.0,
        0.0,
        0.0,
        0.0,
        1.0
      ],
      "name": "cith scape houses_0"
    },
    {
      "mesh": 0,
      "name": "Object_4"
    },
    {
      "children": [
        6
      ],
      "matrix": [
        1.0,
        0.0,
        0.0,
        0.0,
        0.0,
        -1.685873969314855e-07,
        0.9999999999999858,
        0.0,
        0.0,
        -0.9999999999999858,
        -1.685873969314855e-07,
        0.0,
        0.0,
        0.0,
        0.0,
        1.0
      ],
      "name": "cith scape houses.001_1"
    },
    {
      "mesh": 1,
      "name": "Object_6"
    },
    {
      "children": [
        8
      ],
      "matrix": [
        1.0,
        0.0,
        0.0,
        0.0,
        0.0,
        -1.685873969314855e-07,
        0.9999999999999858,
        0.0,
        0.0,
        -0.9999999999999858,
        -1.685873969314855e-07,
        0.0,
        0.0,
        0.0,
        0.0,
        1.0
      ],
      "name": "cith scape houses.002_2"
    },
    {
      "mesh": 2,
      "name": "Object_8"
    },
    {
      "children": [
        10,
        11,
        12
      ],
      "matrix": [
        1.0,
        0.0,
        0.0,
        0.0,
        0.0,
        -1.685873969314855e-07,
        0.9999999999999858,
        0.0,
        0.0,
        -0.9999999999999858,
        -1.685873969314855e-07,
        0.0,
        0.0,
        0.0,
        0.0,
        1.0
      ],
      "name": "cith scape houses.003_3"
    },
    {
      "mesh": 3,
      "name": "Object_10"
    },
    {
      "mesh": 4,
      "name": "Object_11"
    },
    {
      "mesh": 5,
      "name": "Object_12"
    },
    {
      "children": [
        14
      ],
      "matrix": [
        1.0,
        0.0,
        0.0,
        0.0,
        0.0,
        -1.685873969314855e-07,
        0.9999999999999858,
        0.0,
        0.0,
        -0.9999999999999858,
        -1.685873969314855e-07,
        0.0,
        0.0,
        0.0,
        0.0,
        1.0
      ],
      "name": "cith scape houses.004_4"
    },
    {
      "mesh": 6,
      "name": "Object_14"
    },
    {
      "children": [
        16
      ],
      "matrix": [
        1.0,
        0.0,
        0.0,
        0.0,
        0.0,
        -1.685873969314855e-07,
        0.9999999999999858,
        0.0,
        0.0,
        -0.9999999999999858,
        -1.685873969314855e-07,
        0.0,
        0.0,
        0.0,
        0.0,
        1.0
      ],
      "name": "cith scape houses.005_5"
    },
    {
      "mesh": 7,
      "name": "Object_16"
    },
    {
      "children": [
        18
      ],
      "name": "Circle_6"
    },
    {
      "mesh": 8,
      "name": "Object_18"
    }
  ],
  "scene": 0,
  "scenes": [
    {
      "name": "Sketchfab_Scene",
      "nodes": [
        0
      ]
    }
  ]
}
