<svg width="128" height="128" viewBox="0 0 128 128" fill="none" xmlns="http://www.w3.org/2000/svg">
<path d="M1.04785 79.5V48.5H6.98214L20.1793 70.3771H17.035L30.0107 48.5H35.9007L35.9893 79.5H29.2579L29.2136 58.8186H30.4536L20.0907 76.2229H16.8579L6.27357 58.8186H7.77928V79.5H1.04785Z" fill="#D0D0D0"/>
<path d="M46.2784 60.9886H61.2027V66.5686H46.2784V60.9886ZM46.8098 73.7429H63.6827V79.5H39.6798V48.5H63.107V54.2571H46.8098V73.7429Z" fill="#D0D0D0"/>
<path d="M67.373 79.5V48.5H80.7916C83.5669 48.5 85.9583 48.9576 87.9659 49.8729C89.9735 50.7586 91.5235 52.0429 92.6159 53.7257C93.7083 55.4086 94.2545 57.4162 94.2545 59.7486C94.2545 62.0514 93.7083 64.0443 92.6159 65.7271C91.5235 67.3805 89.9735 68.65 87.9659 69.5357C85.9583 70.4214 83.5669 70.8643 80.7916 70.8643H71.3588L74.5473 67.72V79.5H67.373ZM87.0802 79.5L79.3302 68.2514H86.9916L94.8302 79.5H87.0802ZM74.5473 68.5171L71.3588 65.1514H80.393C82.6073 65.1514 84.2607 64.679 85.353 63.7343C86.4454 62.76 86.9916 61.4314 86.9916 59.7486C86.9916 58.0362 86.4454 56.7076 85.353 55.7629C84.2607 54.8181 82.6073 54.3457 80.393 54.3457H71.3588L74.5473 50.9357V68.5171Z" fill="#D0D0D0"/>
<path d="M98.5208 79.5V48.5H104.455L122.745 70.82H119.866V48.5H126.952V79.5H121.062L102.728 57.18H105.606V79.5H98.5208Z" fill="#D0D0D0"/>
</svg>
