<svg width="409" height="67" viewBox="0 0 409 67" fill="none" xmlns="http://www.w3.org/2000/svg">
<path d="M15.1902 65.2671H0.458508L22.9053 0.244344H40.6215L63.0366 65.2671H48.3048L32.0174 15.1031H31.5094L15.1902 65.2671ZM14.2695 39.7088H49.0668V50.4401H14.2695V39.7088ZM100.988 44.503V16.5H114.513V65.2671H101.528V56.409H101.02C99.919 59.2665 98.0881 61.563 95.527 63.2986C92.987 65.0343 89.8862 65.9021 86.2244 65.9021C82.9648 65.9021 80.0968 65.1613 77.6203 63.6796C75.1439 62.198 73.2071 60.0919 71.8102 57.3615C70.4344 54.631 69.7359 51.3609 69.7147 47.5509V16.5H83.2399V45.138C83.2611 48.0166 84.0337 50.292 85.5577 51.9641C87.0816 53.6362 89.1242 54.4723 91.6853 54.4723C93.3151 54.4723 94.8391 54.1019 96.2572 53.3611C97.6753 52.5991 98.8183 51.4773 99.6861 49.9956C100.575 48.514 101.009 46.6831 100.988 44.503ZM150.377 16.5V26.6598H121.009V16.5H150.377ZM127.676 4.81626H141.201V50.2814C141.201 51.5302 141.392 52.5038 141.773 53.2023C142.154 53.8796 142.683 54.3559 143.36 54.631C144.059 54.9062 144.863 55.0438 145.773 55.0438C146.408 55.0438 147.043 54.9909 147.678 54.885C148.313 54.758 148.8 54.6628 149.139 54.5993L151.266 64.6639C150.589 64.8755 149.636 65.1189 148.408 65.3941C147.181 65.6904 145.689 65.8703 143.932 65.9338C140.672 66.0608 137.815 65.6269 135.359 64.6321C132.925 63.6373 131.031 62.0922 129.676 59.9967C128.322 57.9012 127.655 55.2554 127.676 52.0593V4.81626ZM172.866 37.0736V65.2671H159.341V0.244344H172.485V25.1041H173.057C174.157 22.2255 175.935 19.9713 178.391 18.3415C180.846 16.6905 183.926 15.865 187.63 15.865C191.016 15.865 193.969 16.6059 196.488 18.0875C199.028 19.548 200.996 21.654 202.393 24.4056C203.811 27.1361 204.51 30.4063 204.489 34.2162V65.2671H190.963V36.6291C190.985 33.6235 190.223 31.2847 188.677 29.6125C187.153 27.9404 185.016 27.1043 182.264 27.1043C180.423 27.1043 178.793 27.4959 177.375 28.2791C175.978 29.0622 174.877 30.2052 174.073 31.708C173.29 33.1896 172.887 34.9782 172.866 37.0736ZM268.879 0.244344V65.2671H257.005L228.716 24.3421H228.24V65.2671H214.493V0.244344H226.557L254.624 41.1376H255.195V0.244344H268.879ZM301.314 66.2196C296.298 66.2196 291.98 65.2036 288.36 63.1716C284.762 61.1185 281.989 58.2187 280.042 54.4723C278.095 50.7047 277.121 46.2492 277.121 41.1058C277.121 36.0894 278.095 31.6868 280.042 27.8981C281.989 24.1093 284.73 21.1566 288.265 19.04C291.821 16.9234 295.991 15.865 300.774 15.865C303.992 15.865 306.987 16.3836 309.759 17.4208C312.553 18.4367 314.988 19.9713 317.062 22.0244C319.157 24.0776 320.787 26.6598 321.951 29.7713C323.115 32.8615 323.697 36.481 323.697 40.6296V44.3442H282.518V35.9624H310.966C310.966 34.0151 310.543 32.2901 309.696 30.7873C308.849 29.2845 307.675 28.1097 306.172 27.2631C304.69 26.3953 302.965 25.9613 300.997 25.9613C298.943 25.9613 297.123 26.4376 295.536 27.3901C293.969 28.3214 292.742 29.5808 291.853 31.1682C290.964 32.7346 290.509 34.4808 290.488 36.4069V44.376C290.488 46.7889 290.932 48.8738 291.821 50.6306C292.731 52.3874 294.012 53.7421 295.663 54.6945C297.314 55.647 299.272 56.1233 301.536 56.1233C303.039 56.1233 304.415 55.9116 305.664 55.4883C306.913 55.065 307.981 54.43 308.87 53.5833C309.759 52.7367 310.437 51.6995 310.902 50.4719L323.412 51.2974C322.777 54.303 321.475 56.9276 319.507 59.1712C317.559 61.3937 315.04 63.1293 311.95 64.3781C308.881 65.6057 305.336 66.2196 301.314 66.2196ZM342.059 16.5L351.013 33.5495L360.188 16.5H374.063L359.934 40.8836L374.444 65.2671H360.633L351.013 48.4082L341.551 65.2671H327.582L342.059 40.8836L328.09 16.5H342.059ZM407.141 16.5V26.6598H377.772V16.5H407.141ZM384.44 4.81626H397.965V50.2814C397.965 51.5302 398.155 52.5038 398.536 53.2023C398.917 53.8796 399.447 54.3559 400.124 54.631C400.822 54.9062 401.627 55.0438 402.537 55.0438C403.172 55.0438 403.807 54.9909 404.442 54.885C405.077 54.758 405.564 54.6628 405.902 54.5993L408.03 64.6639C407.352 64.8755 406.4 65.1189 405.172 65.3941C403.944 65.6904 402.452 65.8703 400.695 65.9338C397.436 66.0608 394.578 65.6269 392.123 64.6321C389.689 63.6373 387.795 62.0922 386.44 59.9967C385.085 57.9012 384.419 55.2554 384.44 52.0593V4.81626Z" fill="#3664E2"/>
</svg>
