<svg width="138" height="138" viewBox="0 0 138 138" fill="none" xmlns="http://www.w3.org/2000/svg">
<path d="M68.8313 125.494C66.8365 125.525 64.8684 125.033 63.123 124.067L61.4105 123.097C48.0716 115.55 36.9746 104.599 29.2524 91.3605C21.5303 78.1225 17.4597 63.0723 17.4563 47.7466V46.9475C17.4382 44.9261 17.9571 42.9361 18.9601 41.181C19.963 39.4259 21.4139 37.9685 23.1646 36.9579L63.123 14.467C64.8585 13.465 66.8273 12.9375 68.8313 12.9375C70.8353 12.9375 72.8041 13.465 74.5396 14.467L114.498 36.9579C116.249 37.9685 117.7 39.4259 118.703 41.181C119.705 42.9361 120.224 44.9261 120.206 46.9475V47.7466C120.192 63.0836 116.104 78.1415 108.361 91.3805C100.618 104.62 89.498 115.565 76.138 123.097L74.4255 124.067C72.7138 125.014 70.7875 125.506 68.8313 125.494Z" fill="#3664E2"/>
</svg>
