<svg width="557" height="138" viewBox="0 0 557 138" fill="none" xmlns="http://www.w3.org/2000/svg">
<path d="M68.8313 125.494C66.8365 125.525 64.8684 125.033 63.123 124.067L61.4105 123.097C48.0716 115.55 36.9746 104.599 29.2524 91.3605C21.5303 78.1225 17.4597 63.0723 17.4563 47.7466V46.9475C17.4382 44.9261 17.9571 42.9361 18.9601 41.181C19.963 39.4259 21.4139 37.9685 23.1646 36.9579L63.123 14.467C64.8585 13.465 66.8273 12.9375 68.8313 12.9375C70.8353 12.9375 72.8041 13.465 74.5396 14.467L114.498 36.9579C116.249 37.9685 117.7 39.4259 118.703 41.181C119.705 42.9361 120.224 44.9261 120.206 46.9475V47.7466C120.192 63.0836 116.104 78.1415 108.361 91.3805C100.618 104.62 89.498 115.565 76.138 123.097L74.4255 124.067C72.7138 125.014 70.7875 125.506 68.8313 125.494Z" fill="#3664E2"/>
<path d="M160.19 102.267H145.459L167.905 37.2443H185.621L208.037 102.267H193.305L177.017 52.1031H176.509L160.19 102.267ZM159.269 76.7088H194.067V87.4401H159.269V76.7088ZM245.988 81.503V53.5H259.513V102.267H246.528V93.409H246.02C244.919 96.2665 243.088 98.563 240.527 100.299C237.987 102.034 234.886 102.902 231.224 102.902C227.965 102.902 225.097 102.161 222.62 100.68C220.144 99.198 218.207 97.0919 216.81 94.3615C215.434 91.631 214.736 88.3609 214.715 84.5509V53.5H228.24V82.138C228.261 85.0166 229.034 87.292 230.558 88.9641C232.082 90.6362 234.124 91.4723 236.685 91.4723C238.315 91.4723 239.839 91.1019 241.257 90.3611C242.675 89.5991 243.818 88.4773 244.686 86.9956C245.575 85.514 246.009 83.6831 245.988 81.503ZM295.377 53.5V63.6598H266.009V53.5H295.377ZM272.676 41.8163H286.201V87.2814C286.201 88.5302 286.392 89.5038 286.773 90.2023C287.154 90.8796 287.683 91.3559 288.36 91.631C289.059 91.9062 289.863 92.0438 290.773 92.0438C291.408 92.0438 292.043 91.9909 292.678 91.885C293.313 91.758 293.8 91.6628 294.139 91.5993L296.266 101.664C295.589 101.876 294.636 102.119 293.408 102.394C292.181 102.69 290.689 102.87 288.932 102.934C285.672 103.061 282.815 102.627 280.359 101.632C277.925 100.637 276.031 99.0922 274.676 96.9967C273.322 94.9012 272.655 92.2554 272.676 89.0593V41.8163ZM317.866 74.0736V102.267H304.341V37.2443H317.485V62.1041H318.057C319.157 59.2255 320.935 56.9713 323.391 55.3415C325.846 53.6905 328.926 52.865 332.63 52.865C336.016 52.865 338.969 53.6059 341.488 55.0875C344.028 56.548 345.996 58.654 347.393 61.4056C348.811 64.1361 349.51 67.4063 349.489 71.2162V102.267H335.963V73.6291C335.985 70.6235 335.223 68.2847 333.677 66.6125C332.153 64.9404 330.016 64.1043 327.264 64.1043C325.423 64.1043 323.793 64.4959 322.375 65.2791C320.978 66.0622 319.877 67.2052 319.073 68.708C318.29 70.1896 317.887 71.9782 317.866 74.0736ZM413.879 37.2443V102.267H402.005L373.716 61.3421H373.24V102.267H359.493V37.2443H371.557L399.624 78.1376H400.195V37.2443H413.879ZM446.314 103.22C441.298 103.22 436.98 102.204 433.36 100.172C429.762 98.1185 426.989 95.2187 425.042 91.4723C423.095 87.7047 422.121 83.2492 422.121 78.1058C422.121 73.0894 423.095 68.6868 425.042 64.8981C426.989 61.1093 429.73 58.1566 433.265 56.04C436.821 53.9234 440.991 52.865 445.774 52.865C448.992 52.865 451.987 53.3836 454.759 54.4208C457.553 55.4367 459.988 56.9713 462.062 59.0244C464.157 61.0776 465.787 63.6598 466.951 66.7713C468.115 69.8615 468.697 73.481 468.697 77.6296V81.3442H427.518V72.9624H455.966C455.966 71.0151 455.543 69.2901 454.696 67.7873C453.849 66.2845 452.675 65.1097 451.172 64.2631C449.69 63.3953 447.965 62.9613 445.997 62.9613C443.943 62.9613 442.123 63.4376 440.536 64.3901C438.969 65.3214 437.742 66.5808 436.853 68.1682C435.964 69.7346 435.509 71.4808 435.488 73.4069V81.376C435.488 83.7889 435.932 85.8738 436.821 87.6306C437.731 89.3874 439.012 90.7421 440.663 91.6945C442.314 92.647 444.272 93.1233 446.536 93.1233C448.039 93.1233 449.415 92.9116 450.664 92.4883C451.913 92.065 452.981 91.43 453.87 90.5833C454.759 89.7367 455.437 88.6995 455.902 87.4719L468.412 88.2974C467.777 91.303 466.475 93.9276 464.507 96.1712C462.559 98.3937 460.04 100.129 456.95 101.378C453.881 102.606 450.336 103.22 446.314 103.22ZM487.059 53.5L496.013 70.5495L505.188 53.5H519.063L504.934 77.8836L519.444 102.267H505.633L496.013 85.4082L486.551 102.267H472.582L487.059 77.8836L473.09 53.5H487.059ZM552.141 53.5V63.6598H522.772V53.5H552.141ZM529.44 41.8163H542.965V87.2814C542.965 88.5302 543.155 89.5038 543.536 90.2023C543.917 90.8796 544.447 91.3559 545.124 91.631C545.822 91.9062 546.627 92.0438 547.537 92.0438C548.172 92.0438 548.807 91.9909 549.442 91.885C550.077 91.758 550.564 91.6628 550.902 91.5993L553.03 101.664C552.352 101.876 551.4 102.119 550.172 102.394C548.944 102.69 547.452 102.87 545.695 102.934C542.436 103.061 539.578 102.627 537.123 101.632C534.689 100.637 532.795 99.0922 531.44 96.9967C530.085 94.9012 529.419 92.2554 529.44 89.0593V41.8163Z" fill="#3664E2"/>
</svg>
