<svg width="575" height="264" viewBox="0 0 575 264" fill="none" xmlns="http://www.w3.org/2000/svg">
<path d="M189.411 89.5888C222.265 108.557 222.265 155.977 189.411 174.945L139.754 203.615C106.9 222.583 65.833 198.873 65.833 160.937L65.833 103.598C65.833 65.6613 106.9 41.9511 139.754 60.9193L189.411 89.5888Z" fill="white"/>
<path d="M120.986 190.999C100.008 190.655 80.9252 173.779 80.9252 150.292V113.86C80.9256 90.3738 100.008 73.4984 120.986 73.1548V190.999Z" fill="black"/>
<path d="M120.631 190.999C141.609 190.655 160.691 173.779 160.691 150.293V113.86C160.69 90.3744 141.609 73.4991 120.631 73.155V190.999Z" fill="black"/>
<path d="M271.2 164.519C266.908 164.519 263.004 163.565 259.488 161.658C256.03 159.691 253.259 156.86 251.173 153.164C249.146 149.409 248.133 144.849 248.133 139.485V124.465C248.133 116.418 250.398 110.249 254.928 105.958C259.458 101.607 265.597 99.431 273.346 99.431C281.034 99.431 286.965 101.487 291.137 105.6C295.369 109.653 297.485 115.167 297.485 122.14V122.498H285.862V121.783C285.862 119.577 285.386 117.58 284.432 115.792C283.538 114.004 282.167 112.604 280.319 111.59C278.471 110.517 276.147 109.981 273.346 109.981C269.173 109.981 265.895 111.262 263.511 113.825C261.127 116.388 259.935 119.875 259.935 124.286V139.664C259.935 144.015 261.127 147.532 263.511 150.214C265.895 152.836 269.233 154.148 273.524 154.148C277.816 154.148 280.945 153.015 282.912 150.75C284.879 148.485 285.862 145.624 285.862 142.167V141.273H271.021V131.26H297.485V163.267H286.578V157.277H284.968C284.551 158.29 283.866 159.363 282.912 160.495C282.018 161.628 280.647 162.582 278.799 163.356C276.952 164.131 274.418 164.519 271.2 164.519ZM325.747 164.519C321.337 164.519 317.433 163.595 314.035 161.747C310.697 159.84 308.075 157.187 306.167 153.79C304.32 150.333 303.396 146.28 303.396 141.631V140.558C303.396 135.909 304.32 131.885 306.167 128.488C308.015 125.031 310.608 122.379 313.946 120.531C317.284 118.624 321.158 117.67 325.569 117.67C329.92 117.67 333.705 118.653 336.923 120.62C340.142 122.528 342.645 125.21 344.433 128.667C346.221 132.064 347.115 136.028 347.115 140.558V144.402H314.84C314.959 147.442 316.091 149.916 318.237 151.823C320.383 153.73 323.006 154.684 326.105 154.684C329.264 154.684 331.589 153.999 333.079 152.628C334.569 151.257 335.701 149.737 336.476 148.068L345.685 152.896C344.851 154.446 343.629 156.144 342.019 157.992C340.47 159.78 338.383 161.33 335.761 162.641C333.138 163.893 329.8 164.519 325.747 164.519ZM314.929 135.998H335.671C335.433 133.435 334.39 131.379 332.542 129.829C330.754 128.279 328.4 127.505 325.479 127.505C322.439 127.505 320.025 128.279 318.237 129.829C316.449 131.379 315.346 133.435 314.929 135.998ZM353.566 163.267V118.922H364.652V124.733H366.262C366.977 123.183 368.318 121.723 370.285 120.352C372.252 118.922 375.232 118.206 379.226 118.206C382.683 118.206 385.693 119.011 388.256 120.62C390.878 122.17 392.905 124.346 394.335 127.147C395.766 129.889 396.481 133.107 396.481 136.803V163.267H385.216V137.697C385.216 134.359 384.381 131.856 382.712 130.187C381.103 128.518 378.779 127.683 375.739 127.683C372.282 127.683 369.6 128.846 367.692 131.17C365.785 133.435 364.831 136.624 364.831 140.737V163.267H353.566ZM411.192 163.267V128.22H399.927V118.922H411.192V110.696C411.192 107.656 412.086 105.242 413.874 103.454C415.722 101.607 418.106 100.683 421.027 100.683H432.649V109.981H424.96C423.291 109.981 422.457 110.875 422.457 112.663V118.922H434.08V128.22H422.457V163.267H411.192ZM440.338 163.267V100.683H451.603V163.267H440.338ZM460.529 163.267V118.922H471.794V163.267H460.529ZM466.161 113.736C464.135 113.736 462.406 113.08 460.976 111.769C459.605 110.458 458.919 108.729 458.919 106.584C458.919 104.438 459.605 102.709 460.976 101.398C462.406 100.087 464.135 99.431 466.161 99.431C468.247 99.431 469.976 100.087 471.347 101.398C472.718 102.709 473.403 104.438 473.403 106.584C473.403 108.729 472.718 110.458 471.347 111.769C469.976 113.08 468.247 113.736 466.161 113.736ZM501.533 164.519C497.241 164.519 493.337 163.625 489.82 161.837C486.363 160.048 483.622 157.456 481.595 154.058C479.569 150.661 478.555 146.548 478.555 141.72V140.468C478.555 135.641 479.569 131.528 481.595 128.13C483.622 124.733 486.363 122.14 489.82 120.352C493.337 118.564 497.241 117.67 501.533 117.67C505.765 117.67 509.4 118.415 512.44 119.905C515.48 121.395 517.924 123.451 519.772 126.074C521.679 128.637 522.931 131.558 523.527 134.836L512.619 137.16C512.381 135.372 511.844 133.763 511.01 132.333C510.175 130.902 508.983 129.77 507.433 128.935C505.943 128.101 504.066 127.683 501.801 127.683C499.536 127.683 497.48 128.19 495.632 129.203C493.844 130.157 492.413 131.617 491.34 133.584C490.327 135.492 489.82 137.846 489.82 140.647V141.541C489.82 144.343 490.327 146.727 491.34 148.694C492.413 150.601 493.844 152.062 495.632 153.075C497.48 154.028 499.536 154.505 501.801 154.505C505.198 154.505 507.761 153.641 509.49 151.912C511.278 150.124 512.41 147.8 512.887 144.939L523.795 147.532C523.02 150.691 521.679 153.581 519.772 156.204C517.924 158.767 515.48 160.794 512.44 162.284C509.4 163.774 505.765 164.519 501.533 164.519ZM529.511 163.267V100.683H540.776V135.283H542.386L557.048 118.922H571.711L551.237 140.379L572.426 163.267H557.942L542.386 145.654H540.776V163.267H529.511Z" fill="white"/>
</svg>
