<svg width="325" height="66" viewBox="0 0 325 66" fill="none" xmlns="http://www.w3.org/2000/svg">
<path d="M23.1998 65.5188C18.9083 65.5188 15.0042 64.5651 11.4875 62.6578C8.0305 60.6908 5.2589 57.8596 3.17276 54.1642C1.14621 50.4091 0.132942 45.8494 0.132942 40.485V25.4648C0.132942 17.4182 2.3979 11.2492 6.92782 6.95767C11.4577 2.60656 17.597 0.431007 25.3455 0.431007C33.0345 0.431007 38.9651 2.48735 43.1374 6.60004C47.3693 10.6531 49.4852 16.1665 49.4852 23.1402V23.4978H37.8624V22.7826C37.8624 20.5772 37.3856 18.5805 36.4319 16.7924C35.5378 15.0042 34.1669 13.6035 32.3192 12.5903C30.4715 11.5174 28.1469 10.9809 25.3455 10.9809C21.1732 10.9809 17.895 12.2624 15.5108 14.8254C13.1267 17.3884 11.9346 20.8752 11.9346 25.286V40.6638C11.9346 45.0149 13.1267 48.5316 15.5108 51.2138C17.895 53.8364 21.2328 55.1476 25.5243 55.1476C29.8158 55.1476 32.945 54.0152 34.912 51.7502C36.8789 49.4853 37.8624 46.6243 37.8624 43.1672V42.2731H23.0209V32.2596H49.4852V64.2671H38.5776V58.2769H36.9683C36.5511 59.2901 35.8656 60.363 34.912 61.4955C34.0179 62.628 32.647 63.5816 30.7993 64.3565C28.9516 65.1314 26.4184 65.5188 23.1998 65.5188ZM77.7474 65.5188C73.3367 65.5188 69.4326 64.5949 66.0351 62.7472C62.6973 60.8398 60.0747 58.1875 58.1674 54.79C56.3197 51.333 55.3958 47.2799 55.3958 42.6308V41.5579C55.3958 36.9088 56.3197 32.8855 58.1674 29.488C60.0151 26.031 62.6079 23.3786 65.9457 21.5309C69.2836 19.6236 73.1578 18.6699 77.5686 18.6699C81.9197 18.6699 85.7045 19.6534 88.9232 21.6203C92.1418 23.5276 94.6452 26.2098 96.4333 29.6669C98.2214 33.0643 99.1155 37.028 99.1155 41.5579V45.4024H66.8398C66.959 48.4422 68.0915 50.9158 70.2372 52.8231C72.383 54.7304 75.0056 55.6841 78.105 55.6841C81.264 55.6841 83.5886 54.9986 85.0787 53.6277C86.5688 52.2568 87.7013 50.7369 88.4761 49.068L97.685 53.896C96.8505 55.4457 95.6286 57.1444 94.0193 58.9921C92.4696 60.7802 90.3835 62.33 87.7609 63.6412C85.1383 64.8929 81.8005 65.5188 77.7474 65.5188ZM66.9292 36.9982H87.6715C87.433 34.4352 86.39 32.3789 84.5422 30.8291C82.7541 29.2794 80.3998 28.5046 77.4791 28.5046C74.4393 28.5046 72.0254 29.2794 70.2372 30.8291C68.4491 32.3789 67.3464 34.4352 66.9292 36.9982ZM105.566 64.2671V19.9216H116.652V25.733H118.262C118.977 24.1833 120.318 22.723 122.285 21.3521C124.252 19.9216 127.232 19.2063 131.226 19.2063C134.683 19.2063 137.693 20.011 140.256 21.6203C142.878 23.17 144.905 25.3456 146.335 28.147C147.766 30.8887 148.481 34.1074 148.481 37.8028V64.2671H137.216V38.6969C137.216 35.3591 136.381 32.8557 134.712 31.1868C133.103 29.5178 130.779 28.6834 127.739 28.6834C124.282 28.6834 121.6 29.8457 119.692 32.1702C117.785 34.4352 116.831 37.624 116.831 41.7367V64.2671H105.566ZM163.192 64.2671V29.2198H151.927V19.9216H163.192V11.6962C163.192 8.65638 164.086 6.24241 165.874 4.45429C167.722 2.60656 170.106 1.68269 173.027 1.68269H184.649V10.9809H176.96C175.291 10.9809 174.457 11.875 174.457 13.6631V19.9216H186.08V29.2198H174.457V64.2671H163.192ZM192.338 64.2671V1.68269H203.603V64.2671H192.338ZM212.529 64.2671V19.9216H223.794V64.2671H212.529ZM218.161 14.736C216.135 14.736 214.406 14.0804 212.976 12.7691C211.605 11.4578 210.919 9.72926 210.919 7.58351C210.919 5.43776 211.605 3.70924 212.976 2.39795C214.406 1.08665 216.135 0.431007 218.161 0.431007C220.247 0.431007 221.976 1.08665 223.347 2.39795C224.718 3.70924 225.403 5.43776 225.403 7.58351C225.403 9.72926 224.718 11.4578 223.347 12.7691C221.976 14.0804 220.247 14.736 218.161 14.736ZM253.533 65.5188C249.241 65.5188 245.337 64.6247 241.82 62.8366C238.363 61.0485 235.622 58.4557 233.595 55.0582C231.569 51.6608 230.555 47.5481 230.555 42.7202V41.4685C230.555 36.6405 231.569 32.5279 233.595 29.1304C235.622 25.733 238.363 23.1402 241.82 21.3521C245.337 19.5639 249.241 18.6699 253.533 18.6699C257.765 18.6699 261.4 19.4149 264.44 20.905C267.48 22.3952 269.924 24.4515 271.772 27.0741C273.679 29.6371 274.931 32.5577 275.527 35.8359L264.619 38.1605C264.381 36.3723 263.844 34.763 263.01 33.3325C262.175 31.902 260.983 30.7695 259.433 29.9351C257.943 29.1006 256.066 28.6834 253.801 28.6834C251.536 28.6834 249.48 29.19 247.632 30.2033C245.844 31.157 244.413 32.6173 243.34 34.5842C242.327 36.4915 241.82 38.8459 241.82 41.6473V42.5414C241.82 45.3428 242.327 47.7269 243.34 49.6939C244.413 51.6012 245.844 53.0615 247.632 54.0748C249.48 55.0284 251.536 55.5053 253.801 55.5053C257.198 55.5053 259.761 54.641 261.49 52.9125C263.278 51.1244 264.41 48.7998 264.887 45.9388L275.795 48.5316C275.02 51.6906 273.679 54.5814 271.772 57.204C269.924 59.767 267.48 61.7935 264.44 63.2836C261.4 64.7737 257.765 65.5188 253.533 65.5188ZM281.511 64.2671V1.68269H292.776V36.2829H294.386L309.048 19.9216H323.711L303.237 41.3791L324.426 64.2671H309.942L294.386 46.6541H292.776V64.2671H281.511Z" fill="white"/>
</svg>
