<svg width="264" height="264" viewBox="0 0 264 264" fill="none" xmlns="http://www.w3.org/2000/svg">
<path d="M189.411 89.5888C222.265 108.557 222.265 155.977 189.411 174.945L139.754 203.615C106.9 222.583 65.833 198.873 65.833 160.937L65.833 103.598C65.833 65.6613 106.9 41.9511 139.754 60.9193L189.411 89.5888Z" fill="white"/>
<path d="M120.986 190.999C100.008 190.655 80.9252 173.779 80.9252 150.292V113.86C80.9256 90.3738 100.008 73.4984 120.986 73.1548V190.999Z" fill="black"/>
<path d="M120.631 190.999C141.609 190.655 160.691 173.779 160.691 150.293V113.86C160.69 90.3744 141.609 73.4991 120.631 73.155V190.999Z" fill="black"/>
</svg>
