<svg width="617" height="183" viewBox="0 0 617 183" fill="none" xmlns="http://www.w3.org/2000/svg">
<path d="M155 90.9998C157.761 90.9998 160.018 93.2459 159.824 96.0005C157.26 132.326 126.978 161 89.9999 161C51.6418 161 20.4899 130.147 20.0057 91.9041C20.0025 91.4056 20.4057 90.9998 20.9042 90.9998H155Z" fill="#05AC3D"/>
<path d="M72.0225 23.5251C84.5916 20.1573 97.8505 20.3595 110.311 24.1091C122.771 27.8588 133.94 35.0073 142.563 44.7524C151.186 54.4974 156.922 66.4531 159.127 79.2773C161.333 92.1014 159.92 105.286 155.047 117.352C150.174 129.418 142.035 139.886 131.543 147.583C121.05 155.279 108.621 159.899 95.6486 160.923C82.6766 161.947 69.6759 159.335 58.106 153.38C46.5361 147.425 36.855 138.363 30.1496 127.212L37.9992 122.492C43.8272 132.184 52.2415 140.06 62.2975 145.236C72.3535 150.412 83.6531 152.682 94.9278 151.792C106.202 150.902 117.006 146.887 126.125 140.197C135.245 133.508 142.319 124.409 146.554 113.922C150.789 103.435 152.017 91.9756 150.101 80.8295C148.184 69.6833 143.198 59.292 135.704 50.8221C128.209 42.3522 118.502 36.1389 107.672 32.8799C96.8416 29.6209 85.3175 29.4452 74.3931 32.3724L72.0225 23.5251Z" fill="#05AC3D"/>
<path d="M155.033 117.386C150.154 129.45 142.009 139.914 131.512 147.605C121.016 155.296 108.584 159.908 95.6111 160.925C82.6385 161.943 69.6392 159.324 58.0725 153.363C46.5058 147.402 36.8296 138.335 30.1301 127.179C23.4307 116.024 19.9732 103.222 20.1458 90.2109C20.3185 77.1997 24.1144 64.4941 31.1075 53.5205C38.1005 42.5469 48.0139 33.7398 59.7347 28.0877C71.4555 22.4357 84.5197 20.1626 97.4608 21.5235L96.5028 30.6326C85.2551 29.4498 73.9003 31.4255 63.7131 36.3379C53.526 41.2504 44.9097 48.9051 38.8317 58.4429C32.7536 67.9806 29.4544 79.0237 29.3043 90.3324C29.1543 101.641 32.1594 112.768 37.9822 122.464C43.8051 132.159 52.2152 140.04 62.2684 145.221C72.3216 150.402 83.62 152.678 94.8952 151.794C106.17 150.91 116.976 146.901 126.099 140.216C135.222 133.532 142.301 124.437 146.542 113.952L155.033 117.386Z" fill="#05AC3D"/>
<path d="M73.9998 90.9998H107V111.5C107 120.612 99.6125 128 90.4998 128C81.3871 128 73.9998 120.612 73.9998 111.5V90.9998Z" fill="white"/>
<path d="M73.9998 90.9998H107V70.4998C107 61.3871 99.6125 53.9998 90.4998 53.9998C81.3871 53.9998 73.9998 61.3871 73.9998 70.4998V90.9998Z" fill="#05AC3D"/>
<path d="M197.601 54.9124H216.564L236.592 103.776H237.444L257.473 54.9124H276.436V127.64H261.521V80.303H260.917L242.096 127.285H231.94L213.119 80.1254H212.515V127.64H197.601V54.9124ZM309.678 128.705C304.068 128.705 299.238 127.569 295.19 125.296C291.165 122.999 288.064 119.756 285.886 115.566C283.708 111.352 282.619 106.368 282.619 100.615C282.619 95.0047 283.708 90.0805 285.886 85.8428C288.064 81.6051 291.13 78.3025 295.083 75.9351C299.06 73.5677 303.724 72.384 309.075 72.384C312.673 72.384 316.023 72.964 319.124 74.124C322.249 75.2604 324.972 76.9768 327.292 79.2732C329.636 81.5696 331.459 84.4578 332.761 87.9379C334.063 91.3944 334.714 95.4427 334.714 100.083V104.238H288.656V94.8627H320.474C320.474 92.6846 320 90.7552 319.053 89.0743C318.106 87.3934 316.792 86.0795 315.112 85.1325C313.454 84.1619 311.525 83.6766 309.323 83.6766C307.027 83.6766 304.991 84.2092 303.215 85.2746C301.463 86.3163 300.09 87.7249 299.096 89.5004C298.102 91.2523 297.593 93.2055 297.569 95.3598V104.273C297.569 106.972 298.066 109.304 299.06 111.269C300.078 113.234 301.511 114.749 303.357 115.814C305.204 116.88 307.394 117.412 309.927 117.412C311.608 117.412 313.147 117.176 314.543 116.702C315.94 116.229 317.136 115.518 318.13 114.571C319.124 113.624 319.882 112.464 320.403 111.091L334.394 112.015C333.684 115.376 332.228 118.312 330.026 120.821C327.848 123.307 325.031 125.249 321.575 126.645C318.142 128.018 314.176 128.705 309.678 128.705ZM360.685 128.527C356.542 128.527 352.79 127.462 349.428 125.331C346.09 123.177 343.439 120.017 341.474 115.85C339.533 111.66 338.562 106.522 338.562 100.438C338.562 94.1879 339.568 88.9914 341.58 84.8485C343.593 80.6818 346.268 77.5686 349.606 75.509C352.968 73.4256 356.649 72.384 360.65 72.384C363.704 72.384 366.249 72.9048 368.285 73.9465C370.345 74.9645 372.002 76.2429 373.256 77.7817C374.535 79.2968 375.506 80.7883 376.168 82.2561H376.63V54.9124H391.722V127.64H376.808V118.904H376.168C375.458 120.419 374.452 121.922 373.15 123.414C371.872 124.882 370.202 126.101 368.143 127.071C366.107 128.042 363.621 128.527 360.685 128.527ZM365.479 116.489C367.918 116.489 369.978 115.826 371.658 114.5C373.363 113.151 374.665 111.269 375.565 108.854C376.488 106.439 376.95 103.61 376.95 100.367C376.95 97.1235 376.5 94.3063 375.6 91.9152C374.701 89.5241 373.399 87.6775 371.694 86.3754C369.989 85.0734 367.918 84.4223 365.479 84.4223C362.994 84.4223 360.899 85.097 359.194 86.4465C357.489 87.7959 356.199 89.6662 355.323 92.0573C354.447 94.4484 354.009 97.2182 354.009 100.367C354.009 103.539 354.447 106.345 355.323 108.783C356.223 111.198 357.513 113.092 359.194 114.465C360.899 115.814 362.994 116.489 365.479 116.489ZM445.544 88.6482L431.694 89.5004C431.458 88.3167 430.949 87.2514 430.167 86.3044C429.386 85.3338 428.356 84.5644 427.078 83.9962C425.823 83.4043 424.32 83.1084 422.568 83.1084C420.224 83.1084 418.247 83.6056 416.637 84.5999C415.028 85.5705 414.223 86.8726 414.223 88.5061C414.223 89.8082 414.744 90.9091 415.785 91.8087C416.827 92.7083 418.614 93.4304 421.147 93.9749L431.02 95.9635C436.323 97.0525 440.276 98.8044 442.88 101.219C445.485 103.634 446.787 106.806 446.787 110.736C446.787 114.311 445.733 117.448 443.626 120.147C441.543 122.846 438.678 124.953 435.032 126.468C431.41 127.959 427.232 128.705 422.497 128.705C415.276 128.705 409.523 127.202 405.238 124.195C400.977 121.165 398.479 117.045 397.745 111.837L412.625 111.056C413.075 113.258 414.164 114.938 415.892 116.098C417.62 117.235 419.834 117.803 422.532 117.803C425.184 117.803 427.315 117.294 428.924 116.276C430.558 115.234 431.387 113.897 431.41 112.263C431.387 110.89 430.807 109.766 429.67 108.89C428.534 107.99 426.782 107.303 424.414 106.83L414.968 104.948C409.642 103.883 405.676 102.036 403.072 99.4081C400.492 96.7803 399.201 93.4304 399.201 89.3584C399.201 85.8546 400.148 82.8361 402.042 80.303C403.96 77.7699 406.647 75.8167 410.103 74.4436C413.584 73.0705 417.655 72.384 422.319 72.384C429.209 72.384 434.63 73.8399 438.584 76.7519C442.561 79.6638 444.881 83.6292 445.544 88.6482ZM461.652 148.094C459.734 148.094 457.935 147.94 456.254 147.633C454.597 147.348 453.224 146.982 452.135 146.532L455.544 135.239C457.32 135.784 458.918 136.08 460.338 136.127C461.782 136.174 463.025 135.843 464.067 135.133C465.132 134.422 465.996 133.215 466.659 131.51L467.547 129.202L447.98 73.0942H463.889L475.182 113.151H475.75L487.149 73.0942H503.165L481.965 133.535C480.947 136.47 479.562 139.027 477.81 141.205C476.082 143.407 473.892 145.099 471.24 146.283C468.589 147.491 465.393 148.094 461.652 148.094ZM522.034 96.1056V127.64H506.906V73.0942H521.324V82.7178H521.963C523.171 79.5454 525.195 77.036 528.036 75.1894C530.876 73.3191 534.321 72.384 538.369 72.384C542.157 72.384 545.46 73.2126 548.277 74.8698C551.094 76.527 553.284 78.8944 554.847 81.972C556.409 85.026 557.19 88.6718 557.19 92.9095V127.64H542.063V95.6084C542.086 92.2703 541.234 89.6662 539.506 87.7959C537.778 85.902 535.398 84.955 532.368 84.955C530.332 84.955 528.533 85.393 526.97 86.2689C525.431 87.1449 524.224 88.4233 523.348 90.1041C522.496 91.7613 522.058 93.7618 522.034 96.1056ZM589.758 128.705C584.171 128.705 579.365 127.521 575.341 125.154C571.34 122.763 568.262 119.448 566.108 115.211C563.977 110.973 562.912 106.096 562.912 100.58C562.912 94.9929 563.989 90.0923 566.143 85.8783C568.321 81.6406 571.411 78.338 575.412 75.9706C579.413 73.5795 584.171 72.384 589.687 72.384C594.446 72.384 598.612 73.2481 602.187 74.9763C605.762 76.7045 608.591 79.1311 610.674 82.2561C612.758 85.3811 613.906 89.0506 614.119 93.2646H599.843C599.441 90.5421 598.376 88.3522 596.647 86.695C594.943 85.0142 592.706 84.1737 589.936 84.1737C587.592 84.1737 585.544 84.8129 583.792 86.0914C582.064 87.3461 580.715 89.1808 579.744 91.5956C578.773 94.0104 578.288 96.9342 578.288 100.367C578.288 103.847 578.762 106.806 579.709 109.245C580.679 111.683 582.04 113.542 583.792 114.82C585.544 116.098 587.592 116.738 589.936 116.738C591.664 116.738 593.215 116.383 594.588 115.672C595.985 114.962 597.133 113.932 598.032 112.583C598.956 111.21 599.559 109.564 599.843 107.647H614.119C613.882 111.813 612.746 115.483 610.71 118.655C608.698 121.804 605.916 124.266 602.365 126.042C598.814 127.817 594.611 128.705 589.758 128.705Z" fill="#05AC3D"/>
</svg>
