<svg width="418" height="95" viewBox="0 0 418 95" fill="none" xmlns="http://www.w3.org/2000/svg">
<path d="M0.600564 0.912374H19.5636L39.592 49.776H40.4443L60.4727 0.912374H79.4358V73.6396H64.521V26.303H63.9173L45.0963 73.2845H34.9401L16.119 26.1254H15.5153V73.6396H0.600564V0.912374ZM112.678 74.705C107.068 74.705 102.238 73.5686 98.1897 71.2959C94.1651 68.9995 91.0638 65.7561 88.8857 61.5658C86.7077 57.3518 85.6187 52.3683 85.6187 46.6155C85.6187 41.0047 86.7077 36.0805 88.8857 31.8428C91.0638 27.6051 94.1296 24.3025 98.0832 21.9351C102.06 19.5677 106.724 18.384 112.075 18.384C115.673 18.384 119.023 18.964 122.124 20.124C125.249 21.2604 127.972 22.9768 130.292 25.2732C132.636 27.5696 134.459 30.4578 135.761 33.9379C137.063 37.3944 137.714 41.4427 137.714 46.0828V50.2377H91.6556V40.8627H123.474C123.474 38.6846 123 36.7552 122.053 35.0743C121.106 33.3934 119.792 32.0795 118.112 31.1325C116.454 30.1619 114.525 29.6766 112.323 29.6766C110.027 29.6766 107.991 30.2092 106.215 31.2746C104.463 32.3163 103.09 33.7249 102.096 35.5004C101.102 37.2523 100.593 39.2055 100.569 41.3598V50.2732C100.569 52.972 101.066 55.3039 102.06 57.2689C103.078 59.2339 104.511 60.749 106.357 61.8144C108.204 62.8797 110.394 63.4124 112.927 63.4124C114.608 63.4124 116.147 63.1756 117.543 62.7021C118.94 62.2287 120.136 61.5184 121.13 60.5715C122.124 59.6245 122.882 58.4645 123.403 57.0914L137.394 58.0146C136.684 61.3764 135.228 64.312 133.026 66.8215C130.848 69.3073 128.031 71.2485 124.575 72.6453C121.142 74.0184 117.176 74.705 112.678 74.705ZM163.685 74.5274C159.542 74.5274 155.79 73.4621 152.428 71.3314C149.09 69.1771 146.439 66.0165 144.474 61.8499C142.533 57.6595 141.562 52.5222 141.562 46.4379C141.562 40.1879 142.568 34.9914 144.58 30.8485C146.593 26.6818 149.268 23.5686 152.606 21.509C155.968 19.4256 159.649 18.384 163.65 18.384C166.704 18.384 169.249 18.9048 171.285 19.9465C173.345 20.9645 175.002 22.2429 176.256 23.7817C177.535 25.2968 178.506 26.7883 179.168 28.2561H179.63V0.912374H194.722V73.6396H179.808V64.9039H179.168C178.458 66.419 177.452 67.9223 176.15 69.4138C174.872 70.8816 173.202 72.1008 171.143 73.0715C169.107 74.0421 166.621 74.5274 163.685 74.5274ZM168.479 62.4891C170.918 62.4891 172.978 61.8262 174.658 60.5004C176.363 59.151 177.665 57.2689 178.565 54.8541C179.488 52.4394 179.95 49.6103 179.95 46.3669C179.95 43.1235 179.5 40.3063 178.6 37.9152C177.701 35.5241 176.399 33.6775 174.694 32.3754C172.989 31.0734 170.918 30.4223 168.479 30.4223C165.994 30.4223 163.899 31.097 162.194 32.4465C160.489 33.7959 159.199 35.6662 158.323 38.0573C157.447 40.4484 157.009 43.2182 157.009 46.3669C157.009 49.5393 157.447 52.3447 158.323 54.7831C159.223 57.1979 160.513 59.0918 162.194 60.4649C163.899 61.8144 165.994 62.4891 168.479 62.4891ZM248.544 34.6482L234.694 35.5004C234.458 34.3167 233.949 33.2514 233.167 32.3044C232.386 31.3338 231.356 30.5644 230.078 29.9962C228.823 29.4043 227.32 29.1084 225.568 29.1084C223.224 29.1084 221.247 29.6056 219.637 30.5999C218.028 31.5705 217.223 32.8726 217.223 34.5061C217.223 35.8082 217.744 36.9091 218.785 37.8087C219.827 38.7083 221.614 39.4304 224.147 39.9749L234.02 41.9635C239.323 43.0525 243.276 44.8044 245.88 47.2192C248.485 49.634 249.787 52.8063 249.787 56.7362C249.787 60.311 248.733 63.4479 246.626 66.1468C244.543 68.8456 241.678 70.9526 238.032 72.4678C234.41 73.9593 230.232 74.705 225.497 74.705C218.276 74.705 212.523 73.2017 208.238 70.195C203.977 67.1647 201.479 63.0454 200.745 57.8371L215.625 57.0558C216.075 59.2575 217.164 60.9384 218.892 62.0985C220.62 63.2348 222.834 63.803 225.532 63.803C228.184 63.803 230.315 63.294 231.924 62.276C233.558 61.2343 234.387 59.8968 234.41 58.2632C234.387 56.8901 233.807 55.7656 232.67 54.8896C231.534 53.99 229.782 53.3035 227.414 52.83L217.968 50.9479C212.642 49.8825 208.676 48.036 206.072 45.4081C203.492 42.7803 202.201 39.4304 202.201 35.3584C202.201 31.8546 203.148 28.8361 205.042 26.303C206.96 23.7699 209.647 21.8167 213.103 20.4436C216.584 19.0705 220.655 18.384 225.319 18.384C232.209 18.384 237.63 19.8399 241.584 22.7519C245.561 25.6638 247.881 29.6292 248.544 34.6482ZM264.652 94.0942C262.734 94.0942 260.935 93.9403 259.254 93.6325C257.597 93.3485 256.224 92.9815 255.135 92.5317L258.544 81.2391C260.32 81.7836 261.918 82.0795 263.338 82.1269C264.782 82.1742 266.025 81.8428 267.067 81.1325C268.132 80.4223 268.996 79.2149 269.659 77.5104L270.547 75.2021L250.98 19.0942H266.889L278.182 59.151H278.75L290.149 19.0942H306.165L284.965 79.5345C283.947 82.4701 282.562 85.027 280.81 87.205C279.082 89.4067 276.892 91.0994 274.24 92.2831C271.589 93.4905 268.393 94.0942 264.652 94.0942ZM325.034 42.1056V73.6396H309.906V19.0942H324.324V28.7178H324.963C326.171 25.5454 328.195 23.036 331.036 21.1894C333.876 19.3191 337.321 18.384 341.369 18.384C345.157 18.384 348.46 19.2126 351.277 20.8698C354.094 22.527 356.284 24.8944 357.847 27.972C359.409 31.026 360.19 34.6718 360.19 38.9095V73.6396H345.063V41.6084C345.086 38.2703 344.234 35.6662 342.506 33.7959C340.778 31.902 338.398 30.955 335.368 30.955C333.332 30.955 331.533 31.393 329.97 32.2689C328.431 33.1449 327.224 34.4233 326.348 36.1041C325.496 37.7613 325.058 39.7618 325.034 42.1056ZM392.758 74.705C387.171 74.705 382.365 73.5213 378.341 71.1539C374.34 68.7628 371.262 65.4484 369.108 61.2107C366.977 56.973 365.912 52.0961 365.912 46.58C365.912 40.9929 366.989 36.0923 369.143 31.8783C371.321 27.6406 374.411 24.338 378.412 21.9706C382.413 19.5795 387.171 18.384 392.687 18.384C397.446 18.384 401.612 19.2481 405.187 20.9763C408.762 22.7045 411.591 25.1311 413.674 28.2561C415.758 31.3811 416.906 35.0506 417.119 39.2646H402.843C402.441 36.5421 401.376 34.3522 399.647 32.695C397.943 31.0142 395.706 30.1737 392.936 30.1737C390.592 30.1737 388.544 30.8129 386.792 32.0914C385.064 33.3461 383.715 35.1808 382.744 37.5956C381.773 40.0104 381.288 42.9342 381.288 46.3669C381.288 49.847 381.762 52.8063 382.709 55.2448C383.679 57.6832 385.04 59.5416 386.792 60.82C388.544 62.0985 390.592 62.7377 392.936 62.7377C394.664 62.7377 396.215 62.3825 397.588 61.6723C398.985 60.9621 400.133 59.9323 401.032 58.5828C401.956 57.2097 402.559 55.5644 402.843 53.6468H417.119C416.882 57.8134 415.746 61.4829 413.71 64.6553C411.698 67.8039 408.916 70.2661 405.365 72.0416C401.814 73.8172 397.611 74.705 392.758 74.705Z" fill="#05AC3D"/>
</svg>
