<svg width="183" height="183" viewBox="0 0 183 183" fill="none" xmlns="http://www.w3.org/2000/svg">
<path d="M156 90.9998C158.761 90.9998 161.018 93.2459 160.824 96.0005C158.26 132.326 127.978 161 90.9999 161C52.6418 161 21.4899 130.147 21.0057 91.9041C21.0025 91.4056 21.4057 90.9998 21.9042 90.9998H156Z" fill="#05AC3D"/>
<path d="M73.0225 23.5251C85.5916 20.1573 98.8505 20.3595 111.311 24.1091C123.771 27.8588 134.94 35.0073 143.563 44.7524C152.186 54.4974 157.922 66.4531 160.127 79.2773C162.333 92.1014 160.92 105.286 156.047 117.352C151.174 129.418 143.035 139.886 132.543 147.583C122.05 155.279 109.621 159.899 96.6486 160.923C83.6766 161.947 70.6759 159.335 59.106 153.38C47.5361 147.425 37.855 138.363 31.1496 127.212L38.9992 122.492C44.8272 132.184 53.2415 140.06 63.2975 145.236C73.3535 150.412 84.6531 152.682 95.9278 151.792C107.202 150.902 118.006 146.887 127.125 140.197C136.245 133.508 143.319 124.409 147.554 113.922C151.789 103.435 153.017 91.9756 151.101 80.8295C149.184 69.6833 144.198 59.292 136.704 50.8221C129.209 42.3522 119.502 36.1389 108.672 32.8799C97.8416 29.6209 86.3175 29.4452 75.3931 32.3724L73.0225 23.5251Z" fill="#05AC3D"/>
<path d="M156.033 117.386C151.154 129.45 143.009 139.914 132.512 147.605C122.016 155.296 109.584 159.908 96.6111 160.925C83.6385 161.943 70.6392 159.324 59.0725 153.363C47.5058 147.402 37.8296 138.335 31.1301 127.179C24.4307 116.024 20.9732 103.222 21.1458 90.2109C21.3185 77.1997 25.1144 64.4941 32.1075 53.5205C39.1005 42.5469 49.0139 33.7398 60.7347 28.0877C72.4555 22.4357 85.5197 20.1626 98.4608 21.5235L97.5028 30.6326C86.2551 29.4498 74.9003 31.4255 64.7131 36.3379C54.526 41.2504 45.9097 48.9051 39.8317 58.4429C33.7536 67.9806 30.4544 79.0237 30.3043 90.3324C30.1543 101.641 33.1594 112.768 38.9822 122.464C44.8051 132.159 53.2152 140.04 63.2684 145.221C73.3216 150.402 84.62 152.678 95.8952 151.794C107.17 150.91 117.976 146.901 127.099 140.216C136.222 133.532 143.301 124.437 147.542 113.952L156.033 117.386Z" fill="#05AC3D"/>
<path d="M74.9998 90.9998H108V111.5C108 120.612 100.612 128 91.4998 128C82.3871 128 74.9998 120.612 74.9998 111.5V90.9998Z" fill="white"/>
<path d="M74.9998 90.9998H108V70.4998C108 61.3871 100.612 53.9998 91.4998 53.9998C82.3871 53.9998 74.9998 61.3871 74.9998 70.4998V90.9998Z" fill="#05AC3D"/>
</svg>
