<svg width="590" height="146" viewBox="0 0 590 146" fill="none" xmlns="http://www.w3.org/2000/svg">
<circle cx="71.4426" cy="73.0001" r="71.4426" fill="#B3CFF9"/>
<circle cx="133.048" cy="72.9998" r="71.4426" fill="#B3CFF9"/>
<mask id="mask0_27_1002" style="mask-type:alpha" maskUnits="userSpaceOnUse" x="0" y="1" width="143" height="144">
<circle cx="71.4426" cy="73.0001" r="71.4426" fill="#2A6CFF"/>
</mask>
<g mask="url(#mask0_27_1002)">
<circle cx="133.048" cy="72.9998" r="71.4426" fill="#2A6CFF"/>
</g>
<path d="M75.1943 37.6124V32.2709L46.9166 35.0688L75.1943 37.6124Z" fill="#2A6CFF"/>
<path d="M64.9484 33.2728V26.2621L106.34 29.9344L64.9484 33.2728Z" fill="#B3CFF9"/>
<path d="M70.9532 93.0999V85.0876L11.529 89.2845L70.9532 93.0999Z" fill="#2A6CFF"/>
<path d="M49.5099 86.6179L49.673 77.2717L116.337 83.3325L49.5099 86.6179Z" fill="#B3CFF9"/>
<path d="M70.9533 63.6523V55.64L37.5689 59.8369L70.9533 63.6523Z" fill="#2A6CFF"/>
<path d="M80.682 121.423V116.082L43.1902 118.88L80.682 121.423Z" fill="#2A6CFF"/>
<path d="M67.0977 117.084V110.073L121.977 113.746L67.0977 117.084Z" fill="#B3CFF9"/>
<path d="M264.091 50C269.691 50 274.391 51.1333 278.191 53.4C281.991 55.6667 284.791 58.6333 286.591 62.3C288.391 65.9667 289.291 69.9 289.291 74.1C289.291 78.3 288.391 82.2 286.591 85.8C284.857 89.3333 282.091 92.2 278.291 94.4C274.491 96.6 269.757 97.7 264.091 97.7H251.791V120H238.191V50H264.091ZM261.991 86.3C265.924 86.3 269.224 85.3667 271.891 83.5C274.557 81.6333 275.891 78.5 275.891 74.1C275.891 69.7 274.557 66.6333 271.891 64.9C269.291 63.1 265.991 62.2 261.991 62.2H251.791V86.3H261.991ZM311.387 120.8C304.853 120.8 299.753 118.3 296.087 113.3C292.42 108.3 290.587 101.7 290.587 93.5C290.587 85.1667 292.42 78.5 296.087 73.5C299.82 68.4333 305.02 65.9 311.687 65.9C316.153 65.9 319.653 66.9333 322.187 69C324.72 71 326.52 73.1333 327.587 75.4H328.387V67.2H342.287V120H328.387V110.9H327.587C326.387 113.367 324.52 115.633 321.987 117.7C319.453 119.767 315.92 120.8 311.387 120.8ZM316.487 109.6C320.42 109.6 323.387 108 325.387 104.8C327.387 101.6 328.387 97.7667 328.387 93.3C328.387 88.8333 327.387 85.0333 325.387 81.9C323.453 78.7667 320.487 77.2 316.487 77.2C312.487 77.2 309.52 78.7667 307.587 81.9C305.653 85.0333 304.687 88.8333 304.687 93.3C304.687 97.8333 305.653 101.7 307.587 104.9C309.52 108.033 312.487 109.6 316.487 109.6ZM374.822 127.5C373.889 129.967 372.889 132.133 371.822 134C370.755 135.933 368.855 137.8 366.122 139.6C363.455 141.4 359.922 142.3 355.522 142.3C353.655 142.3 352.055 142.133 350.722 141.8C349.389 141.533 348.555 141.367 348.222 141.3V131.6C349.289 131.867 350.722 132 352.522 132C354.722 132 356.489 131.633 357.822 130.9C359.155 130.167 360.222 129.2 361.022 128C361.822 126.8 362.622 125.133 363.422 123L365.122 118.8L346.122 67.2H360.122L371.522 103.5H372.122L384.122 67.2H398.122L374.822 127.5ZM419.414 120.8C412.747 120.8 407.581 118.3 403.914 113.3C400.314 108.3 398.514 101.7 398.514 93.5C398.514 85.1 400.314 78.4 403.914 73.4C407.581 68.4 412.781 65.9 419.514 65.9C424.047 65.9 427.581 66.9333 430.114 69C432.647 71 434.447 73.1333 435.514 75.4H436.314V44.9H450.214V120H436.314V110.9H435.514C434.314 113.367 432.447 115.633 429.914 117.7C427.381 119.767 423.881 120.8 419.414 120.8ZM424.414 109.8C428.347 109.8 431.314 108.2 433.314 105C435.314 101.8 436.314 97.9667 436.314 93.5C436.314 89.1 435.314 85.3 433.314 82.1C431.314 78.9 428.347 77.3 424.414 77.3C420.414 77.3 417.414 78.9 415.414 82.1C413.481 85.2333 412.514 89 412.514 93.4C412.514 97.9333 413.481 101.8 415.414 105C417.414 108.2 420.414 109.8 424.414 109.8ZM458.04 67.2H471.74V75.6H472.44C473.307 73.2667 474.907 71.3 477.24 69.7C479.573 68.0333 482.573 67.2 486.24 67.2C487.64 67.2 488.84 67.3333 489.84 67.6L489.24 80.3C487.573 79.8333 485.807 79.6 483.94 79.6C479.807 79.6 476.74 80.7 474.74 82.9C472.74 85.0333 471.74 88.6 471.74 93.6V120H458.04V67.2ZM495.181 67.2H508.981V120H495.181V67.2ZM501.981 58.1C499.781 58.1 497.948 57.3667 496.481 55.9C495.015 54.3667 494.281 52.5333 494.281 50.4C494.281 48.2 495.015 46.3667 496.481 44.9C497.948 43.4333 499.781 42.7 501.981 42.7C504.181 42.7 506.015 43.4667 507.481 45C508.948 46.4667 509.681 48.2667 509.681 50.4C509.681 52.5333 508.948 54.3667 507.481 55.9C506.015 57.3667 504.181 58.1 501.981 58.1ZM543.299 55.8C541.233 55.8 539.699 56.2333 538.699 57.1C537.766 57.9 537.166 58.9 536.899 60.1C536.699 61.2333 536.599 62.7667 536.599 64.7V67.2H548.399V78H536.599V120H522.799V78H516.099V67.2H522.799V61.9C522.799 57.8333 523.899 54.2 526.099 51C528.299 47.7333 532.766 46.1 539.499 46.1C541.166 46.1 542.899 46.2 544.699 46.4C546.566 46.6 547.799 46.8333 548.399 47.1V56.2C546.799 55.9333 545.099 55.8 543.299 55.8ZM572.666 78V101.5C572.666 103.833 572.766 105.567 572.966 106.7C573.233 107.833 573.9 108.733 574.966 109.4C576.033 110.067 577.766 110.4 580.166 110.4C581.566 110.4 583 110.267 584.466 110V119.6C583.733 119.733 582.4 119.9 580.466 120.1C578.6 120.3 576.766 120.4 574.966 120.4C570.1 120.4 566.466 119.7 564.066 118.3C561.733 116.833 560.266 115.033 559.666 112.9C559.066 110.7 558.766 107.9 558.766 104.5V78H549.966V67.2H558.866V50H572.666V67.2H584.466V78H572.666Z" fill="#2A6CFF"/>
</svg>
