<svg width="347" height="101" viewBox="0 0 347 101" fill="none" xmlns="http://www.w3.org/2000/svg">
<path d="M26.0907 8C31.6907 8 36.3907 9.13333 40.1907 11.4C43.9907 13.6667 46.7907 16.6333 48.5907 20.3C50.3907 23.9667 51.2907 27.9 51.2907 32.1C51.2907 36.3 50.3907 40.2 48.5907 43.8C46.8573 47.3333 44.0907 50.2 40.2907 52.4C36.4907 54.6 31.7573 55.7 26.0907 55.7H13.7907V78H0.190662V8H26.0907ZM23.9907 44.3C27.924 44.3 31.224 43.3667 33.8907 41.5C36.5573 39.6333 37.8907 36.5 37.8907 32.1C37.8907 27.7 36.5573 24.6333 33.8907 22.9C31.2907 21.1 27.9907 20.2 23.9907 20.2H13.7907V44.3H23.9907ZM73.3868 78.8C66.8534 78.8 61.7534 76.3 58.0868 71.3C54.4201 66.3 52.5868 59.7 52.5868 51.5C52.5868 43.1667 54.4201 36.5 58.0868 31.5C61.8201 26.4333 67.0201 23.9 73.6868 23.9C78.1534 23.9 81.6534 24.9333 84.1868 27C86.7201 29 88.5201 31.1333 89.5868 33.4H90.3868V25.2H104.287V78H90.3868V68.9H89.5868C88.3868 71.3667 86.5201 73.6333 83.9868 75.7C81.4534 77.7667 77.9201 78.8 73.3868 78.8ZM78.4868 67.6C82.4201 67.6 85.3868 66 87.3868 62.8C89.3868 59.6 90.3868 55.7667 90.3868 51.3C90.3868 46.8333 89.3868 43.0333 87.3868 39.9C85.4534 36.7667 82.4868 35.2 78.4868 35.2C74.4868 35.2 71.5201 36.7667 69.5868 39.9C67.6534 43.0333 66.6868 46.8333 66.6868 51.3C66.6868 55.8333 67.6534 59.7 69.5868 62.9C71.5201 66.0333 74.4868 67.6 78.4868 67.6ZM136.822 85.5C135.889 87.9667 134.889 90.1333 133.822 92C132.755 93.9333 130.855 95.8 128.122 97.6C125.455 99.4 121.922 100.3 117.522 100.3C115.655 100.3 114.055 100.133 112.722 99.8C111.389 99.5333 110.555 99.3667 110.222 99.3V89.6C111.289 89.8667 112.722 90 114.522 90C116.722 90 118.489 89.6333 119.822 88.9C121.155 88.1667 122.222 87.2 123.022 86C123.822 84.8 124.622 83.1333 125.422 81L127.122 76.8L108.122 25.2H122.122L133.522 61.5H134.122L146.122 25.2H160.122L136.822 85.5ZM181.414 78.8C174.747 78.8 169.581 76.3 165.914 71.3C162.314 66.3 160.514 59.7 160.514 51.5C160.514 43.1 162.314 36.4 165.914 31.4C169.581 26.4 174.781 23.9 181.514 23.9C186.047 23.9 189.581 24.9333 192.114 27C194.647 29 196.447 31.1333 197.514 33.4H198.314V2.9H212.214V78H198.314V68.9H197.514C196.314 71.3667 194.447 73.6333 191.914 75.7C189.381 77.7667 185.881 78.8 181.414 78.8ZM186.414 67.8C190.347 67.8 193.314 66.2 195.314 63C197.314 59.8 198.314 55.9667 198.314 51.5C198.314 47.1 197.314 43.3 195.314 40.1C193.314 36.9 190.347 35.3 186.414 35.3C182.414 35.3 179.414 36.9 177.414 40.1C175.481 43.2333 174.514 47 174.514 51.4C174.514 55.9333 175.481 59.8 177.414 63C179.414 66.2 182.414 67.8 186.414 67.8ZM220.04 25.2H233.74V33.6H234.44C235.307 31.2667 236.907 29.3 239.24 27.7C241.573 26.0333 244.573 25.2 248.24 25.2C249.64 25.2 250.84 25.3333 251.84 25.6L251.24 38.3C249.573 37.8333 247.807 37.6 245.94 37.6C241.807 37.6 238.74 38.7 236.74 40.9C234.74 43.0333 233.74 46.6 233.74 51.6V78H220.04V25.2ZM257.181 25.2H270.981V78H257.181V25.2ZM263.981 16.1C261.781 16.1 259.948 15.3667 258.481 13.9C257.015 12.3667 256.281 10.5333 256.281 8.4C256.281 6.2 257.015 4.36666 258.481 2.9C259.948 1.43333 261.781 0.699994 263.981 0.699994C266.181 0.699994 268.015 1.46666 269.481 2.99999C270.948 4.46666 271.681 6.26666 271.681 8.4C271.681 10.5333 270.948 12.3667 269.481 13.9C268.015 15.3667 266.181 16.1 263.981 16.1ZM305.299 13.8C303.233 13.8 301.699 14.2333 300.699 15.1C299.766 15.9 299.166 16.9 298.899 18.1C298.699 19.2333 298.599 20.7667 298.599 22.7V25.2H310.399V36H298.599V78H284.799V36H278.099V25.2H284.799V19.9C284.799 15.8333 285.899 12.2 288.099 8.99999C290.299 5.73333 294.766 4.1 301.499 4.1C303.166 4.1 304.899 4.2 306.699 4.39999C308.566 4.6 309.799 4.83333 310.399 5.1V14.2C308.799 13.9333 307.099 13.8 305.299 13.8ZM334.666 36V59.5C334.666 61.8333 334.766 63.5667 334.966 64.7C335.233 65.8333 335.9 66.7333 336.966 67.4C338.033 68.0667 339.766 68.4 342.166 68.4C343.566 68.4 345 68.2667 346.466 68V77.6C345.733 77.7333 344.4 77.9 342.466 78.1C340.6 78.3 338.766 78.4 336.966 78.4C332.1 78.4 328.466 77.7 326.066 76.3C323.733 74.8333 322.266 73.0333 321.666 70.9C321.066 68.7 320.766 65.9 320.766 62.5V36H311.966V25.2H320.866V8H334.666V25.2H346.466V36H334.666Z" fill="#2A6CFF"/>
</svg>
