<svg width="379" height="126" viewBox="0 0 379 126" fill="none" xmlns="http://www.w3.org/2000/svg">
<circle cx="62.3313" cy="63.2671" r="62.334" fill="white"/>
<path d="M86.227 83.016C84.0943 78.3906 79.0415 76.7601 76.7815 76.5232L87.6388 61.2778C92.781 70.1443 88.8402 79.4644 86.227 83.016Z" fill="#252424" stroke="white" stroke-width="0.96066"/>
<path d="M35.4955 48.1433C40.6492 48.5266 43.9398 52.6316 44.9409 54.6361L55.7982 39.3909C45.5579 37.6832 37.9961 44.5143 35.4955 48.1433Z" fill="#252424" stroke="white" stroke-width="0.96066"/>
<path fill-rule="evenodd" clip-rule="evenodd" d="M47.1167 56.8568C47.1418 56.7882 47.1762 56.7231 47.2187 56.6633L61.6388 36.4159C61.8758 36.083 62.1559 35.7812 62.4765 35.5245C69.3073 30.0543 77.4113 26.5689 85.8735 25.2274C88.1036 24.8739 90.1966 26.3126 90.6227 28.492C92.2394 36.7622 91.6836 45.4364 88.7934 53.6156C88.6578 53.9993 88.4652 54.3613 88.2282 54.6941L73.8093 74.9402C73.7665 75.0002 73.7161 75.0541 73.659 75.101C73.3693 75.3378 72.9544 75.3517 72.6456 75.1393L47.4267 57.8037C47.1185 57.5917 46.9898 57.2047 47.1167 56.8568Z" fill="#252424"/>
<mask id="mask0_38_256" style="mask-type:luminance" maskUnits="userSpaceOnUse" x="47" y="25" width="45" height="51">
<path fill-rule="evenodd" clip-rule="evenodd" d="M47.1167 56.8568C47.1418 56.7882 47.1762 56.7231 47.2187 56.6633L61.6388 36.4159C61.8758 36.083 62.1559 35.7812 62.4765 35.5245C69.3073 30.0543 77.4113 26.5689 85.8735 25.2274C88.1036 24.8739 90.1966 26.3126 90.6227 28.492C92.2394 36.7622 91.6836 45.4364 88.7934 53.6156C88.6578 53.9993 88.4652 54.3613 88.2282 54.6941L73.8093 74.9402C73.7665 75.0002 73.7161 75.0541 73.659 75.101C73.3693 75.3378 72.9544 75.3517 72.6456 75.1393L47.4267 57.8037C47.1185 57.5917 46.9898 57.2047 47.1167 56.8568Z" fill="white"/>
</mask>
<g mask="url(#mask0_38_256)">
<path d="M48.2518 57.3733L62.6719 37.1259L60.6049 35.7051L46.1849 55.9525L48.2518 57.3733ZM85.6722 24.0037C76.9964 25.3791 68.6858 28.9527 61.6792 34.5635L63.2729 36.4847C69.9282 31.155 77.8254 27.7581 86.0742 26.4504L85.6722 24.0037ZM89.9845 54.0217C92.9491 45.632 93.5186 36.7368 91.8609 28.2578L89.3835 28.7254C90.9595 36.7869 90.4173 45.24 87.6014 53.2089L89.9845 54.0217ZM87.1943 53.9833L72.7755 74.2294L74.8424 75.6502L89.2612 55.4042L87.1943 53.9833ZM73.3683 74.1236L48.1494 56.7878L46.7032 58.8186L71.9221 76.1542L73.3683 74.1236ZM48.1494 56.7878C48.2993 56.8909 48.3721 57.0877 48.3036 57.2748L45.9293 56.4378C45.6068 57.3209 45.9369 58.2919 46.7032 58.8186L48.1494 56.7878ZM72.8516 74.1483C73.0068 74.0213 73.219 74.0211 73.3683 74.1236L71.9221 76.1542C72.6889 76.6814 73.7312 76.6536 74.4657 76.0529L72.8516 74.1483ZM72.7755 74.2294C72.7963 74.2001 72.8216 74.1728 72.8516 74.1483L74.4657 76.0529C74.6099 75.9349 74.7362 75.7992 74.8424 75.6502L72.7755 74.2294ZM87.6014 53.2089C87.5066 53.4772 87.3693 53.7376 87.1943 53.9833L89.2612 55.4042C89.5604 54.9842 89.8082 54.5207 89.9845 54.0217L87.6014 53.2089ZM86.0742 26.4504C87.6308 26.2035 89.0861 27.204 89.3835 28.7254L91.8609 28.2578C91.3062 25.4205 88.5756 23.5434 85.6722 24.0037L86.0742 26.4504ZM62.6719 37.1259C62.8468 36.8802 63.0487 36.6641 63.2729 36.4847L61.6792 34.5635C61.2623 34.8973 60.9041 35.2849 60.6049 35.7051L62.6719 37.1259ZM46.1849 55.9525C46.079 56.1015 45.9926 56.2645 45.9293 56.4378L48.3036 57.2748C48.2904 57.3111 48.2728 57.344 48.2518 57.3733L46.1849 55.9525Z" fill="white"/>
</g>
<path d="M46.3747 59.8513L71.3025 76.9871L67.7495 81.976C66.279 84.0409 63.3831 84.5436 61.2815 83.0988L43.9645 71.1948C41.8629 69.7501 41.3512 66.9052 42.8218 64.8402L46.3747 59.8513Z" fill="#252424" stroke="white" stroke-width="0.981016"/>
<path d="M40.6707 74.4709L40.6707 74.4709C39.8143 73.8822 38.6344 74.087 38.0353 74.9284L32.2492 83.0527C31.65 83.894 31.8585 85.0533 32.7148 85.6419C33.5712 86.2306 34.7511 86.0258 35.3503 85.1845L41.1363 77.0601C41.7355 76.2188 41.527 75.0595 40.6707 74.4709Z" fill="#252424"/>
<path d="M40.6707 74.4709L40.6707 74.4709C41.527 75.0595 41.7355 76.2188 41.1363 77.0601L35.3503 85.1845C34.7511 86.0258 33.5712 86.2306 32.7148 85.6419L32.7148 85.6419C31.8585 85.0533 31.65 83.894 32.2492 83.0527L38.0353 74.9284C38.6344 74.087 39.8143 73.8822 40.6707 74.4709Z" stroke="white" stroke-width="0.981236"/>
<path d="M59.2776 87.2619L59.2776 87.2619C58.4213 86.6732 57.2414 86.8781 56.6422 87.7194L50.8561 95.8438C50.257 96.6851 50.4654 97.8443 51.3218 98.4329C52.1781 99.0216 53.358 98.8168 53.9572 97.9755L59.7433 89.8511C60.3424 89.0098 60.1339 87.8506 59.2776 87.2619Z" fill="#252424"/>
<path d="M59.2776 87.2619L59.2776 87.2619C60.1339 87.8506 60.3424 89.0098 59.7433 89.8511L53.9572 97.9755C53.358 98.8168 52.1781 99.0216 51.3218 98.4329L51.3218 98.4329C50.4654 97.8443 50.257 96.6851 50.8561 95.8438L56.6422 87.7194C57.2414 86.8781 58.4213 86.6732 59.2776 87.2619Z" stroke="white" stroke-width="0.981236"/>
<path d="M50.6979 79.8513L50.6979 79.8513C49.8415 79.2626 48.6616 79.4674 48.0625 80.3087L36.852 96.0497C36.2528 96.891 36.4613 98.0502 37.3176 98.6389C38.1739 99.2275 39.3539 99.0227 39.953 98.1814L51.1635 82.4404C51.7627 81.5991 51.5542 80.4399 50.6979 79.8513Z" fill="#252424"/>
<path d="M50.6979 79.8513L50.6979 79.8513C51.5542 80.4399 51.7627 81.5991 51.1635 82.4404L39.953 98.1814C39.3539 99.0227 38.1739 99.2275 37.3176 98.6389L37.3176 98.6389C36.4613 98.0502 36.2528 96.891 36.852 96.0497L48.0625 80.3087C48.6616 79.4674 49.8415 79.2626 50.6979 79.8513Z" stroke="white" stroke-width="0.981236"/>
<path d="M180.093 71.1099H163.897V60.8946H180.093C182.596 60.8946 184.633 60.4871 186.205 59.6722C187.776 58.8282 188.926 57.6641 189.654 56.1798C190.381 54.6955 190.745 53.022 190.745 51.1594C190.745 49.2677 190.381 47.5069 189.654 45.8771C188.926 44.2473 187.776 42.9376 186.205 41.9481C184.633 40.9586 182.596 40.4638 180.093 40.4638H168.437V93.7671H155.341V30.2048H180.093C185.07 30.2048 189.334 31.107 192.884 32.9115C196.464 34.6868 199.2 37.146 201.091 40.2892C202.983 43.4324 203.929 47.0267 203.929 51.0721C203.929 55.1757 202.983 58.7264 201.091 61.724C199.2 64.7217 196.464 67.0354 192.884 68.6652C189.334 70.295 185.07 71.1099 180.093 71.1099ZM224.557 26.7124V93.7671H211.941V26.7124H224.557ZM259.548 83.1152V62.0733C259.548 60.5599 259.3 59.2648 258.806 58.1879C258.311 57.082 257.54 56.2234 256.492 55.6123C255.473 55.0011 254.149 54.6955 252.519 54.6955C251.122 54.6955 249.914 54.9429 248.896 55.4376C247.877 55.9033 247.091 56.5872 246.538 57.4894C245.985 58.3626 245.709 59.3957 245.709 60.589H233.136C233.136 58.5808 233.602 56.6745 234.533 54.8701C235.464 53.0657 236.818 51.4796 238.593 50.1117C240.368 48.7147 242.478 47.6233 244.923 46.8375C247.397 46.0517 250.162 45.6588 253.218 45.6588C256.885 45.6588 260.144 46.27 262.996 47.4924C265.849 48.7147 268.09 50.5482 269.719 52.9929C271.378 55.4376 272.208 58.4935 272.208 62.1606V82.373C272.208 84.9632 272.368 87.0878 272.688 88.7467C273.008 90.3765 273.474 91.8026 274.085 93.0249V93.7671H261.381C260.77 92.4865 260.304 90.8858 259.984 88.965C259.693 87.0151 259.548 85.0651 259.548 83.1152ZM261.207 64.9982L261.294 72.114H254.265C252.607 72.114 251.166 72.3032 249.944 72.6815C248.721 73.0599 247.717 73.5983 246.931 74.2968C246.146 74.9662 245.563 75.752 245.185 76.6542C244.836 77.5564 244.661 78.5459 244.661 79.6227C244.661 80.6996 244.909 81.6745 245.403 82.5477C245.898 83.3917 246.611 84.061 247.542 84.5558C248.474 85.0215 249.565 85.2543 250.817 85.2543C252.708 85.2543 254.353 84.8759 255.75 84.1192C257.147 83.3626 258.224 82.4312 258.98 81.3253C259.766 80.2194 260.173 79.1716 260.203 78.1821L263.52 83.5081C263.055 84.7013 262.414 85.9382 261.6 87.2188C260.814 88.4993 259.81 89.7071 258.587 90.8422C257.365 91.9481 255.895 92.8649 254.178 93.5925C252.461 94.291 250.424 94.6402 248.066 94.6402C245.069 94.6402 242.347 94.0436 239.903 92.8503C237.487 91.628 235.566 89.9545 234.14 87.83C232.743 85.6763 232.045 83.2316 232.045 80.4958C232.045 78.022 232.51 75.8247 233.442 73.9039C234.373 71.983 235.741 70.3678 237.545 69.0581C239.379 67.7194 241.664 66.7153 244.399 66.0459C247.135 65.3474 250.307 64.9982 253.916 64.9982H261.207ZM293.316 56.6163V93.7671H280.743V46.5319H292.53L293.316 56.6163ZM291.483 68.4906H288.077C288.077 64.9982 288.529 61.855 289.431 59.061C290.333 56.238 291.599 53.8369 293.229 51.8579C294.859 49.8498 296.794 48.3218 299.035 47.2741C301.305 46.1972 303.837 45.6588 306.631 45.6588C308.843 45.6588 310.866 45.979 312.699 46.6193C314.533 47.2595 316.104 48.2782 317.414 49.6751C318.753 51.0721 319.771 52.9202 320.47 55.2194C321.197 57.5186 321.561 60.327 321.561 63.6449V93.7671H308.901V63.6012C308.901 61.5057 308.61 59.8759 308.028 58.7118C307.446 57.5477 306.587 56.7328 305.452 56.2671C304.346 55.7723 302.978 55.525 301.349 55.525C299.661 55.525 298.191 55.8596 296.939 56.529C295.717 57.1984 294.698 58.1297 293.884 59.323C293.098 60.4871 292.501 61.855 292.094 63.4266C291.686 64.9982 291.483 66.6862 291.483 68.4906ZM343.499 46.5319V93.7671H330.882V46.5319H343.499ZM330.097 34.2211C330.097 32.3876 330.737 30.8742 332.017 29.681C333.298 28.4877 335.015 27.8911 337.169 27.8911C339.293 27.8911 340.996 28.4877 342.276 29.681C343.586 30.8742 344.241 32.3876 344.241 34.2211C344.241 36.0546 343.586 37.568 342.276 38.7613C340.996 39.9545 339.293 40.5511 337.169 40.5511C335.015 40.5511 333.298 39.9545 332.017 38.7613C330.737 37.568 330.097 36.0546 330.097 34.2211ZM376.132 46.5319V55.4376H348.629V46.5319H376.132ZM355.439 34.8759H368.012V79.5354C368.012 80.9033 368.187 81.951 368.536 82.6786C368.914 83.4062 369.467 83.9155 370.195 84.2066C370.923 84.4685 371.839 84.5995 372.945 84.5995C373.731 84.5995 374.43 84.5704 375.041 84.5121C375.681 84.4248 376.219 84.3375 376.656 84.2502L376.7 93.5052C375.623 93.8544 374.459 94.1309 373.207 94.3346C371.956 94.5383 370.573 94.6402 369.06 94.6402C366.295 94.6402 363.879 94.1891 361.813 93.2869C359.776 92.3556 358.204 90.8713 357.098 88.834C355.992 86.7968 355.439 84.1192 355.439 80.8014V34.8759Z" fill="white"/>
</svg>
