<svg width="125" height="126" viewBox="0 0 125 126" fill="none" xmlns="http://www.w3.org/2000/svg">
<circle cx="62.3313" cy="63.2671" r="62.334" fill="white"/>
<path d="M86.227 83.016C84.0943 78.3906 79.0415 76.7601 76.7815 76.5232L87.6388 61.2778C92.781 70.1443 88.8402 79.4644 86.227 83.016Z" fill="#252424" stroke="white" stroke-width="0.96066"/>
<path d="M35.4955 48.1433C40.6492 48.5266 43.9398 52.6316 44.9409 54.6361L55.7982 39.3909C45.5579 37.6832 37.9961 44.5143 35.4955 48.1433Z" fill="#252424" stroke="white" stroke-width="0.96066"/>
<path fill-rule="evenodd" clip-rule="evenodd" d="M47.1167 56.8568C47.1418 56.7882 47.1762 56.7231 47.2187 56.6633L61.6388 36.4159C61.8758 36.083 62.1559 35.7812 62.4765 35.5245C69.3073 30.0543 77.4113 26.5689 85.8735 25.2274C88.1036 24.8739 90.1966 26.3126 90.6227 28.492C92.2394 36.7622 91.6836 45.4364 88.7934 53.6156C88.6578 53.9993 88.4652 54.3613 88.2282 54.6941L73.8093 74.9402C73.7665 75.0002 73.7161 75.0541 73.659 75.101C73.3693 75.3378 72.9544 75.3517 72.6456 75.1393L47.4267 57.8037C47.1185 57.5917 46.9898 57.2047 47.1167 56.8568Z" fill="#252424"/>
<mask id="mask0_38_267" style="mask-type:luminance" maskUnits="userSpaceOnUse" x="47" y="25" width="45" height="51">
<path fill-rule="evenodd" clip-rule="evenodd" d="M47.1167 56.8568C47.1418 56.7882 47.1762 56.7231 47.2187 56.6633L61.6388 36.4159C61.8758 36.083 62.1559 35.7812 62.4765 35.5245C69.3073 30.0543 77.4113 26.5689 85.8735 25.2274C88.1036 24.8739 90.1966 26.3126 90.6227 28.492C92.2394 36.7622 91.6836 45.4364 88.7934 53.6156C88.6578 53.9993 88.4652 54.3613 88.2282 54.6941L73.8093 74.9402C73.7665 75.0002 73.7161 75.0541 73.659 75.101C73.3693 75.3378 72.9544 75.3517 72.6456 75.1393L47.4267 57.8037C47.1185 57.5917 46.9898 57.2047 47.1167 56.8568Z" fill="white"/>
</mask>
<g mask="url(#mask0_38_267)">
<path d="M48.2518 57.3733L62.6719 37.1259L60.6049 35.7051L46.1849 55.9525L48.2518 57.3733ZM85.6722 24.0037C76.9964 25.3791 68.6858 28.9527 61.6792 34.5635L63.2729 36.4847C69.9282 31.155 77.8254 27.7581 86.0742 26.4504L85.6722 24.0037ZM89.9845 54.0217C92.9491 45.632 93.5186 36.7368 91.8609 28.2578L89.3835 28.7254C90.9595 36.7869 90.4173 45.24 87.6014 53.2089L89.9845 54.0217ZM87.1943 53.9833L72.7755 74.2294L74.8424 75.6502L89.2612 55.4042L87.1943 53.9833ZM73.3683 74.1236L48.1494 56.7878L46.7032 58.8186L71.9221 76.1542L73.3683 74.1236ZM48.1494 56.7878C48.2993 56.8909 48.3721 57.0877 48.3036 57.2748L45.9293 56.4378C45.6068 57.3209 45.9369 58.2919 46.7032 58.8186L48.1494 56.7878ZM72.8516 74.1483C73.0068 74.0213 73.219 74.0211 73.3683 74.1236L71.9221 76.1542C72.6889 76.6814 73.7312 76.6536 74.4657 76.0529L72.8516 74.1483ZM72.7755 74.2294C72.7963 74.2001 72.8216 74.1728 72.8516 74.1483L74.4657 76.0529C74.6099 75.9349 74.7362 75.7992 74.8424 75.6502L72.7755 74.2294ZM87.6014 53.2089C87.5066 53.4772 87.3693 53.7376 87.1943 53.9833L89.2612 55.4042C89.5604 54.9842 89.8082 54.5207 89.9845 54.0217L87.6014 53.2089ZM86.0742 26.4504C87.6308 26.2035 89.0861 27.204 89.3835 28.7254L91.8609 28.2578C91.3062 25.4205 88.5756 23.5434 85.6722 24.0037L86.0742 26.4504ZM62.6719 37.1259C62.8468 36.8802 63.0487 36.6641 63.2729 36.4847L61.6792 34.5635C61.2623 34.8973 60.9041 35.2849 60.6049 35.7051L62.6719 37.1259ZM46.1849 55.9525C46.079 56.1015 45.9926 56.2645 45.9293 56.4378L48.3036 57.2748C48.2904 57.3111 48.2728 57.344 48.2518 57.3733L46.1849 55.9525Z" fill="white"/>
</g>
<path d="M46.3747 59.8513L71.3025 76.9871L67.7495 81.976C66.279 84.0409 63.3831 84.5436 61.2815 83.0988L43.9645 71.1948C41.8629 69.7501 41.3512 66.9052 42.8218 64.8402L46.3747 59.8513Z" fill="#252424" stroke="white" stroke-width="0.981016"/>
<path d="M40.6707 74.4709L40.6707 74.4709C39.8143 73.8822 38.6344 74.087 38.0353 74.9284L32.2492 83.0527C31.65 83.894 31.8585 85.0533 32.7148 85.6419C33.5712 86.2306 34.7511 86.0258 35.3503 85.1845L41.1363 77.0601C41.7355 76.2188 41.527 75.0595 40.6707 74.4709Z" fill="#252424"/>
<path d="M40.6707 74.4709L40.6707 74.4709C41.527 75.0595 41.7355 76.2188 41.1363 77.0601L35.3503 85.1845C34.7511 86.0258 33.5712 86.2306 32.7148 85.6419L32.7148 85.6419C31.8585 85.0533 31.65 83.894 32.2492 83.0527L38.0353 74.9284C38.6344 74.087 39.8143 73.8822 40.6707 74.4709Z" stroke="white" stroke-width="0.981236"/>
<path d="M59.2776 87.2619L59.2776 87.2619C58.4213 86.6732 57.2414 86.8781 56.6422 87.7194L50.8561 95.8438C50.257 96.6851 50.4654 97.8443 51.3218 98.4329C52.1781 99.0216 53.358 98.8168 53.9572 97.9755L59.7433 89.8511C60.3424 89.0098 60.1339 87.8506 59.2776 87.2619Z" fill="#252424"/>
<path d="M59.2776 87.2619L59.2776 87.2619C60.1339 87.8506 60.3424 89.0098 59.7433 89.8511L53.9572 97.9755C53.358 98.8168 52.1781 99.0216 51.3218 98.4329L51.3218 98.4329C50.4654 97.8443 50.257 96.6851 50.8561 95.8438L56.6422 87.7194C57.2414 86.8781 58.4213 86.6732 59.2776 87.2619Z" stroke="white" stroke-width="0.981236"/>
<path d="M50.6979 79.8513L50.6979 79.8513C49.8415 79.2626 48.6616 79.4674 48.0625 80.3087L36.852 96.0497C36.2528 96.891 36.4613 98.0502 37.3176 98.6389C38.1739 99.2275 39.3539 99.0227 39.953 98.1814L51.1635 82.4404C51.7627 81.5991 51.5542 80.4399 50.6979 79.8513Z" fill="#252424"/>
<path d="M50.6979 79.8513L50.6979 79.8513C51.5542 80.4399 51.7627 81.5991 51.1635 82.4404L39.953 98.1814C39.3539 99.0227 38.1739 99.2275 37.3176 98.6389L37.3176 98.6389C36.4613 98.0502 36.2528 96.891 36.852 96.0497L48.0625 80.3087C48.6616 79.4674 49.8415 79.2626 50.6979 79.8513Z" stroke="white" stroke-width="0.981236"/>
</svg>
