<svg width="222" height="69" viewBox="0 0 222 69" fill="none" xmlns="http://www.w3.org/2000/svg">
<path d="M25.0931 45.1099H8.89698V34.8946H25.0931C27.596 34.8946 29.6333 34.4871 31.2049 33.6722C32.7765 32.8282 33.9261 31.6641 34.6537 30.1798C35.3813 28.6955 35.7451 27.022 35.7451 25.1594C35.7451 23.2677 35.3813 21.5069 34.6537 19.8771C33.9261 18.2473 32.7765 16.9376 31.2049 15.9481C29.6333 14.9586 27.596 14.4638 25.0931 14.4638H13.4371V67.7671H0.340517V4.20482H25.0931C30.0698 4.20482 34.3335 5.10703 37.8842 6.91145C41.4639 8.68677 44.1996 11.146 46.0914 14.2892C47.9831 17.4324 48.929 21.0267 48.929 25.0721C48.929 29.1757 47.9831 32.7264 46.0914 35.724C44.1996 38.7217 41.4639 41.0354 37.8842 42.6652C34.3335 44.295 30.0698 45.1099 25.0931 45.1099ZM69.557 0.712385V67.7671H56.9406V0.712385H69.557ZM104.548 57.1152V36.0733C104.548 34.5599 104.3 33.2648 103.806 32.1879C103.311 31.082 102.54 30.2234 101.492 29.6123C100.473 29.0011 99.149 28.6955 97.5192 28.6955C96.1222 28.6955 94.9144 28.9429 93.8958 29.4376C92.8772 29.9033 92.0914 30.5872 91.5384 31.4894C90.9854 32.3626 90.709 33.3957 90.709 34.589H78.1362C78.1362 32.5808 78.6019 30.6745 79.5332 28.8701C80.4645 27.0657 81.8178 25.4796 83.5931 24.1117C85.3684 22.7147 87.4785 21.6233 89.9232 20.8375C92.397 20.0517 95.1618 19.6588 98.2177 19.6588C101.885 19.6588 105.144 20.27 107.996 21.4924C110.849 22.7147 113.09 24.5482 114.719 26.9929C116.378 29.4376 117.208 32.4935 117.208 36.1606V56.373C117.208 58.9632 117.368 61.0878 117.688 62.7467C118.008 64.3765 118.474 65.8026 119.085 67.0249V67.7671H106.381C105.77 66.4865 105.304 64.8858 104.984 62.965C104.693 61.0151 104.548 59.0651 104.548 57.1152ZM106.207 38.9982L106.294 46.114H99.2654C97.6065 46.114 96.1659 46.3032 94.9435 46.6815C93.7212 47.0599 92.7171 47.5983 91.9313 48.2968C91.1455 48.9662 90.5634 49.752 90.1851 50.6542C89.8358 51.5564 89.6612 52.5459 89.6612 53.6227C89.6612 54.6996 89.9086 55.6745 90.4034 56.5477C90.8981 57.3917 91.6112 58.061 92.5425 58.5558C93.4738 59.0215 94.5652 59.2543 95.8166 59.2543C97.7084 59.2543 99.3527 58.8759 100.75 58.1192C102.147 57.3626 103.224 56.4312 103.98 55.3253C104.766 54.2194 105.173 53.1716 105.203 52.1821L108.52 57.5081C108.055 58.7013 107.414 59.9382 106.6 61.2188C105.814 62.4993 104.81 63.7071 103.587 64.8422C102.365 65.9481 100.895 66.8649 99.1781 67.5925C97.461 68.291 95.4237 68.6402 93.0664 68.6402C90.0687 68.6402 87.3475 68.0436 84.9028 66.8503C82.4872 65.628 80.5664 63.9545 79.1403 61.83C77.7433 59.6763 77.0448 57.2316 77.0448 54.4958C77.0448 52.022 77.5105 49.8247 78.4418 47.9039C79.3731 45.983 80.741 44.3678 82.5454 43.0581C84.3789 41.7194 86.6636 40.7153 89.3993 40.0459C92.135 39.3474 95.3073 38.9982 98.9162 38.9982H106.207ZM138.316 30.6163V67.7671H125.743V20.5319H137.53L138.316 30.6163ZM136.483 42.4906H133.077C133.077 38.9982 133.529 35.855 134.431 33.061C135.333 30.238 136.599 27.8369 138.229 25.8579C139.859 23.8498 141.794 22.3218 144.035 21.2741C146.305 20.1972 148.837 19.6588 151.631 19.6588C153.843 19.6588 155.866 19.979 157.699 20.6193C159.533 21.2595 161.104 22.2782 162.414 23.6751C163.753 25.0721 164.771 26.9202 165.47 29.2194C166.197 31.5186 166.561 34.327 166.561 37.6449V67.7671H153.901V37.6012C153.901 35.5057 153.61 33.8759 153.028 32.7118C152.446 31.5477 151.587 30.7328 150.452 30.2671C149.346 29.7723 147.978 29.525 146.349 29.525C144.661 29.525 143.191 29.8596 141.939 30.529C140.717 31.1984 139.698 32.1297 138.884 33.323C138.098 34.4871 137.501 35.855 137.094 37.4266C136.686 38.9982 136.483 40.6862 136.483 42.4906ZM188.499 20.5319V67.7671H175.882V20.5319H188.499ZM175.097 8.22112C175.097 6.38759 175.737 4.8742 177.017 3.68095C178.298 2.48771 180.015 1.89108 182.169 1.89108C184.293 1.89108 185.996 2.48771 187.276 3.68095C188.586 4.8742 189.241 6.38759 189.241 8.22112C189.241 10.0546 188.586 11.568 187.276 12.7613C185.996 13.9545 184.293 14.5511 182.169 14.5511C180.015 14.5511 178.298 13.9545 177.017 12.7613C175.737 11.568 175.097 10.0546 175.097 8.22112ZM221.132 20.5319V29.4376H193.629V20.5319H221.132ZM200.439 8.87595H213.012V53.5354C213.012 54.9033 213.187 55.951 213.536 56.6786C213.914 57.4062 214.467 57.9155 215.195 58.2066C215.923 58.4685 216.839 58.5995 217.945 58.5995C218.731 58.5995 219.43 58.5704 220.041 58.5121C220.681 58.4248 221.219 58.3375 221.656 58.2502L221.7 67.5052C220.623 67.8544 219.459 68.1309 218.207 68.3346C216.956 68.5383 215.573 68.6402 214.06 68.6402C211.295 68.6402 208.879 68.1891 206.813 67.2869C204.776 66.3556 203.204 64.8713 202.098 62.834C200.992 60.7968 200.439 58.1192 200.439 54.8014V8.87595Z" fill="white"/>
</svg>
