<svg width="364" height="102" viewBox="0 0 364 102" fill="none" xmlns="http://www.w3.org/2000/svg">
<path d="M1.6144 23.5C1.6144 19.0333 2.78107 15.1 5.1144 11.7C7.44774 8.23333 10.6477 5.53333 14.7144 3.6C18.8477 1.6 23.5477 0.599999 28.8144 0.599999C34.1477 0.599999 38.7477 1.53333 42.6144 3.4C46.4811 5.26667 49.4477 7.9 51.5144 11.3C53.6477 14.7 54.7144 18.7333 54.7144 23.4H38.6144C38.6144 20.8 37.7144 18.7667 35.9144 17.3C34.1144 15.7667 31.6811 15 28.6144 15C25.3477 15 22.7144 15.7 20.7144 17.1C18.7811 18.5 17.8144 20.4333 17.8144 22.9C17.8144 25.1667 18.4144 26.9 19.6144 28.1C20.8144 29.3 22.7144 30.1667 25.3144 30.7L36.4144 33C43.0144 34.3333 47.9144 36.6667 51.1144 40C54.3144 43.2667 55.9144 47.8333 55.9144 53.7C55.9144 58.4333 54.7477 62.6 52.4144 66.2C50.0811 69.7333 46.7811 72.4667 42.5144 74.4C38.3144 76.3333 33.3811 77.3 27.7144 77.3C22.2477 77.3 17.4477 76.3667 13.3144 74.5C9.24774 72.6333 6.08107 70 3.8144 66.6C1.6144 63.1333 0.514404 59.1 0.514404 54.5H16.6144C16.6144 57.1667 17.5811 59.2333 19.5144 60.7C21.4477 62.1667 24.2144 62.9 27.8144 62.9C31.4811 62.9 34.3811 62.2333 36.5144 60.9C38.6477 59.5 39.7144 57.6333 39.7144 55.3C39.7144 53.2333 39.1811 51.6333 38.1144 50.5C37.1144 49.3667 35.3811 48.5667 32.9144 48.1L21.6144 45.8C15.0144 44.4667 10.0144 41.9333 6.6144 38.2C3.28107 34.4667 1.6144 29.5667 1.6144 23.5ZM60.7519 100V26H75.2519L76.0519 32.1C77.4519 29.7667 79.6186 27.9 82.5519 26.5C85.4852 25.1 88.7186 24.4 92.2519 24.4C96.9186 24.4 101.019 25.4333 104.552 27.5C108.085 29.5667 110.852 32.5333 112.852 36.4C114.852 40.2 115.852 44.8 115.852 50.2C115.852 55.4667 114.919 60.1667 113.052 64.3C111.252 68.3667 108.585 71.5667 105.052 73.9C101.585 76.2333 97.3519 77.4 92.3519 77.4C88.8852 77.4 85.6852 76.8 82.7519 75.6C79.8186 74.4 77.6186 72.8667 76.1519 71V100H60.7519ZM76.2519 51C76.2519 53.4667 76.7519 55.6667 77.7519 57.6C78.8186 59.4667 80.2519 60.9333 82.0519 62C83.9186 63 86.0519 63.5 88.4519 63.5C90.9186 63.5 93.0186 62.9667 94.7519 61.9C96.5519 60.8333 97.9186 59.3667 98.8519 57.5C99.8519 55.6333 100.352 53.4667 100.352 51C100.352 48.5333 99.8519 46.3667 98.8519 44.5C97.9186 42.6333 96.5519 41.1667 94.7519 40.1C93.0186 39.0333 90.9186 38.5 88.4519 38.5C86.0519 38.5 83.9186 39.0333 82.0519 40.1C80.2519 41.1 78.8186 42.5333 77.7519 44.4C76.7519 46.2667 76.2519 48.4667 76.2519 51ZM143.917 77.3C138.917 77.3 134.45 76.1667 130.517 73.9C126.65 71.6333 123.583 68.5333 121.317 64.6C119.117 60.6 118.017 56.0333 118.017 50.9C118.017 45.7 119.083 41.1333 121.217 37.2C123.417 33.2 126.45 30.0667 130.317 27.8C134.183 25.5333 138.617 24.4 143.617 24.4C148.883 24.4 153.417 25.5 157.217 27.7C161.017 29.8333 163.95 32.9 166.017 36.9C168.083 40.8333 169.117 45.5333 169.117 51V54.9L126.117 55.1L126.317 45.6H153.817C153.817 42.9333 152.917 40.8333 151.117 39.3C149.317 37.7 146.85 36.9 143.717 36.9C141.117 36.9 138.983 37.4 137.317 38.4C135.717 39.4 134.517 40.9667 133.717 43.1C132.917 45.1667 132.517 47.8333 132.517 51.1C132.517 55.7667 133.45 59.2333 135.317 61.5C137.25 63.7 140.217 64.8 144.217 64.8C147.15 64.8 149.583 64.3 151.517 63.3C153.45 62.3 154.683 60.9 155.217 59.1H169.317C168.45 64.6333 165.717 69.0667 161.117 72.4C156.517 75.6667 150.783 77.3 143.917 77.3ZM189.636 76H174.236V26H188.736L189.736 31.2C191.27 29.0667 193.37 27.4 196.036 26.2C198.77 25 201.77 24.4 205.036 24.4C210.97 24.4 215.57 26.2333 218.836 29.9C222.17 33.5 223.836 38.5667 223.836 45.1V76H208.436V48.8C208.436 45.6667 207.636 43.1667 206.036 41.3C204.436 39.3667 202.303 38.4 199.636 38.4C196.57 38.4 194.136 39.3333 192.336 41.2C190.536 43 189.636 45.4667 189.636 48.6V76ZM251.881 77.3C247.081 77.3 242.914 76.2333 239.381 74.1C235.847 71.9667 233.081 68.9667 231.081 65.1C229.147 61.1667 228.181 56.5667 228.181 51.3C228.181 45.9667 229.181 41.3 231.181 37.3C233.181 33.2333 236.014 30.0667 239.681 27.8C243.414 25.5333 247.814 24.4 252.881 24.4C256.014 24.4 258.914 24.9667 261.581 26.1C264.314 27.2333 266.414 28.7333 267.881 30.6V0.599999H283.281V76H268.781L267.981 69.6C266.647 71.8667 264.514 73.7333 261.581 75.2C258.714 76.6 255.481 77.3 251.881 77.3ZM255.581 63.2C257.981 63.2 260.081 62.7 261.881 61.7C263.747 60.6333 265.181 59.1667 266.181 57.3C267.247 55.3667 267.781 53.1667 267.781 50.7C267.781 48.1667 267.247 45.9667 266.181 44.1C265.181 42.2333 263.747 40.8 261.881 39.8C260.081 38.7333 257.981 38.2 255.581 38.2C253.181 38.2 251.081 38.7333 249.281 39.8C247.481 40.8667 246.081 42.3333 245.081 44.2C244.147 46.0667 243.681 48.2333 243.681 50.7C243.681 53.1667 244.147 55.3333 245.081 57.2C246.081 59.0667 247.481 60.5333 249.281 61.6C251.081 62.6667 253.181 63.2 255.581 63.2ZM306.246 76H290.846V0.599999H306.246V76ZM324.999 26L339.699 69.2L332.199 87L308.499 26H324.999ZM309.799 100V87.1H318.299C320.032 87.1 321.465 86.8667 322.599 86.4C323.732 86 324.699 85.3 325.499 84.3C326.299 83.3 327.032 81.9 327.699 80.1L347.999 26H363.999L338.599 86.9C336.532 91.9667 333.999 95.6333 330.999 97.9C328.065 100.233 324.399 101.4 319.999 101.4C318.132 101.4 316.332 101.267 314.599 101C312.932 100.8 311.332 100.467 309.799 100Z" fill="#4825A7"/>
</svg>
