<svg width="506" height="135" viewBox="0 0 506 135" fill="none" xmlns="http://www.w3.org/2000/svg">
<rect x="53.8256" y="46.4565" width="62.3821" height="62.8372" transform="rotate(45 53.8256 46.4565)" fill="#4825A7"/>
<rect x="51.4344" y="1.78235" width="62.8406" height="62.8367" transform="rotate(45 51.4344 1.78235)" fill="#B6A6DF"/>
<g filter="url(#filter0_d_22_496)">
<path d="M52.4695 44.9455L97.9392 90.5655L51.3483 90.5655L6.99995 46.2172L52.4695 44.9455Z" fill="#7B5FC4"/>
</g>
<path d="M141.614 53.5C141.614 49.0333 142.781 45.1 145.114 41.7C147.448 38.2333 150.648 35.5333 154.714 33.6C158.848 31.6 163.548 30.6 168.814 30.6C174.148 30.6 178.748 31.5333 182.614 33.4C186.481 35.2667 189.448 37.9 191.514 41.3C193.648 44.7 194.714 48.7333 194.714 53.4H178.614C178.614 50.8 177.714 48.7667 175.914 47.3C174.114 45.7667 171.681 45 168.614 45C165.348 45 162.714 45.7 160.714 47.1C158.781 48.5 157.814 50.4333 157.814 52.9C157.814 55.1667 158.414 56.9 159.614 58.1C160.814 59.3 162.714 60.1667 165.314 60.7L176.414 63C183.014 64.3333 187.914 66.6667 191.114 70C194.314 73.2667 195.914 77.8333 195.914 83.7C195.914 88.4333 194.748 92.6 192.414 96.2C190.081 99.7333 186.781 102.467 182.514 104.4C178.314 106.333 173.381 107.3 167.714 107.3C162.248 107.3 157.448 106.367 153.314 104.5C149.248 102.633 146.081 100 143.814 96.6C141.614 93.1333 140.514 89.1 140.514 84.5H156.614C156.614 87.1667 157.581 89.2333 159.514 90.7C161.448 92.1667 164.214 92.9 167.814 92.9C171.481 92.9 174.381 92.2333 176.514 90.9C178.648 89.5 179.714 87.6333 179.714 85.3C179.714 83.2333 179.181 81.6333 178.114 80.5C177.114 79.3667 175.381 78.5667 172.914 78.1L161.614 75.8C155.014 74.4667 150.014 71.9333 146.614 68.2C143.281 64.4667 141.614 59.5667 141.614 53.5ZM200.752 130V56H215.252L216.052 62.1C217.452 59.7667 219.619 57.9 222.552 56.5C225.485 55.1 228.719 54.4 232.252 54.4C236.919 54.4 241.019 55.4333 244.552 57.5C248.085 59.5667 250.852 62.5333 252.852 66.4C254.852 70.2 255.852 74.8 255.852 80.2C255.852 85.4667 254.919 90.1667 253.052 94.3C251.252 98.3667 248.585 101.567 245.052 103.9C241.585 106.233 237.352 107.4 232.352 107.4C228.885 107.4 225.685 106.8 222.752 105.6C219.819 104.4 217.619 102.867 216.152 101V130H200.752ZM216.252 81C216.252 83.4667 216.752 85.6667 217.752 87.6C218.819 89.4667 220.252 90.9333 222.052 92C223.919 93 226.052 93.5 228.452 93.5C230.919 93.5 233.019 92.9667 234.752 91.9C236.552 90.8333 237.919 89.3667 238.852 87.5C239.852 85.6333 240.352 83.4667 240.352 81C240.352 78.5333 239.852 76.3667 238.852 74.5C237.919 72.6333 236.552 71.1667 234.752 70.1C233.019 69.0333 230.919 68.5 228.452 68.5C226.052 68.5 223.919 69.0333 222.052 70.1C220.252 71.1 218.819 72.5333 217.752 74.4C216.752 76.2667 216.252 78.4667 216.252 81ZM283.917 107.3C278.917 107.3 274.45 106.167 270.517 103.9C266.65 101.633 263.583 98.5333 261.317 94.6C259.117 90.6 258.017 86.0333 258.017 80.9C258.017 75.7 259.083 71.1333 261.217 67.2C263.417 63.2 266.45 60.0667 270.317 57.8C274.183 55.5333 278.617 54.4 283.617 54.4C288.883 54.4 293.417 55.5 297.217 57.7C301.017 59.8333 303.95 62.9 306.017 66.9C308.083 70.8333 309.117 75.5333 309.117 81V84.9L266.117 85.1L266.317 75.6H293.817C293.817 72.9333 292.917 70.8333 291.117 69.3C289.317 67.7 286.85 66.9 283.717 66.9C281.117 66.9 278.983 67.4 277.317 68.4C275.717 69.4 274.517 70.9667 273.717 73.1C272.917 75.1667 272.517 77.8333 272.517 81.1C272.517 85.7667 273.45 89.2333 275.317 91.5C277.25 93.7 280.217 94.8 284.217 94.8C287.15 94.8 289.583 94.3 291.517 93.3C293.45 92.3 294.683 90.9 295.217 89.1H309.317C308.45 94.6333 305.717 99.0667 301.117 102.4C296.517 105.667 290.783 107.3 283.917 107.3ZM329.636 106H314.236V56H328.736L329.736 61.2C331.27 59.0667 333.37 57.4 336.036 56.2C338.77 55 341.77 54.4 345.036 54.4C350.97 54.4 355.57 56.2333 358.836 59.9C362.17 63.5 363.836 68.5667 363.836 75.1V106H348.436V78.8C348.436 75.6667 347.636 73.1667 346.036 71.3C344.436 69.3667 342.303 68.4 339.636 68.4C336.57 68.4 334.136 69.3333 332.336 71.2C330.536 73 329.636 75.4667 329.636 78.6V106ZM391.881 107.3C387.081 107.3 382.914 106.233 379.381 104.1C375.847 101.967 373.081 98.9667 371.081 95.1C369.147 91.1667 368.181 86.5667 368.181 81.3C368.181 75.9667 369.181 71.3 371.181 67.3C373.181 63.2333 376.014 60.0667 379.681 57.8C383.414 55.5333 387.814 54.4 392.881 54.4C396.014 54.4 398.914 54.9667 401.581 56.1C404.314 57.2333 406.414 58.7333 407.881 60.6V30.6H423.281V106H408.781L407.981 99.6C406.647 101.867 404.514 103.733 401.581 105.2C398.714 106.6 395.481 107.3 391.881 107.3ZM395.581 93.2C397.981 93.2 400.081 92.7 401.881 91.7C403.747 90.6333 405.181 89.1667 406.181 87.3C407.247 85.3667 407.781 83.1667 407.781 80.7C407.781 78.1667 407.247 75.9667 406.181 74.1C405.181 72.2333 403.747 70.8 401.881 69.8C400.081 68.7333 397.981 68.2 395.581 68.2C393.181 68.2 391.081 68.7333 389.281 69.8C387.481 70.8667 386.081 72.3333 385.081 74.2C384.147 76.0667 383.681 78.2333 383.681 80.7C383.681 83.1667 384.147 85.3333 385.081 87.2C386.081 89.0667 387.481 90.5333 389.281 91.6C391.081 92.6667 393.181 93.2 395.581 93.2ZM446.246 106H430.846V30.6H446.246V106ZM464.999 56L479.699 99.2L472.199 117L448.499 56H464.999ZM449.799 130V117.1H458.299C460.032 117.1 461.465 116.867 462.599 116.4C463.732 116 464.699 115.3 465.499 114.3C466.299 113.3 467.032 111.9 467.699 110.1L487.999 56H503.999L478.599 116.9C476.532 121.967 473.999 125.633 470.999 127.9C468.065 130.233 464.399 131.4 459.999 131.4C458.132 131.4 456.332 131.267 454.599 131C452.932 130.8 451.332 130.467 449.799 130Z" fill="#4825A7"/>
<defs>
<filter id="filter0_d_22_496" x="0.618272" y="39.3615" width="103.703" height="58.3835" filterUnits="userSpaceOnUse" color-interpolation-filters="sRGB">
<feFlood flood-opacity="0" result="BackgroundImageFix"/>
<feColorMatrix in="SourceAlpha" type="matrix" values="0 0 0 0 0 0 0 0 0 0 0 0 0 0 0 0 0 0 127 0" result="hardAlpha"/>
<feOffset dy="0.797712"/>
<feGaussianBlur stdDeviation="3.19085"/>
<feComposite in2="hardAlpha" operator="out"/>
<feColorMatrix type="matrix" values="0 0 0 0 0 0 0 0 0 0 0 0 0 0 0 0 0 0 0.25 0"/>
<feBlend mode="normal" in2="BackgroundImageFix" result="effect1_dropShadow_22_496"/>
<feBlend mode="normal" in="SourceGraphic" in2="effect1_dropShadow_22_496" result="shape"/>
</filter>
</defs>
</svg>
