<svg width="128" height="128" viewBox="0 0 128 128" fill="none" xmlns="http://www.w3.org/2000/svg">
<path d="M98.7205 94.6294C98.0046 94.631 97.3118 94.3768 96.7667 93.9127C96.2217 93.4486 95.8603 92.8051 95.7477 92.0982C95.6351 91.3912 95.7787 90.6673 96.1526 90.0569C96.5266 89.4464 97.1062 88.9896 97.7872 88.7687C103.502 86.8979 107.195 81.8882 107.195 76.0061C107.195 68.5555 101.134 62.4943 93.6843 62.4943C93.1662 62.4943 92.6094 62.535 91.9315 62.6226L88.9931 63.0033L88.5717 60.0699C86.7671 47.4925 75.8101 38.0073 63.0851 38.0073C52.5658 38.0073 43.2017 44.3046 39.2291 54.0514L38.482 55.8845L36.5033 55.9212C27.4079 56.0881 20.0093 63.6201 20.0093 72.7103C20.0093 79.3466 23.8618 85.3977 29.8243 88.1265C30.1831 88.2907 30.5061 88.524 30.7747 88.813C31.0434 89.102 31.2525 89.4411 31.3901 89.8109C31.5277 90.1808 31.5912 90.5741 31.5768 90.9684C31.5624 91.3628 31.4705 91.7504 31.3062 92.1093C31.142 92.4681 30.9088 92.791 30.6197 93.0597C30.3307 93.3284 29.9916 93.5375 29.6218 93.6751C29.2519 93.8127 28.8586 93.8761 28.4643 93.8618C28.0699 93.8474 27.6823 93.7554 27.3235 93.5912C19.2307 89.8863 14 81.6907 14 72.7103C14 61.0246 23.0038 51.2361 34.4402 50.034C39.7095 39.017 50.753 32 63.0861 32C77.8467 32 90.6776 42.3483 94.0049 56.4891C104.622 56.6611 113.205 65.3504 113.205 76.0071C113.205 84.4042 107.76 91.8283 99.6559 94.4798C99.3465 94.5816 99.0309 94.6294 98.7205 94.6294Z" fill="white"/>
<path d="M52.8075 96.0259L52.8065 96.0249L52.8045 96.0239H52.7994H52.7912L52.7872 96.0229L52.7841 96.0219L52.7831 96.0208H52.779L52.778 96.0198C52.7305 96.0029 52.6798 95.9933 52.6294 95.9913H52.6111H52.604H52.6009C51.975 95.9897 51.3738 95.7415 50.9297 95.3004C50.4856 94.8593 50.2332 94.2609 50.2273 93.635V67.1825H52.2528C52.5612 67.1957 52.7719 66.9586 52.7719 66.6736C52.772 66.5726 52.7421 66.4739 52.6859 66.3899C52.6297 66.306 52.5498 66.2407 52.4564 66.2023L42.735 59.4928C42.65 59.4341 42.5492 59.4027 42.446 59.4027C42.3427 59.4027 42.2419 59.4341 42.1569 59.4928L32.3592 66.2553C32.2709 66.3176 32.2047 66.4064 32.1701 66.5087C32.1354 66.6111 32.1341 66.7218 32.1663 66.825C32.1986 66.9282 32.2627 67.0185 32.3495 67.0829C32.4363 67.1473 32.5412 67.1825 32.6493 67.1835H34.6748L34.6758 93.6279C34.686 95.4559 36.1547 96.9481 38.0235 96.9959C38.0448 96.998 38.0652 97 38.0866 97H52.608C52.7365 96.9979 52.8593 96.9474 52.9521 96.8585L52.9561 96.8544L52.9582 96.8524L52.9592 96.8514L52.9602 96.8504C53.0513 96.7561 53.1027 96.6303 53.1037 96.4992V96.4951C53.1052 96.3966 53.078 96.2998 53.0254 96.2165C52.9728 96.1332 52.8971 96.067 52.8075 96.0259Z" fill="white"/>
<path d="M73.8287 96.0259C73.8277 96.0249 73.8287 96.0249 73.8287 96.0259L73.8246 96.0238H73.8216H73.8135H73.8104L73.8073 96.0228L73.8043 96.0218L73.8033 96.0208H73.7992L73.7972 96.0198C73.7497 96.0029 73.6989 95.9933 73.6486 95.9913H73.6414H73.6374H73.6343H73.6333C73.0074 95.9897 72.4075 95.7414 71.9635 95.3003C71.5195 94.8592 71.2674 94.2608 71.2617 93.635V73.1022H73.3076C73.4257 73.1025 73.5402 73.0617 73.6315 72.9868C73.7228 72.912 73.7853 72.8077 73.8081 72.6918C73.831 72.5759 73.8129 72.4557 73.7568 72.3518C73.7008 72.2478 73.6103 72.1666 73.501 72.122L63.7786 65.4125C63.6936 65.3538 63.5928 65.3224 63.4896 65.3224C63.3863 65.3224 63.2855 65.3538 63.2005 65.4125L53.3875 72.1739C53.2993 72.2363 53.233 72.325 53.1984 72.4274C53.1637 72.5298 53.1624 72.6405 53.1946 72.7437C53.2269 72.8468 53.291 72.9371 53.3778 73.0015C53.4646 73.066 53.5695 73.1012 53.6776 73.1022H55.694L55.695 93.6268C55.7041 95.4559 57.1749 96.9491 59.0437 96.9949L59.1047 96.9979H73.6262C73.7546 96.9959 73.8775 96.9453 73.9702 96.8564L73.9743 96.8524L73.9763 96.8503L73.9773 96.8493C73.9794 96.8493 73.9783 96.8493 73.9783 96.8483C74.0695 96.754 74.1209 96.6283 74.1219 96.4971V96.4931C74.1244 96.395 74.0979 96.2984 74.0457 96.2153C73.9936 96.1322 73.9181 96.0663 73.8287 96.0259Z" fill="white"/>
<path d="M94.8575 96.0259C94.8565 96.0249 94.8575 96.0249 94.8575 96.0259L94.8544 96.0249H94.8534H94.8473H94.8432H94.8402L94.8371 96.0239L94.8341 96.0229L94.831 96.0218H94.8249C94.7774 96.0049 94.7277 95.9953 94.6773 95.9933H94.656H94.6529C94.0271 95.9918 93.4261 95.7435 92.9821 95.3024C92.5381 94.8613 92.286 94.2629 92.2803 93.637V79.0199H94.3109C94.447 79.0205 94.5778 78.9674 94.675 78.8721C94.7722 78.7768 94.8279 78.6471 94.83 78.511C94.8301 78.41 94.8002 78.3113 94.744 78.2273C94.6878 78.1434 94.6079 78.0781 94.5145 78.0397L84.7921 71.3302C84.7071 71.2715 84.6063 71.2401 84.5031 71.2401C84.3998 71.2401 84.299 71.2715 84.214 71.3302L74.4173 78.0917C74.3291 78.154 74.2628 78.2428 74.2282 78.3451C74.1935 78.4475 74.1922 78.5582 74.2244 78.6614C74.2567 78.7646 74.3208 78.8548 74.4076 78.9193C74.4944 78.9837 74.5993 79.0189 74.7074 79.0199H76.7278L76.7288 93.6259C76.739 95.4549 78.2098 96.9481 80.0775 96.9939L80.1386 96.9969H94.66C94.7885 96.9949 94.9113 96.9443 95.0041 96.8554L95.0081 96.8514L95.0102 96.8493L95.0112 96.8483C95.0132 96.8483 95.0112 96.8483 95.0122 96.8473C95.1033 96.753 95.1547 96.6273 95.1557 96.4961V96.4951V96.4921C95.1562 96.3939 95.1282 96.2977 95.0753 96.215C95.0224 96.1323 94.9468 96.0667 94.8575 96.0259Z" fill="white"/>
</svg>
