<svg width="128" height="128" viewBox="0 0 128 128" fill="none" xmlns="http://www.w3.org/2000/svg">
<path d="M55.5 99C61.8651 99 67 93.8651 67 87.5V76H55.5C49.1349 76 44 81.1349 44 87.5C44 93.8651 49.1349 99 55.5 99Z" fill="white"/>
<path d="M44 64.5C44 58.1349 49.1349 53 55.5 53H67V76H55.5C49.1349 76 44 70.8651 44 64.5Z" fill="#E7E7E7"/>
<path d="M44 41.5C44 35.1349 49.1349 30 55.5 30H67V53H55.5C49.1349 53 44 47.8651 44 41.5Z" fill="white"/>
<path d="M67 30H78.5C84.8651 30 90 35.1349 90 41.5C90 47.8651 84.8651 53 78.5 53H67V30Z" fill="#E7E7E7"/>
<path d="M90 64.5C90 70.8651 84.8651 76 78.5 76C72.1349 76 67 70.8651 67 64.5C67 58.1349 72.1349 53 78.5 53C84.8651 53 90 58.1349 90 64.5Z" fill="white"/>
</svg>
