<svg width="128" height="128" viewBox="0 0 128 128" fill="none" xmlns="http://www.w3.org/2000/svg">
<path d="M36.031 87.9313L45.6315 26.499C45.689 26.1319 45.8604 25.7921 46.1215 25.5276C46.3826 25.2631 46.7201 25.0874 47.0865 25.0252C47.4528 24.9629 47.8295 25.0174 48.1632 25.1808C48.497 25.3442 48.771 25.6084 48.9465 25.9359L58.8754 44.4545L62.8326 36.9191C62.9831 36.6333 63.2088 36.394 63.4853 36.227C63.7618 36.0601 64.0787 35.9719 64.4017 35.9719C64.7247 35.9719 65.0416 36.0601 65.3182 36.227C65.5947 36.394 65.8204 36.6333 65.9708 36.9191L92.7645 87.9313H36.031Z" fill="#EFEFEF"/>
<path d="M69.198 64.001L58.8705 44.4453L36.031 87.9313L69.198 64.001Z" fill="#C6C6C6"/>
<path d="M92.7645 87.9313L85.4113 42.4289C85.3568 42.1082 85.2152 41.8087 85.002 41.5631C84.7888 41.3174 84.5122 41.135 84.2024 41.0359C83.8926 40.9369 83.5615 40.9252 83.2455 41.0019C82.9295 41.0787 82.6407 41.241 82.4108 41.471L36.031 87.9307L61.6943 102.323C62.4869 102.765 63.3795 102.997 64.2872 102.997C65.1949 102.997 66.0875 102.765 66.88 102.323L92.7645 87.9313Z" fill="white"/>
<path d="M85.4114 42.4289C85.3569 42.1082 85.2153 41.8087 85.0021 41.5631C84.7888 41.3174 84.5122 41.1351 84.2024 41.0359C83.8927 40.9369 83.5617 40.925 83.2457 41.0016C82.9297 41.0783 82.6408 41.2405 82.4109 41.4704L73.2053 50.7004L65.9666 36.9191C65.8162 36.6332 65.5905 36.3939 65.314 36.227C65.0374 36.0601 64.7205 35.9718 64.3975 35.9718C64.0745 35.9718 63.7576 36.0601 63.4811 36.227C63.2046 36.3939 62.9789 36.6332 62.8284 36.9191L58.8712 44.4538L48.9423 25.9359C48.7665 25.6079 48.4921 25.3435 48.1578 25.1801C47.8234 25.0167 47.4462 24.9626 47.0794 25.0255C46.7128 25.0881 46.3752 25.2646 46.1145 25.5298C45.8537 25.795 45.6831 26.1356 45.6267 26.5032L36.0311 87.9313H36L36.0305 87.9666L36.2834 88.0909L82.3975 41.9232C82.6275 41.6922 82.9167 41.529 83.2333 41.4517C83.5499 41.3743 83.8818 41.3857 84.1923 41.4847C84.5029 41.5836 84.7802 41.7662 84.9938 42.0124C85.2073 42.2587 85.3489 42.559 85.4029 42.8805L92.6939 87.9751L92.7646 87.9307L85.4114 42.4289ZM36.1152 87.8472L45.631 26.9377C45.6875 26.57 45.8583 26.2293 46.1191 25.964C46.3799 25.6987 46.7176 25.5222 47.0843 25.4594C47.4511 25.3966 47.8284 25.4508 48.1627 25.6143C48.497 25.7778 48.7714 26.0423 48.9471 26.3704L58.8749 44.8889L62.8327 37.3535C62.9832 37.0677 63.2088 36.8284 63.4854 36.6615C63.7619 36.4945 64.0788 36.4063 64.4018 36.4063C64.7248 36.4063 65.0417 36.4945 65.3182 36.6615C65.5948 36.8284 65.8204 37.0677 65.9709 37.3535L73.0627 50.8418L36.114 87.8472H36.1152Z" fill="white"/>
<path opacity="0.2" d="M66.8798 101.888C66.0872 102.331 65.1946 102.563 64.2869 102.563C63.3792 102.563 62.4866 102.331 61.6941 101.888L36.0917 87.5377L36.0295 87.932L61.6929 102.319C62.4854 102.762 63.378 102.994 64.2857 102.994C65.1934 102.994 66.086 102.762 66.8785 102.319L92.7643 87.932L92.6973 87.5237L66.8785 101.889L66.8798 101.888Z" fill="white"/>
</svg>
