<svg width="128" height="128" viewBox="0 0 128 128" fill="none" xmlns="http://www.w3.org/2000/svg">
<path d="M98.2226 50.6063V95.2201H86.3064V50.6063H98.2226ZM85.5642 38.9787C85.5642 37.247 86.169 35.8176 87.3784 34.6905C88.5879 33.5635 90.2098 33 92.2439 33C94.2506 33 95.8586 33.5635 97.0681 34.6905C98.3051 35.8176 98.9236 37.247 98.9236 38.9787C98.9236 40.7105 98.3051 42.1399 97.0681 43.2669C95.8586 44.394 94.2506 44.9575 92.2439 44.9575C90.2098 44.9575 88.5879 44.394 87.3784 43.2669C86.169 42.1399 85.5642 40.7105 85.5642 38.9787Z" fill="white"/>
<path d="M57.4813 45.4522L41.1532 95.22H28L50.3069 35.1853H58.6771L57.4813 45.4522ZM71.0469 95.22L54.6775 45.4522L53.3581 35.1853H61.8108L84.2413 95.22H71.0469ZM70.3047 72.8719V82.5616H38.5968V72.8719H70.3047Z" fill="white"/>
</svg>
