<svg width="128" height="128" viewBox="0 0 128 128" fill="none" xmlns="http://www.w3.org/2000/svg">
<path fill-rule="evenodd" clip-rule="evenodd" d="M69.028 49.353L68.9635 32H59.2871L59.3516 49.353L64.1898 55.9974L69.028 49.353ZM59.3516 79.0917V96.5092H69.028V79.0917L64.1898 72.4473L59.3516 79.0917Z" fill="white"/>
<path fill-rule="evenodd" clip-rule="evenodd" d="M69.028 79.0917L79.2205 93.1547L87.0261 87.4779L76.8336 73.4149L69.028 70.899V79.0917ZM59.3516 49.3529L49.0947 35.2899L41.2891 40.9667L51.4815 55.0297L59.3516 57.5456V49.3529Z" fill="white"/>
<path fill-rule="evenodd" clip-rule="evenodd" d="M51.4818 55.0298L34.9674 49.6755L32 58.8358L48.5144 64.2546L56.32 61.6742L51.4818 55.0298ZM71.9957 66.7705L76.8339 73.4149L93.3483 78.7692L96.3157 69.6089L79.8013 64.2546L71.9957 66.7705Z" fill="white"/>
<path fill-rule="evenodd" clip-rule="evenodd" d="M79.8013 64.2546L96.3157 58.8358L93.3483 49.6755L76.8339 55.0298L71.9957 61.6742L79.8013 64.2546ZM48.5144 64.2546L32 69.6089L34.9674 78.7692L51.4818 73.4149L56.32 66.7705L48.5144 64.2546Z" fill="white"/>
<path fill-rule="evenodd" clip-rule="evenodd" d="M51.4815 73.4149L41.2891 87.4779L49.0947 93.1547L59.3516 79.0917V70.899L51.4815 73.4149ZM76.8336 55.0297L87.0261 40.9667L79.2205 35.2899L69.028 49.3529V57.5456L76.8336 55.0297Z" fill="white"/>
</svg>
