<svg width="128" height="128" viewBox="0 0 128 128" fill="none" xmlns="http://www.w3.org/2000/svg">
<path d="M63.2817 100.28C62.8946 100.28 62.5053 100.183 62.1505 99.9893L58.5957 97.8882C58.0774 97.5979 58.3377 97.5012 58.499 97.4367C59.2109 97.1786 59.3399 97.1464 60.1163 96.6925C60.1808 96.6603 60.3098 96.6603 60.3743 96.7248L63.1227 98.3421C63.2195 98.4066 63.3485 98.4066 63.4453 98.3421L74.1119 92.2001C74.2086 92.1356 74.2731 92.0389 74.2731 91.9098V79.626C74.2731 79.4969 74.2086 79.4002 74.1119 79.3357L63.4775 73.1937C63.3808 73.1292 63.2517 73.1292 63.155 73.1937L52.5206 79.3357C52.4239 79.4002 52.3593 79.4969 52.3593 79.626V91.9098C52.3593 92.0389 52.4239 92.1356 52.5206 92.2001L55.4303 93.8819C57.0153 94.6905 57.9829 93.7529 57.9829 92.8152V80.6281C57.9829 80.4668 58.1119 80.3378 58.3055 80.3378H59.6624C59.8237 80.3378 59.9527 80.4668 59.9527 80.6281V92.783C59.9527 94.8841 58.7893 96.112 56.785 96.112C56.1698 96.112 55.686 96.112 54.3291 95.4324L51.5484 93.8151C50.8688 93.4281 50.4172 92.6839 50.4172 91.8753V79.5914C50.4172 78.7828 50.8365 78.0409 51.5484 77.6516L62.215 71.5096C62.8946 71.1226 63.8 71.1226 64.4451 71.5096L75.1117 77.6516C75.7914 78.0386 76.2429 78.7828 76.2429 79.5914V91.8753C76.2429 92.6839 75.8236 93.4257 75.1117 93.8151L64.4451 99.957C64.0581 100.151 63.671 100.28 63.2817 100.28Z" fill="white"/>
<path d="M66.5809 91.8108C61.9272 91.8108 60.9573 89.6775 60.9573 87.8667C60.9573 87.7055 61.0863 87.5765 61.2798 87.5765H62.669C62.8303 87.5765 62.9593 87.6732 62.9593 87.8345C63.1528 89.2237 63.8002 89.9355 66.6131 89.9355C68.8432 89.9355 69.8131 89.4172 69.8131 88.2215C69.8131 87.5419 69.5551 87.0258 66.0625 86.671C63.1528 86.3808 61.342 85.7334 61.342 83.4066C61.342 81.241 63.1528 79.9808 66.1915 79.9808C69.6173 79.9808 71.2991 81.1765 71.4926 83.6991C71.4926 83.7959 71.4603 83.8604 71.3958 83.9249C71.3313 83.9894 71.2668 84.0217 71.17 84.0217H69.7808C69.6518 84.0217 69.5228 83.9249 69.4906 83.7959C69.168 82.3099 68.3594 81.8561 66.1616 81.8561C63.7057 81.8561 63.4131 82.697 63.4131 83.3421C63.4131 84.1184 63.7357 84.3442 67.067 84.7958C70.3315 85.215 71.8842 85.8302 71.8842 88.157C71.8819 90.4839 69.9421 91.8108 66.5809 91.8108ZM79.5421 78.7828H79.8969C80.1871 78.7828 80.2517 78.5893 80.2517 78.4603C80.2517 78.1378 80.0259 78.1378 79.9291 78.1378H79.5743L79.5421 78.7828ZM79.0905 77.7484H79.8992C80.1572 77.7484 80.7078 77.7484 80.7078 78.3635C80.7078 78.7828 80.4498 78.8819 80.2885 78.9141C80.611 78.9464 80.611 79.1399 80.6755 79.4302C80.7078 79.6237 80.7401 79.9462 80.8046 80.0453H80.3208C80.3208 79.9485 80.224 79.3657 80.224 79.3334C80.1918 79.2044 80.1595 79.1399 79.9982 79.1399H79.6112V80.0776H79.1596V77.7507H79.0905V77.7484ZM78.1529 78.9118C78.1529 79.8817 78.9293 80.6259 79.8669 80.6259C80.8368 80.6259 81.5809 79.8495 81.5809 78.9118C81.5809 77.9419 80.8046 77.1978 79.8669 77.1978C78.927 77.2001 78.1529 77.9419 78.1529 78.9118ZM81.9334 78.9118C81.9334 80.043 80.9958 80.9807 79.8646 80.9807C78.7334 80.9807 77.7958 80.0753 77.7958 78.9118C77.7958 77.7484 78.7657 76.843 79.8646 76.843C80.9635 76.8753 81.9334 77.7484 81.9334 78.9118Z" fill="white"/>
<path d="M30.2774 52.1462C30.2774 51.6624 30.0193 51.2085 29.5977 50.9505L18.316 44.4538C18.1225 44.357 17.8967 44.2925 17.7009 44.2603H17.5719C17.3461 44.2603 17.1526 44.3248 16.9568 44.4538L5.67962 50.9505C5.26033 51.2085 5 51.6624 5 52.1462L5.03225 69.6666C5.03225 69.9247 5.16127 70.1504 5.35479 70.2495C5.54831 70.3785 5.83859 70.3785 6.03441 70.2495L12.7247 66.4021C13.144 66.1441 13.4043 65.6903 13.4043 65.2065V57.028C13.4043 56.5442 13.6623 56.0903 14.0839 55.8323L16.9291 54.1828C17.1549 54.0537 17.3807 53.9892 17.6087 53.9892C17.8368 53.9892 18.0925 54.0537 18.2884 54.1828L21.1336 55.8323C21.5528 56.0903 21.8132 56.5119 21.8132 57.028V65.2065C21.8132 65.6903 22.0712 66.1441 22.4928 66.4021L29.2153 70.2495C29.4411 70.3785 29.6991 70.3785 29.8949 70.2495C30.0884 70.1205 30.2175 69.8947 30.2175 69.6666L30.2774 52.1462ZM83.5828 61.2623C83.5828 61.3914 83.5183 61.4881 83.4216 61.5526L79.5419 63.7827C79.4452 63.8472 79.3162 63.8472 79.1872 63.7827L75.3076 61.5526C75.2108 61.4881 75.1463 61.3914 75.1463 61.2623V56.7699C75.1463 56.6409 75.2108 56.5442 75.3076 56.4796L79.1872 54.2496C79.2839 54.1851 79.4129 54.1851 79.5419 54.2496L83.4216 56.4796C83.5183 56.5442 83.5828 56.6409 83.5828 56.7699V61.2623ZM84.6495 28.0968C84.4237 27.9677 84.1657 27.9677 83.9699 28.0968C83.774 28.2258 83.6473 28.4515 83.6473 28.6796V46.0388C83.6473 46.2001 83.5506 46.3613 83.4216 46.4581C83.2603 46.5549 83.099 46.5549 82.9378 46.4581L80.0926 44.8408C79.6733 44.5828 79.1549 44.5828 78.7356 44.8408L67.4216 51.3698C67.0023 51.6278 66.742 52.0494 66.742 52.5332V65.5935C66.742 66.0773 67 66.5312 67.4216 66.7892L78.7356 73.3182C79.1549 73.5762 79.6733 73.5762 80.0926 73.3182L91.4065 66.7892C91.8258 66.5312 92.0862 66.1096 92.0862 65.5935V33.043C92.0862 32.5592 91.8281 32.1054 91.3743 31.8474L84.6495 28.0968ZM122.275 56.6732C122.695 56.4151 122.955 55.9935 122.955 55.5097V52.342C122.955 51.8582 122.697 51.4044 122.275 51.1463L111.058 44.6173C110.639 44.3593 110.12 44.3593 109.701 44.6173L98.3871 51.1463C97.9678 51.4044 97.7075 51.826 97.7075 52.342V65.37C97.7075 65.8538 97.9655 66.3077 98.3871 66.5657L109.604 72.9657C110.024 73.1915 110.51 73.1915 110.929 72.9657L117.718 69.1828C117.944 69.0538 118.073 68.828 118.073 68.6C118.073 68.3419 117.944 68.1162 117.718 68.0171L106.34 61.4881C106.114 61.3591 105.985 61.1333 105.985 60.9053V56.7999C105.985 56.5419 106.114 56.3161 106.34 56.217L109.862 54.1805C110.088 54.0514 110.346 54.0514 110.542 54.1805L114.064 56.217C114.29 56.346 114.419 56.5718 114.419 56.7999V60.0321C114.419 60.2901 114.548 60.5159 114.774 60.615C115 60.744 115.258 60.744 115.454 60.615L122.275 56.6732Z" fill="white"/>
<path d="M110.187 56.058C110.252 56.0258 110.381 56.0258 110.445 56.058L112.611 57.3182C112.708 57.3504 112.74 57.4472 112.74 57.544V60.0321C112.74 60.1288 112.675 60.2256 112.611 60.2578L110.445 61.518C110.348 61.5503 110.252 61.5503 110.187 61.518L108.022 60.2578C107.925 60.2256 107.893 60.1288 107.893 60.0321V57.544C107.893 57.4472 107.925 57.3504 108.022 57.3182L110.187 56.058Z" fill="white"/>
<path d="M49.599 45.1757C49.4022 45.0606 49.1794 45 48.9526 45C48.7258 45 48.503 45.0606 48.3062 45.1757L37.6341 51.5055C37.2281 51.74 37 52.1826 37 52.6518V65.3373C37 65.8061 37.2534 66.2488 37.6336 66.4836L48.3058 72.8132C48.5026 72.9283 48.7254 72.9889 48.9523 72.9889C49.1791 72.9889 49.402 72.9283 49.5988 72.8132L60.2709 66.4833C60.6766 66.2488 60.9045 65.8061 60.9045 65.337V52.6518C60.9045 52.1828 60.6511 51.7402 60.2709 51.5055L49.599 45.1757Z" fill="url(#paint0_linear_38_120)"/>
<path d="M60.2966 51.46L49.5739 45.1302C49.4686 45.0755 49.3581 45.0319 49.2442 45L37.2285 66.1252C37.3279 66.25 37.4481 66.3559 37.5835 66.438L48.3064 72.7676C48.6105 72.9498 48.9653 73.0021 49.295 72.8978L60.5755 51.6945C60.5014 51.5954 60.406 51.5152 60.2966 51.46Z" fill="url(#paint1_linear_38_120)"/>
<path d="M60.3664 66.4877C60.6706 66.3055 60.8987 65.9929 61 65.6543L49.2633 45.0237C48.9591 44.9716 48.6294 44.9977 48.3507 45.1801L37.7039 51.4839L49.187 73C49.3391 72.9737 49.5169 72.9217 49.669 72.8436L60.3664 66.4877Z" fill="url(#paint2_linear_38_120)"/>
<defs>
<linearGradient id="paint0_linear_38_120" x1="60.9301" y1="59.9143" x2="20.1516" y2="61.7679" gradientUnits="userSpaceOnUse">
<stop offset="0.445287" stop-color="white"/>
<stop offset="0.861396" stop-color="#484848" stop-opacity="0.429379"/>
<stop offset="1" stop-color="#1F1F1F" stop-opacity="0"/>
</linearGradient>
<linearGradient id="paint1_linear_38_120" x1="43.3344" y1="68.7192" x2="67.3564" y2="42.8972" gradientUnits="userSpaceOnUse">
<stop offset="0.408654" stop-color="white"/>
<stop offset="0.954251" stop-color="#484848" stop-opacity="0.429379"/>
<stop offset="1" stop-color="#1F1F1F" stop-opacity="0"/>
</linearGradient>
<linearGradient id="paint2_linear_38_120" x1="69.0242" y1="61.5316" x2="15.5333" y2="61.5316" gradientUnits="userSpaceOnUse">
<stop offset="0.246395" stop-color="white"/>
<stop offset="0.82297" stop-color="#484848" stop-opacity="0.429379"/>
<stop offset="1" stop-color="#1F1F1F" stop-opacity="0"/>
</linearGradient>
</defs>
</svg>
