<svg width="128" height="128" viewBox="0 0 128 128" fill="none" xmlns="http://www.w3.org/2000/svg">
<path d="M65.8014 25.4889C65.2422 25.1685 64.609 25 63.9646 25C63.3201 25 62.6869 25.1685 62.1278 25.4889L31.8018 43.102C30.6483 43.7545 30 44.9859 30 46.2916V81.5896C30 82.894 30.7201 84.1261 31.8006 84.7792L62.1266 102.392C62.6858 102.712 63.3191 102.881 63.9637 102.881C64.6082 102.881 65.2415 102.712 65.8007 102.392L96.1267 84.7786C97.2796 84.1261 97.9273 82.894 97.9273 81.589V46.2916C97.9273 44.9865 97.2072 43.7551 96.1267 43.102L65.8014 25.4889Z" fill="url(#paint0_linear_19_481)"/>
<path d="M96.1997 42.9752L65.7301 25.3622C65.4308 25.2101 65.117 25.0888 64.7933 25L30.6494 83.782C30.9318 84.1292 31.2733 84.4239 31.658 84.6525L62.1283 102.265C62.9927 102.772 64.0007 102.917 64.9375 102.627L96.9923 43.6278C96.7818 43.3522 96.5106 43.1289 96.1997 42.9752Z" fill="url(#paint1_linear_19_481)"/>
<path d="M96.398 84.7908C97.2624 84.2838 97.9107 83.4139 98.1986 82.4716L64.8473 25.0659C63.9829 24.921 63.0461 24.9935 62.2542 25.5011L32 43.0418L64.6306 102.912C65.0628 102.839 65.568 102.694 66.0002 102.476L96.398 84.7908Z" fill="url(#paint2_linear_19_481)"/>
<defs>
<linearGradient id="paint0_linear_19_481" x1="98" y1="66.5" x2="-17.8664" y2="71.8785" gradientUnits="userSpaceOnUse">
<stop offset="0.445287" stop-color="white"/>
<stop offset="0.861396" stop-color="#484848" stop-opacity="0.429379"/>
<stop offset="1" stop-color="#1F1F1F" stop-opacity="0"/>
</linearGradient>
<linearGradient id="paint1_linear_19_481" x1="48" y1="91" x2="114.727" y2="17.7511" gradientUnits="userSpaceOnUse">
<stop offset="0.408654" stop-color="white"/>
<stop offset="0.954251" stop-color="#484848" stop-opacity="0.429379"/>
<stop offset="1" stop-color="#1F1F1F" stop-opacity="0"/>
</linearGradient>
<linearGradient id="paint2_linear_19_481" x1="121" y1="71" x2="-31" y2="71" gradientUnits="userSpaceOnUse">
<stop offset="0.246395" stop-color="white"/>
<stop offset="0.82297" stop-color="#484848" stop-opacity="0.429379"/>
<stop offset="1" stop-color="#1F1F1F" stop-opacity="0"/>
</linearGradient>
</defs>
</svg>
