<svg width="128" height="128" viewBox="0 0 128 128" fill="none" xmlns="http://www.w3.org/2000/svg">
<rect x="11" y="11" width="106" height="106" rx="17" fill="white"/>
<rect x="30.9189" y="30.0002" width="66.1617" height="67.9995" rx="33.0808" fill="#EEEEEE"/>
<path fill-rule="evenodd" clip-rule="evenodd" d="M63.9184 30C45.1883 30 30 45.1849 30 63.9184C30 78.905 39.7187 91.6185 53.1955 96.1041C54.8901 96.4186 55.5124 95.3683 55.5124 94.4724C55.5124 93.6636 55.4809 90.9917 55.4663 88.1575C46.0302 90.2093 44.0391 84.1556 44.0391 84.1556C42.4961 80.2351 40.273 79.1926 40.273 79.1926C37.1951 77.0874 40.505 77.1312 40.505 77.1312C43.9104 77.37 45.7044 80.6265 45.7044 80.6265C48.7296 85.8108 53.6392 84.3123 55.5747 83.4462C55.8792 81.2539 56.7582 79.7571 57.7282 78.9101C50.1945 78.0535 42.2743 75.1446 42.2743 62.148C42.2743 58.4449 43.5998 55.4191 45.7696 53.0432C45.4169 52.1895 44.2559 48.7397 46.0976 44.0677C46.0976 44.0677 48.9453 43.1561 55.427 47.5445C58.1332 46.7924 61.0353 46.4144 63.9184 46.4014C66.7998 46.4144 69.7037 46.7912 72.4149 47.5433C78.8887 43.155 81.7331 44.0666 81.7331 44.0666C83.5793 48.738 82.4183 52.1884 82.0661 53.0421C84.2409 55.418 85.557 58.4438 85.557 62.1469C85.557 75.1744 77.6222 78.0423 70.0693 78.8825C71.2865 79.9351 72.3705 81.9998 72.3705 85.1638C72.3705 89.7021 72.3312 93.3547 72.3312 94.4718C72.3312 95.3744 72.9423 96.4321 74.661 96.099C88.13 91.609 97.8374 78.8994 97.8374 63.9184C97.8369 45.186 82.6503 30 63.9184 30Z" fill="#181616"/>
<path d="M42.8465 78.6989C42.7718 78.8674 42.5067 78.9179 42.2652 78.8028C42.018 78.6927 41.8804 78.463 41.9602 78.2939C42.0332 78.1198 42.2989 78.072 42.5443 78.1883C42.7914 78.2989 42.9319 78.5309 42.8459 78.6994L42.8465 78.6989ZM44.2203 80.2317C44.0591 80.3816 43.7429 80.312 43.5284 80.0744C43.3059 79.8385 43.2644 79.5223 43.4289 79.3701C43.5963 79.2207 43.903 79.2914 44.1254 79.5273C44.3467 79.7666 44.3905 80.08 44.2209 80.2322L44.2203 80.2317ZM45.5583 82.1846C45.3504 82.3295 45.0101 82.1942 44.8 81.8925C44.5922 81.5904 44.5922 81.2281 44.8056 81.0837C45.0151 80.9388 45.3504 81.0697 45.5639 81.3685C45.7706 81.6746 45.7706 82.0375 45.5583 82.1846ZM47.3899 84.0724C47.2045 84.2774 46.808 84.2224 46.5182 83.9432C46.2222 83.6697 46.1396 83.2804 46.3255 83.076C46.5142 82.8704 46.9125 82.9277 47.204 83.2052C47.5 83.4782 47.5893 83.868 47.391 84.0718L47.3899 84.0724ZM49.9174 85.1682C49.8348 85.4339 49.454 85.5547 49.0693 85.4412C48.6857 85.3249 48.4346 85.0143 48.5132 84.7459C48.5919 84.4779 48.9755 84.3527 49.3625 84.4734C49.7461 84.5891 49.9972 84.8981 49.9174 85.1682ZM52.6938 85.371C52.7033 85.6507 52.3775 85.8821 51.9748 85.8877C51.5687 85.8973 51.2402 85.6704 51.2362 85.3951C51.2362 85.1126 51.5553 84.884 51.9608 84.8762C52.3635 84.8689 52.6943 85.0935 52.6943 85.3704L52.6938 85.371ZM55.2764 84.9318C55.3247 85.2042 55.0444 85.4845 54.6439 85.5592C54.2507 85.6322 53.8856 85.4625 53.8351 85.1924C53.7868 84.9127 54.0721 84.6324 54.4653 84.5599C54.8663 84.4909 55.2258 84.6549 55.2764 84.9318Z" fill="#181616"/>
</svg>
