<svg width="128" height="128" viewBox="0 0 128 128" fill="none" xmlns="http://www.w3.org/2000/svg">
<rect x="11" y="11" width="106" height="106" rx="17" fill="white"/>
<path d="M33.6817 65.0274C33.6817 65.0274 60.9317 53.844 70.3824 49.9061C74.0054 48.331 86.2914 43.2904 86.2914 43.2904C86.2914 43.2904 91.9621 41.0853 91.4894 46.4407C91.3318 48.646 90.0718 56.3641 88.8117 64.7124C86.9215 76.5261 84.8738 89.4421 84.8738 89.4421C84.8738 89.4421 84.5588 93.0651 81.8811 93.6951C79.2034 94.3251 74.7928 91.49 74.0054 90.8598C73.3751 90.3874 62.1917 83.2991 58.0964 79.8338C56.9937 78.8887 55.7337 76.9987 58.2538 74.7934C63.9244 69.5954 70.6975 63.1374 74.7928 59.042C76.6831 57.1517 78.5731 52.7414 70.6974 58.0968C59.514 65.8151 48.488 73.0607 48.488 73.0607C48.488 73.0607 45.9677 74.6358 41.2424 73.2181C38.2153 72.3102 34.8652 71.2082 32.848 70.5333C31.6198 70.1224 30.0648 69.6499 29.9142 68.3636C29.8088 67.4633 30.5123 66.2643 33.6817 65.0274Z" fill="#1F1F1F"/>
</svg>
