<svg width="128" height="128" viewBox="0 0 128 128" fill="none" xmlns="http://www.w3.org/2000/svg">
<path d="M52.1062 101.702C55.4515 103.052 59.0859 103.85 62.8984 103.981C68.0609 104.159 72.9671 103.094 77.3546 101.069C72.0921 99.0031 67.3265 95.9781 63.2656 92.2188C60.6312 96.4391 56.7296 99.7719 52.1125 101.702H52.1062Z" fill="#FF9100"/>
<path d="M63.2579 92.2187C53.9751 83.6359 48.347 71.2094 48.8204 57.5828C48.8376 57.1391 48.8626 56.7 48.8861 56.2562C47.222 55.8234 45.4876 55.5641 43.7001 55.5047C41.1423 55.4156 38.6689 55.7297 36.3298 56.3922C33.8501 60.7312 32.3579 65.7094 32.1689 71.05C31.6892 84.8187 40.0189 96.8484 52.0939 101.708C56.7173 99.7781 60.6126 96.4516 63.247 92.225L63.2595 92.2187H63.2579Z" fill="#FFC400"/>
<path d="M63.2578 92.2188C65.4187 88.7672 66.7265 84.7187 66.875 80.3562C67.2781 68.8844 59.564 59.0094 48.8843 56.2578C48.8546 56.7016 48.8312 57.1406 48.8187 57.5844C48.3453 71.2109 53.975 83.6375 63.2562 92.2203L63.2578 92.2188Z" fill="#FF9100"/>
<path d="M65.686 24C59.6063 28.8719 54.8063 35.2953 51.8985 42.6937C50.2344 46.9328 49.1875 51.4844 48.886 56.2563C59.5657 59.0094 67.2782 68.8828 66.8766 80.3547C66.7219 84.7172 65.4141 88.7609 63.2594 92.2172C67.3266 95.9766 72.0922 98.9953 77.3485 101.067C87.9094 96.1828 95.3969 85.6813 95.836 73.2625C96.1141 65.2125 93.0235 58.0375 88.6547 51.9875C84.036 45.5828 65.6907 24.0062 65.6907 24.0062L65.686 24Z" fill="#DD2C00"/>
</svg>
