<svg width="128" height="128" viewBox="0 0 128 128" fill="none" xmlns="http://www.w3.org/2000/svg">
<path d="M102.49 60.4358L67.5612 25.5086C65.551 23.4971 62.2886 23.4971 60.2752 25.5086L53.0229 32.7622L62.2233 41.9626C64.3621 41.2408 66.8134 41.725 68.5175 43.4291C70.2304 45.1439 70.7108 47.6161 69.9712 49.7619L78.8383 58.6296C80.9835 57.8901 83.4595 58.3679 85.1718 60.084C87.5673 62.4776 87.5673 66.3579 85.1718 68.7528C84.6025 69.3223 83.9266 69.7741 83.1827 70.0824C82.4388 70.3906 81.6414 70.5493 80.8362 70.5493C80.0309 70.5493 79.2335 70.3906 78.4896 70.0824C77.7457 69.7741 77.0698 69.3223 76.5005 68.7528C75.6452 67.897 75.0622 66.8073 74.8249 65.6209C74.5875 64.4345 74.7064 63.2043 75.1665 62.0853L66.8977 53.8165L66.8964 75.5793C67.4963 75.8747 68.0441 76.266 68.5181 76.7377C70.9123 79.1313 70.9123 83.0103 68.5181 85.409C66.1233 87.8026 62.2417 87.8026 59.8494 85.409C57.4552 83.011 57.4552 79.1319 59.8494 76.7377C60.423 76.1632 61.1053 75.7086 61.8564 75.4006V53.4363C61.1046 53.129 60.4222 52.6741 59.8494 52.0985C58.0356 50.286 57.599 47.6244 58.5293 45.3962L49.4588 36.3257L25.509 60.2742C24.5428 61.2407 24 62.5514 24 63.9181C24 65.2847 24.5428 66.5955 25.509 67.562L60.4381 102.489C62.4496 104.501 65.7107 104.501 67.7253 102.489L102.49 67.7242C103.456 66.7574 103.999 65.4466 103.999 64.0799C103.999 62.7131 103.456 61.4024 102.49 60.4358Z" fill="#F34F29"/>
</svg>
