<svg width="128" height="128" viewBox="0 0 128 128" fill="none" xmlns="http://www.w3.org/2000/svg">
<path d="M45.8671 33.333C44.267 33.333 42.667 33.333 41.014 33.387C39.36 33.44 37.8131 33.44 36.3731 33.494C34.9331 33.547 33.6 33.547 32.32 33.6C31.093 33.653 30.24 33.653 29.333 33.653C28.96 33.653 28.8 33.866 28.8 34.24V89.12C28.8 89.6 29.0131 89.814 29.4401 89.814H39.787C40.16 89.76 40.4271 89.44 40.3731 89.067V71.947C41.3861 71.947 42.133 71.947 42.667 72C43.2 72.053 44.0531 72.053 45.333 72.053C49.7071 72.053 53.7071 71.573 57.333 70.24C60.8 68.96 63.787 66.72 65.92 63.733C68.053 60.747 69.1201 56.96 69.1201 52.373C69.1201 49.973 68.694 47.68 67.894 45.44C67.0469 43.1576 65.7189 41.0841 64 39.36C61.9719 37.3896 59.5305 35.8955 56.8531 34.986C53.8661 33.866 50.2401 33.333 45.8671 33.333ZM47.057 43.838C48.957 43.874 50.8071 44.206 52.5331 44.906C54.0801 45.493 55.36 46.56 56.267 47.946C57.1188 49.38 57.5444 51.0269 57.494 52.694C57.494 55.04 56.9601 56.854 55.84 58.187C54.666 59.52 53.173 60.534 51.467 61.014C49.493 61.654 47.413 61.973 45.333 61.973H42.5061C41.866 61.973 41.174 61.92 40.427 61.867V43.947C40.8 43.893 41.547 43.84 42.614 43.894C43.627 43.84 44.8531 43.84 46.2401 43.84C46.5131 43.833 46.786 43.832 47.057 43.838ZM91.7871 46.561C88.0001 46.561 84.8531 47.147 82.347 48.427C80.0541 49.494 78.0801 51.2 76.7471 53.333C75.5741 55.307 74.933 57.493 74.933 59.787C74.8873 61.6738 75.3088 63.5425 76.1601 65.227C77.1577 67.0205 78.5427 68.569 80.214 69.76C82.5603 71.3644 85.1062 72.6553 87.7871 73.6C90.4001 74.613 92.1601 75.413 93.0141 76.106C93.8671 76.8 94.2941 77.493 94.2941 78.24C94.2941 79.2 93.707 80.107 92.854 80.48C91.8941 80.96 90.4541 81.227 88.4271 81.227C86.2941 81.227 84.1601 80.96 82.1331 80.427C79.8058 79.9067 77.5744 79.025 75.52 77.814C75.36 77.707 75.2001 77.654 75.0401 77.761C74.8801 77.867 74.8271 78.08 74.8271 78.24V87.52C74.7741 87.947 75.0401 88.32 75.4141 88.533C77.1435 89.3411 78.9729 89.9151 80.854 90.24C83.254 90.72 85.6531 90.933 88.1061 90.933C91.9461 90.933 95.1471 90.347 97.7601 89.227C100.16 88.267 102.24 86.614 103.733 84.48C105.131 82.3818 105.856 79.9077 105.813 77.387C105.865 75.4828 105.444 73.5954 104.587 71.894C103.573 70.08 102.133 68.587 100.373 67.467C97.7982 65.8503 95.0414 64.5432 92.1601 63.573C90.8732 63.0407 89.6097 62.4535 88.3731 61.813C87.68 61.44 87.04 60.96 86.56 60.373C86.24 59.946 86.0271 59.467 86.0271 58.987C86.0271 58.507 86.1871 57.974 86.4531 57.547C86.8271 57.014 87.4131 56.64 88.1061 56.48C89.1201 56.214 90.2401 56.053 91.306 56.106C93.333 56.106 95.306 56.373 97.28 56.8C99.094 57.173 100.8 57.76 102.4 58.614C102.613 58.72 102.88 58.72 103.36 58.614C103.444 58.5525 103.511 58.472 103.558 58.3791C103.604 58.2863 103.628 58.1838 103.627 58.08V49.387C103.627 49.173 103.573 48.96 103.52 48.747C103.413 48.534 103.2 48.32 102.987 48.267C101.516 47.6654 99.9748 47.2531 98.4001 47.04C96.2101 46.7211 94.0001 46.5617 91.7871 46.561Z" fill="#31A8FF"/>
</svg>
