<svg width="128" height="128" viewBox="0 0 128 128" fill="none" xmlns="http://www.w3.org/2000/svg">
<path d="M64 71.1023C67.9224 71.1023 71.1022 67.9225 71.1022 64C71.1022 60.0775 67.9224 56.8978 64 56.8978C60.0775 56.8978 56.8977 60.0775 56.8977 64C56.8977 67.9225 60.0775 71.1023 64 71.1023Z" fill="#61DAFB"/>
<path d="M79.5125 28.8742C81.0502 28.8742 82.4109 29.1951 83.6462 29.9094H83.6472C85.7313 31.0818 87.1256 33.1727 87.8328 35.9856C88.539 38.7949 88.5659 42.3433 87.908 46.4787L87.907 46.4826C87.672 47.8338 87.3793 49.2396 87.0339 50.6496C88.0653 50.9571 89.0667 51.2901 90.0359 51.632L91.0789 52.0051L91.0837 52.007L91.8074 52.2932C95.3765 53.7368 98.1758 55.4314 100.118 57.3215C102.192 59.3405 103.3 61.5945 103.3 64.0002C103.299 66.4059 102.193 68.6599 100.118 70.6789C98.0473 72.6941 95.0022 74.4861 91.0886 75.9895L91.0896 75.9904C89.788 76.5229 88.4333 76.9414 87.0349 77.3518C87.2881 78.3858 87.5139 79.4173 87.7078 80.427L87.907 81.5178L87.908 81.5217L88.0232 82.2844C88.5598 86.0649 88.4949 89.3343 87.8328 91.968C87.1697 94.6052 85.9031 96.6196 84.032 97.8528L83.6501 98.0891C82.4138 98.8048 81.0517 99.1262 79.5125 99.1262C77.2613 99.1261 74.7329 98.2917 72.0759 96.7903C69.4815 95.3241 66.7472 93.2106 64.0007 90.5813C61.2841 93.2104 58.565 95.3241 55.9705 96.7903C53.3126 98.2921 50.7688 99.1262 48.4871 99.1262C46.9488 99.1262 45.5879 98.8048 44.3523 98.0901V98.091C42.2682 96.9187 40.8739 94.8278 40.1667 92.0149C39.4605 89.2055 39.4336 85.6572 40.0916 81.5217L40.0925 81.5178L40.2917 80.427C40.4857 79.4167 40.7102 78.3844 40.9636 77.3498C39.5589 76.931 38.2105 76.463 36.9216 75.9944L36.9158 75.9924C33.031 74.4886 29.985 72.6945 27.906 70.6789C25.8243 68.6607 24.7 66.4072 24.7 64.0002C24.7 61.5944 25.8078 59.3406 27.8826 57.3215C29.8247 55.4315 32.6232 53.7367 36.1921 52.2932L36.9158 52.007C38.2153 51.4758 39.5677 51.0574 40.9636 50.6477C40.6185 49.2384 40.3274 47.8331 40.0925 46.4826L40.0916 46.4787C39.4335 42.3739 39.4604 38.8408 40.1667 36.0315C40.8739 33.2188 42.2679 31.1148 44.3494 29.9113L44.5828 29.7815C45.7567 29.1564 47.044 28.8742 48.4871 28.8742C50.7382 28.8742 53.2665 29.7087 55.9236 31.2102C58.5183 32.6764 61.2531 34.7896 63.9998 37.4192C66.7464 34.7896 69.4812 32.6764 72.0759 31.2102C74.733 29.7087 77.2613 28.8743 79.5125 28.8742ZM44.9685 78.3098C44.6283 79.6363 44.3461 80.9016 44.1736 82.1096L44.1726 82.1154C43.6464 85.366 43.6044 88.1165 44.0007 90.2278C44.3734 92.2127 45.124 93.59 46.1804 94.3186L46.3962 94.4553L46.3982 94.4572L46.6179 94.5774C47.1423 94.8399 47.756 94.9748 48.4246 94.9748C50.2469 94.9748 52.3099 94.2262 54.5066 92.8928C56.635 91.6008 58.8649 89.772 61.0925 87.5959C58.9969 85.2466 56.9029 82.6655 54.865 79.7981C51.3972 79.4942 48.0984 79.0156 44.9685 78.3098ZM83.0291 78.3069C79.9049 78.9585 76.6066 79.4923 73.1345 79.7981C71.0995 82.6629 69.0051 85.2984 66.908 87.5969C69.1651 89.8019 71.41 91.6305 73.5388 92.9153C75.7356 94.241 77.7832 94.9748 79.575 94.9748C80.3392 94.9748 81.0319 94.7989 81.6013 94.4572L81.6042 94.4553L81.8191 94.3186C82.8756 93.59 83.6271 92.2128 83.9998 90.2278C84.3958 88.1182 84.3529 85.3704 83.8279 82.1233L83.4392 80.1184C83.3179 79.5251 83.1837 78.9219 83.0291 78.3069ZM67.6707 80.2112C66.4505 80.263 65.2255 80.3108 63.9998 80.3108C62.7736 80.3108 61.5484 80.263 60.3279 80.2112C61.5071 81.7419 62.7317 83.2206 63.9998 84.6106C65.2677 83.2208 66.4915 81.7418 67.6707 80.2112ZM64.0623 51.8401C61.7486 51.8401 59.4981 51.9001 57.2507 52.0774C55.9117 54.0286 54.6385 55.9744 53.5457 57.9172L53.5437 57.9201C52.3888 59.9261 51.2927 61.9912 50.3152 63.9992C51.1681 65.7513 52.1107 67.547 53.1042 69.3088L53.5437 70.0803L53.5457 70.0832L53.9705 70.8274C54.9521 72.5254 56.0244 74.2241 57.1882 75.9231C59.3755 76.1 61.6259 76.1604 63.9998 76.1604C66.3131 76.1604 68.5633 76.0993 70.8103 75.9221C71.9786 74.2197 73.0976 72.5221 74.0896 70.8264L74.5164 70.0832C75.6715 68.0162 76.7076 66.0079 77.7439 63.9963C76.7668 61.9894 75.6726 59.9249 74.5183 57.9201L74.5164 57.9172C73.4216 55.9709 72.207 54.0239 70.8728 52.0764C68.6858 51.8995 66.4357 51.8401 64.0623 51.8401ZM79.9138 68.8664C79.3306 69.9391 78.7328 71.0592 78.0955 72.175L78.0964 72.176C77.5096 73.2963 76.8313 74.3706 76.1853 75.3899C78.1938 75.113 80.107 74.7863 81.9265 74.3713C81.3316 72.5494 80.688 70.728 79.9138 68.8664ZM48.0867 68.8039C47.3139 70.6701 46.6692 72.5297 46.074 74.3088C47.898 74.7248 49.8159 75.053 51.8298 75.3303C51.1938 74.2813 50.5524 73.2401 49.9119 72.0666L49.3591 71.1174C48.9215 70.3462 48.5006 69.5645 48.0867 68.8039ZM42.0613 54.7102C40.791 55.0645 39.531 55.4702 38.3816 55.9299L38.3738 55.9328C35.2792 57.0778 32.8687 58.4175 31.238 59.8195C29.6024 61.226 28.7888 62.6615 28.7888 64.0002C28.7889 65.5942 29.9776 67.3226 32.322 68.9885C34.6013 70.608 37.9114 72.1208 42.0583 73.3469C42.9796 70.3414 44.2363 67.2268 45.6658 64.0617C44.2343 60.8873 43.0336 57.715 42.0613 54.7102ZM85.9402 54.6526C85.019 57.6581 83.7622 60.7726 82.3328 63.9377C83.7643 67.1121 84.9649 70.2844 85.9373 73.2893C87.208 72.9348 88.4691 72.5295 89.6189 72.0695L89.6248 72.0676L90.1921 71.8508C92.9872 70.7551 95.2016 69.4948 96.738 68.1799C98.3828 66.7723 99.2106 65.3373 99.2107 64.0002C99.2107 62.4061 98.0223 60.677 95.6775 59.011C93.398 57.3913 90.0877 55.8787 85.9402 54.6526ZM78.0876 55.8713L78.6414 56.8225C79.0805 57.5987 79.5013 58.3912 79.9177 59.1838C80.6884 57.3213 81.3315 55.4653 81.9255 53.6897C80.1007 53.2735 78.1817 52.9456 76.1667 52.6682L78.0876 55.8713ZM51.8132 52.6086C49.8047 52.8855 47.8916 53.2131 46.072 53.6281C46.6669 55.4498 47.3107 57.2707 48.0847 59.132C48.6693 58.0569 49.2689 56.9341 49.908 55.8156C50.4939 54.6982 51.1687 53.6255 51.8132 52.6086ZM48.4246 33.0256C47.6604 33.0256 46.9676 33.2015 46.3982 33.5432L46.3962 33.5451C45.2264 34.2299 44.3982 35.6555 44.0007 37.7727C43.6047 39.8823 43.6465 42.63 44.1716 45.8772L44.5603 47.882C44.6816 48.4749 44.815 49.0779 44.9695 49.6926C48.0936 49.0409 51.392 48.5072 54.864 48.2014C56.8991 45.3364 58.9933 42.7002 61.0906 40.4016C58.8338 38.1971 56.5891 36.3687 54.4607 35.0842C52.264 33.7585 50.2163 33.0256 48.4246 33.0256ZM79.575 33.0256C77.7525 33.0256 75.6897 33.7741 73.4929 35.1076C71.3646 36.3996 69.1345 38.2275 66.907 40.4035C69.0026 42.7528 71.0966 45.334 73.1345 48.2014C76.6022 48.5053 79.9012 48.9829 83.031 49.6887C83.371 48.3629 83.6534 47.0982 83.8259 45.8908L83.8269 45.885L83.9197 45.2815C84.3566 42.2932 84.3713 39.752 83.9998 37.7727C83.6023 35.6557 82.7739 34.23 81.6042 33.5451L81.6013 33.5432C81.0319 33.2015 80.3392 33.0256 79.575 33.0256ZM63.9998 43.3879C62.7317 44.7778 61.5071 46.2566 60.3279 47.7873C61.5484 47.7354 62.7736 47.6887 63.9998 47.6887C65.2255 47.6887 66.4505 47.7354 67.6707 47.7873C66.4915 46.2567 65.2677 44.7777 63.9998 43.3879Z" fill="#61DAFB" stroke="#61DAFB" stroke-width="0.6"/>
</svg>
