<svg width="128" height="128" viewBox="0 0 128 128" fill="none" xmlns="http://www.w3.org/2000/svg">
<path d="M101.529 55.9921C101.529 50.9361 95.197 46.1445 85.4893 43.1732C87.7296 33.2789 86.734 25.407 82.3466 22.8867C81.3353 22.2955 80.1533 22.0155 78.862 22.0155V25.4848C79.5775 25.4848 80.1533 25.6248 80.6354 25.8892C82.7512 27.1027 83.6692 31.7231 82.9533 37.6659C82.7825 39.1283 82.5025 40.6684 82.1601 42.2397C79.1107 41.493 75.7816 40.9174 72.2813 40.544C70.1812 37.6659 68.0032 35.0523 65.8095 32.7655C70.8811 28.0517 75.6417 25.4692 78.8776 25.4692V22C74.5992 22 68.9988 25.0492 63.3361 30.3385C57.6731 25.0803 52.0727 22.0622 47.7946 22.0622V25.5314C51.0149 25.5314 55.7908 28.0984 60.8624 32.781C58.6844 35.0679 56.5064 37.6659 54.4372 40.544C50.9213 40.9174 47.5921 41.493 44.5431 42.2553C44.1851 40.6996 43.9207 39.1905 43.7339 37.7437C43.003 31.8009 43.9051 27.1805 46.0055 25.9515C46.472 25.6714 47.0787 25.547 47.7946 25.547V22.0777C46.4877 22.0777 45.3052 22.3578 44.2787 22.9489C39.907 25.4692 38.927 33.3255 41.1826 43.1887C31.5062 46.1757 25.2056 50.9517 25.2056 55.9921C25.2056 61.0484 31.5373 65.84 41.2449 68.8111C39.0046 78.7056 40.0002 86.5773 44.3876 89.0976C45.3988 89.6886 46.5809 89.9687 47.8878 89.9687C52.166 89.9687 57.7667 86.9196 63.4294 81.6302C69.092 86.8886 74.6927 89.9067 78.9709 89.9067C80.2775 89.9067 81.4599 89.6267 82.4868 89.0353C86.8582 86.515 87.8385 78.6587 85.5825 68.7958C95.2279 65.8243 101.529 61.0327 101.529 55.9921ZM81.2734 45.6156C80.6977 47.6226 79.9821 49.6914 79.173 51.7605C78.5353 50.5162 77.8664 49.2715 77.1351 48.0268C76.4196 46.7824 75.657 45.569 74.8948 44.3866C77.1038 44.7133 79.2352 45.1178 81.2734 45.6156ZM74.148 62.1838C72.9346 64.2843 71.6903 66.2755 70.399 68.1269C68.0807 68.329 65.7319 68.4379 63.3671 68.4379C61.0179 68.4379 58.6687 68.329 56.3665 68.1422C55.0752 66.2908 53.8149 64.3152 52.6015 62.2304C51.4191 60.1926 50.3459 58.1235 49.3656 56.039C50.3302 53.9542 51.4191 51.8694 52.5862 49.8316C53.7996 47.7315 55.0439 45.7401 56.3352 43.8888C58.6534 43.6865 61.0023 43.5776 63.3671 43.5776C65.7163 43.5776 68.0654 43.6865 70.3676 43.8732C71.6589 45.7245 72.9193 47.7002 74.1327 49.785C75.3151 51.8228 76.3883 53.892 77.3686 55.9767C76.3883 58.0612 75.3151 60.146 74.148 62.1838ZM79.173 60.1616C79.9896 62.189 80.7062 64.2553 81.32 66.3531C79.2819 66.8509 77.1351 67.2711 74.9105 67.5977C75.6727 66.4 76.4349 65.171 77.1508 63.9107C77.8664 62.6663 78.5353 61.406 79.173 60.1616ZM63.398 76.761C61.9512 75.2673 60.5044 73.6027 59.0733 71.7826C60.4735 71.8449 61.9046 71.8915 63.3514 71.8915C64.8139 71.8915 66.2607 71.8606 67.6765 71.7826C66.3411 73.518 64.9129 75.1799 63.398 76.761ZM51.8237 67.5977C49.6147 67.2711 47.4833 66.8665 45.4454 66.3687C46.0208 64.3618 46.7367 62.2927 47.5455 60.2236C48.1835 61.4682 48.8525 62.7129 49.5834 63.9573C50.3146 65.202 51.0615 66.4153 51.8237 67.5977ZM63.3205 35.2235C64.7673 36.7169 66.2141 38.3816 67.6452 40.2017C66.245 40.1395 64.8139 40.0929 63.3671 40.0929C61.9046 40.0929 60.4578 40.124 59.0423 40.2017C60.3776 38.4664 61.8058 36.8046 63.3205 35.2235ZM51.808 44.3866C51.0458 45.5845 50.2836 46.8135 49.5681 48.0735C48.8525 49.3181 48.1835 50.5628 47.5455 51.8072C46.7288 49.7798 46.0124 47.7134 45.3988 45.6156C47.4366 45.1333 49.5834 44.7133 51.808 44.3866ZM37.7289 63.864C32.2218 61.5149 28.6592 58.4348 28.6592 55.9921C28.6592 53.5496 32.2218 50.4539 37.7289 48.1204C39.0669 47.5447 40.5293 47.0313 42.0384 46.549C42.9251 49.5982 44.0919 52.7718 45.5387 56.0234C44.1075 59.2593 42.9561 62.4172 42.085 65.451C40.545 64.9685 39.0825 64.4398 37.7289 63.864ZM46.0987 86.0951C43.983 84.8817 43.0649 80.2613 43.7809 74.3183C43.952 72.8562 44.2317 71.3158 44.574 69.7445C47.6235 70.4913 50.9526 71.0671 54.4529 71.4403C56.553 74.3183 58.731 76.9318 60.9247 79.2187C55.8531 83.9328 51.0924 86.515 47.8565 86.515C47.1566 86.4997 46.5656 86.3595 46.0987 86.0951ZM83.0003 74.2407C83.7311 80.1834 82.8291 84.8038 80.7287 86.0329C80.2622 86.3129 79.6555 86.4374 78.9395 86.4374C75.7193 86.4374 70.9434 83.8705 65.8718 79.1878C68.0498 76.9009 70.2278 74.303 72.2969 71.4247C75.8129 71.0514 79.142 70.4757 82.1911 69.7135C82.5491 71.2848 82.8291 72.7939 83.0003 74.2407ZM88.9896 63.864C87.6516 64.4398 86.1892 64.9532 84.6801 65.4354C83.7934 62.3863 82.6266 59.2126 81.1798 55.9611C82.6113 52.7252 83.7624 49.5672 84.6335 46.5335C86.1739 47.0157 87.636 47.5447 89.0052 48.1204C94.5124 50.4692 98.0749 53.5496 98.0749 55.9921C98.0593 58.4348 94.4967 61.5305 88.9896 63.864Z" fill="#61DAFB"/>
<path d="M63.3515 63.1018C67.2783 63.1018 70.4613 59.9188 70.4613 55.992C70.4613 52.0656 67.2783 48.8826 63.3515 48.8826C59.4251 48.8826 56.2421 52.0656 56.2421 55.992C56.2421 59.9188 59.4251 63.1018 63.3515 63.1018ZM28.6713 102.21H26.3244V106.252H25V96.2603H28.3076C29.433 96.2603 30.2977 96.5166 30.9016 97.029C31.51 97.5411 31.8143 98.287 31.8143 99.2659C31.8143 99.8882 31.645 100.43 31.3065 100.893C30.9725 101.354 30.5059 101.7 29.9066 101.928L32.2535 106.169V106.252H30.8398L28.6713 102.21ZM26.3244 101.133H28.3488C29.003 101.133 29.5223 100.963 29.9066 100.625C30.2954 100.286 30.4898 99.8332 30.4898 99.2659C30.4898 98.6484 30.3046 98.1749 29.934 97.8455C29.568 97.5161 29.0373 97.3491 28.3419 97.3446H26.3244V101.133ZM36.5494 106.389C35.5428 106.389 34.7239 106.06 34.0926 105.401C33.4612 104.738 33.1456 103.852 33.1456 102.745V102.512C33.1456 101.775 33.2851 101.119 33.5641 100.543C33.8478 99.9613 34.2412 99.5083 34.7445 99.1838C35.2523 98.8543 35.8013 98.6894 36.3914 98.6894C37.3568 98.6894 38.1072 99.0074 38.6422 99.6433C39.1776 100.279 39.4451 101.19 39.4451 102.374V102.903H34.4151C34.4334 103.635 34.6461 104.228 35.0533 104.68C35.465 105.129 35.9866 105.353 36.6179 105.353C37.0663 105.353 37.4459 105.261 37.7569 105.078C38.0682 104.895 38.3403 104.653 38.5737 104.351L39.3491 104.955C38.7267 105.911 37.7937 106.389 36.5494 106.389ZM36.3914 99.7327C35.8791 99.7327 35.449 99.9202 35.1013 100.295C34.7536 100.666 34.5386 101.188 34.4563 101.86H38.1757V101.764C38.1392 101.119 37.9652 100.62 37.6542 100.268C37.3429 99.9112 36.922 99.7327 36.3914 99.7327ZM45.5047 106.252C45.4313 106.105 45.3718 105.845 45.3262 105.469C44.7359 106.082 44.0314 106.389 43.2125 106.389C42.4806 106.389 41.8792 106.183 41.4078 105.771C40.9413 105.355 40.7079 104.829 40.7079 104.193C40.7079 103.42 41.0008 102.821 41.5862 102.395C42.1762 101.965 43.0045 101.75 44.0704 101.75H45.3057V101.167C45.3057 100.723 45.1728 100.371 44.9077 100.11C44.6423 99.8447 44.2509 99.7122 43.734 99.7122C43.2811 99.7122 42.9015 99.8263 42.5951 100.055C42.2886 100.284 42.1352 100.561 42.1352 100.886H40.8588C40.8588 100.515 40.9893 100.158 41.2498 99.8148C41.5153 99.4673 41.8722 99.1928 42.3206 98.9914C42.7735 98.7903 43.2696 98.6894 43.8095 98.6894C44.6653 98.6894 45.3353 98.9044 45.8202 99.3347C46.3051 99.7602 46.5566 100.348 46.5751 101.098V104.516C46.5751 105.197 46.662 105.739 46.836 106.142V106.252H45.5047ZM43.398 105.284C43.7959 105.284 44.1734 105.181 44.5303 104.975C44.8868 104.77 45.1453 104.502 45.3057 104.173V102.649H44.3104C42.7551 102.649 41.9772 103.104 41.9772 104.015C41.9772 104.413 42.1101 104.724 42.3752 104.948C42.6406 105.172 42.9816 105.284 43.398 105.284ZM51.5434 105.353C51.9963 105.353 52.3922 105.216 52.7307 104.941C53.0691 104.667 53.2566 104.324 53.2932 103.912H54.4944C54.4714 104.337 54.325 104.742 54.055 105.126C53.7851 105.511 53.4236 105.817 52.9707 106.046C52.5223 106.275 52.0467 106.389 51.5434 106.389C50.5325 106.389 49.7271 106.053 49.1278 105.38C48.5332 104.703 48.2358 103.779 48.2358 102.608V102.395C48.2358 101.672 48.3683 101.03 48.6338 100.467C48.8992 99.9042 49.2787 99.4673 49.7731 99.1563C50.2716 98.8449 50.8595 98.6894 51.5364 98.6894C52.3692 98.6894 53.0601 98.9389 53.609 99.4377C54.1625 99.9362 54.4575 100.584 54.4944 101.38H53.2932C53.2566 100.899 53.0737 100.506 52.7442 100.199C52.4197 99.8882 52.0168 99.7327 51.5364 99.7327C50.8915 99.7327 50.3905 99.9658 50.0336 100.433C49.6816 100.895 49.5052 101.565 49.5052 102.443V102.683C49.5052 103.539 49.6816 104.198 50.0336 104.66C50.386 105.122 50.8894 105.353 51.5434 105.353ZM57.644 97.029V98.8269H59.0303V99.8082H57.644V104.413C57.644 104.71 57.7059 104.934 57.8294 105.085C57.9529 105.232 58.1634 105.305 58.4608 105.305C58.6069 105.305 58.8083 105.277 59.0644 105.222V106.252C58.7304 106.343 58.4058 106.389 58.09 106.389C57.5229 106.389 57.0951 106.217 56.8067 105.874C56.5186 105.531 56.3746 105.044 56.3746 104.413V99.8082H55.0224V98.8269H56.3746V97.029H57.644ZM71.8834 106.252H70.5587L65.5289 98.5524V106.252H64.2045V96.2603H65.5289L70.5727 103.994V96.2603H71.8834V106.252ZM78.6085 106.252C78.5351 106.105 78.4756 105.845 78.43 105.469C77.8397 106.082 77.1352 106.389 76.3164 106.389C75.5844 106.389 74.9826 106.183 74.5116 105.771C74.0451 105.355 73.8117 104.829 73.8117 104.193C73.8117 103.42 74.1042 102.821 74.6901 102.395C75.28 101.965 76.1083 101.75 77.1742 101.75H78.4095V101.167C78.4095 100.723 78.2766 100.371 78.0112 100.11C77.7461 99.8447 77.3548 99.7122 76.8378 99.7122C76.3849 99.7122 76.0054 99.8263 75.6989 100.055C75.3924 100.284 75.239 100.561 75.239 100.886H73.9627C73.9627 100.515 74.0931 100.158 74.3537 99.8148C74.6191 99.4673 74.976 99.1928 75.4244 98.9914C75.8773 98.7903 76.3734 98.6894 76.9133 98.6894C77.7687 98.6894 78.4391 98.9044 78.924 99.3347C79.4089 99.7602 79.6604 100.348 79.6789 101.098V104.516C79.6789 105.197 79.7659 105.739 79.9398 106.142V106.252H78.6085ZM76.5018 105.284C76.8997 105.284 77.2772 105.181 77.6341 104.975C77.9907 104.77 78.2491 104.502 78.4095 104.173V102.649H77.4142C75.8589 102.649 75.0811 103.104 75.0811 104.015C75.0811 104.413 75.214 104.724 75.479 104.948C75.7445 105.172 76.0854 105.284 76.5018 105.284ZM83.3914 97.029V98.8269H84.7776V99.8082H83.3914V104.413C83.3914 104.71 83.4533 104.934 83.5768 105.085C83.7003 105.232 83.9107 105.305 84.2082 105.305C84.3543 105.305 84.5557 105.277 84.8121 105.222V106.252C84.4778 106.343 84.1532 106.389 83.8373 106.389C83.2703 106.389 82.8424 106.217 82.554 105.874C82.266 105.531 82.122 105.044 82.122 104.413V99.8082H80.7702V98.8269H82.122V97.029H83.3914ZM87.6462 106.252H86.3765V98.8269H87.6462V106.252ZM86.2735 96.8572C86.2735 96.6516 86.3354 96.4777 86.4589 96.3357C86.5869 96.1938 86.7744 96.1232 87.0214 96.1232C87.2687 96.1232 87.4562 96.1938 87.5843 96.3357C87.7123 96.4777 87.7763 96.6516 87.7763 96.8572C87.7763 97.0631 87.7123 97.2346 87.5843 97.3721C87.4562 97.5091 87.2687 97.578 87.0214 97.578C86.7744 97.578 86.5869 97.5091 86.4589 97.3721C86.3354 97.2346 86.2735 97.0631 86.2735 96.8572ZM92.1341 104.53L93.9729 98.8269H95.2701L92.6075 106.252H91.6398L88.95 98.8269H90.2469L92.1341 104.53ZM99.4766 106.389C98.4702 106.389 97.6513 106.06 97.0199 105.401C96.3885 104.738 96.073 103.852 96.073 102.745V102.512C96.073 101.775 96.2125 101.119 96.4915 100.543C96.775 99.9613 97.1685 99.5083 97.6719 99.1838C98.1797 98.8543 98.7287 98.6894 99.3187 98.6894C100.284 98.6894 101.034 99.0074 101.57 99.6433C102.105 100.279 102.373 101.19 102.373 102.374V102.903H97.3424C97.3608 103.635 97.5734 104.228 97.9808 104.68C98.3923 105.129 98.9141 105.353 99.5451 105.353C99.9936 105.353 100.373 105.261 100.684 105.078C100.995 104.895 101.268 104.653 101.501 104.351L102.277 104.955C101.654 105.911 100.721 106.389 99.4766 106.389ZM99.3187 99.7327C98.8066 99.7327 98.3763 99.9202 98.0288 100.295C97.6809 100.666 97.4659 101.188 97.3838 101.86H101.103V101.764C101.066 101.119 100.892 100.62 100.581 100.268C100.27 99.9112 99.8495 99.7327 99.3187 99.7327Z" fill="#61DAFB"/>
</svg>
