<svg width="128" height="128" viewBox="0 0 128 128" fill="none" xmlns="http://www.w3.org/2000/svg">
<path d="M64.0028 31C49.3351 31 40.1711 38.3309 36.5014 52.9986C42 45.6669 48.419 42.9176 55.7507 44.7507C59.9369 45.7941 62.9286 48.8295 66.2416 52.1933C71.6336 57.6652 77.8747 64 91.5043 64C106.171 64 115.336 56.6683 119.006 41.9971C113.506 49.3332 107.088 52.0824 99.7556 50.2493C95.5702 49.2051 92.582 46.1705 89.2646 42.8067C83.8761 37.3348 77.6367 31 64.0028 31ZM36.5014 64C21.8346 64 12.6697 71.3317 9 86.0029C14.4986 78.6669 20.9167 75.9176 28.2493 77.7507C32.4355 78.7949 35.4272 81.8295 38.7402 85.1933C44.1322 90.6652 50.3733 97 64.0028 97C78.6697 97 87.8346 89.6692 91.5043 75.0014C86.0049 82.3331 79.5867 85.0824 72.2541 83.2493C68.0688 82.206 65.0806 79.1705 61.7632 75.8067C56.3746 70.3348 50.1353 64 36.5014 64Z" fill="#38BDF8"/>
</svg>
