<svg width="128" height="128" viewBox="0 0 128 128" fill="none" xmlns="http://www.w3.org/2000/svg">
<path d="M30.2578 27.7871C30.3119 27.7943 30.3654 27.8052 30.418 27.8203L104.451 49.1348L104.587 49.1846C104.719 49.2424 104.84 49.3258 104.941 49.4307L105.034 49.541C105.12 49.6574 105.183 49.7903 105.218 49.9316C105.264 50.1198 105.26 50.3167 105.206 50.5029C105.166 50.6426 105.099 50.7729 105.009 50.8857L104.911 50.9932L49.3486 104.438C49.2437 104.539 49.1201 104.618 48.9854 104.671L48.8477 104.715C48.7064 104.75 48.56 104.756 48.417 104.734L48.2754 104.703C48.1356 104.663 48.0055 104.595 47.8926 104.505L47.7861 104.407C47.6853 104.302 47.6063 104.179 47.5537 104.044L47.5098 103.906L29.041 29.1465C29.0013 28.9855 28.9982 28.8176 29.0322 28.6553L29.0645 28.5352C29.1033 28.4176 29.1625 28.3076 29.2383 28.209L29.3193 28.1143C29.4052 28.0255 29.5054 27.9514 29.6162 27.8955C29.7644 27.8209 29.9279 27.7803 30.0938 27.7773L30.2578 27.7871ZM49.1963 101.518L101.999 50.7275L31.6436 30.4717L49.1963 101.518Z" fill="#4C4C4C" stroke="#4C4C4C" stroke-width="0.5"/>
<path d="M67.1396 38.436C67.3826 38.441 67.6178 38.5264 67.8076 38.6782L67.9395 38.8022C68.06 38.9364 68.1467 39.0989 68.1904 39.2758L77.4141 76.6674L77.4395 76.81C77.4501 76.9059 77.4481 77.0027 77.4336 77.0981L77.4023 77.2397C77.3484 77.4257 77.247 77.5947 77.1074 77.729C77.0028 77.8296 76.8794 77.9077 76.7451 77.9604L76.6064 78.0044C76.4654 78.0392 76.3195 78.0464 76.1768 78.0249L76.0352 77.9936L39.043 67.3325C38.9031 67.2922 38.7732 67.2244 38.6602 67.1342L38.5537 67.0366C38.4527 66.9318 38.3732 66.8089 38.3203 66.6743L38.2764 66.5366C38.2297 66.3484 38.2334 66.1507 38.2871 65.9643L38.3359 65.8286C38.3937 65.6962 38.4774 65.576 38.582 65.4751L66.3506 38.7446L66.4326 38.6733C66.5181 38.6059 66.6131 38.5509 66.7148 38.5112L66.8184 38.477C66.9224 38.4479 67.0303 38.4348 67.1387 38.437L67.1396 38.436ZM41.4941 65.7387L74.8105 75.3413L66.5029 41.6645L41.4941 65.7387Z" fill="#4C4C4C" stroke="#4C4C4C" stroke-width="0.5"/>
<path d="M53.4976 51.675C53.5516 51.6822 53.6052 51.6931 53.6577 51.7082L72.0386 56.9836L72.1743 57.0334C72.3069 57.0911 72.4278 57.1738 72.5288 57.2785C72.6635 57.4181 72.7584 57.5912 72.8052 57.7795L72.8315 57.9221C72.8423 58.0176 72.8399 58.1141 72.8257 58.2092L72.7954 58.3508C72.7551 58.4908 72.6874 58.6214 72.5972 58.7346L72.5005 58.841L58.7036 72.1389C58.5989 72.2397 58.4757 72.3184 58.3413 72.3713L58.2026 72.4152C58.0142 72.4619 57.8169 72.4583 57.6304 72.4045C57.4905 72.3641 57.3606 72.2965 57.2476 72.2062L57.1401 72.1086C57.0393 72.0036 56.9603 71.88 56.9077 71.7453L56.8638 71.6076L52.2808 53.0344C52.2411 52.8733 52.2379 52.7055 52.272 52.5432L52.3042 52.423C52.3431 52.3055 52.4022 52.1955 52.478 52.0969L52.5591 52.0021C52.6449 51.9133 52.7452 51.8392 52.856 51.7834L52.9702 51.7336C53.0863 51.6907 53.2091 51.6675 53.3335 51.6652L53.4976 51.675ZM58.5493 69.216L69.5884 58.5773L54.8813 54.3566L58.5493 69.216Z" fill="#4C4C4C" stroke="#4C4C4C" stroke-width="0.5"/>
<path d="M57.9885 70.2537C58.2094 70.2641 58.423 70.3407 58.6008 70.4744L58.6741 70.535C58.8388 70.6827 58.9557 70.8773 59.009 71.0936L63.594 89.6658L63.6194 89.8084C63.63 89.9039 63.6279 90.0005 63.6135 90.0955L63.5823 90.2371C63.542 90.3765 63.4749 90.5062 63.385 90.619L63.2874 90.7254C63.1479 90.8597 62.9752 90.955 62.7874 91.0018C62.6467 91.0368 62.5011 91.0434 62.3586 91.0223L62.217 90.992L43.8352 85.7166C43.6488 85.6631 43.4796 85.5613 43.345 85.4217C43.2441 85.3171 43.1655 85.1938 43.1125 85.0594L43.0676 84.9217C43.0208 84.7335 43.0248 84.5358 43.0784 84.3494C43.132 84.163 43.2337 83.9938 43.3733 83.8592L57.1702 70.5623V70.5613L57.2454 70.4949C57.4293 70.3476 57.6566 70.2628 57.8938 70.2537H57.9885ZM46.2854 84.1219L60.9905 88.3416L57.3235 73.4822L46.2854 84.1219ZM85.7297 43.7186C85.9071 43.7513 86.0751 43.827 86.218 43.9412L86.3499 44.0662C86.4705 44.2005 86.5572 44.3628 86.6008 44.5399L91.1819 63.1121L91.2073 63.2547C91.2179 63.3502 91.2157 63.4468 91.2014 63.5418L91.1702 63.6834C91.1299 63.8231 91.063 63.9533 90.9729 64.0662L90.8752 64.1727C90.7356 64.3071 90.5634 64.4033 90.3752 64.45C90.2343 64.485 90.0883 64.4909 89.9456 64.4695L89.804 64.4393L71.425 59.1639V59.1629C71.2854 59.1228 71.1552 59.0564 71.0422 58.9666L70.9348 58.869C70.8336 58.7641 70.7544 58.6405 70.7014 58.5057L70.6575 58.368C70.6107 58.1796 70.6145 57.9822 70.6682 57.7957C70.722 57.6092 70.8242 57.4401 70.9641 57.3055L84.761 44.0096L84.843 43.9383C84.9283 43.8709 85.0236 43.816 85.1252 43.7762L85.2278 43.742C85.3324 43.7124 85.441 43.6979 85.55 43.7L85.7297 43.7186ZM73.8762 57.5692L88.5784 61.7889L84.9133 46.9305L73.8762 57.5692ZM48.9709 33.1317C49.1483 33.1645 49.3164 33.2399 49.4592 33.3543L49.5911 33.4793C49.7114 33.6136 49.7976 33.7761 49.8411 33.9529L54.4231 52.5252L54.4485 52.6678C54.4645 52.8112 54.4516 52.9569 54.4114 53.0965C54.3711 53.2361 54.3041 53.3664 54.2141 53.4793L54.1165 53.5867C54.0118 53.6875 53.8885 53.7664 53.7542 53.8192L53.6165 53.8631C53.4752 53.8982 53.3288 53.9041 53.1858 53.8826L53.0452 53.8524L34.6672 48.576C34.5275 48.5359 34.3975 48.4687 34.2844 48.3787L34.177 48.2811C34.0761 48.1764 33.9975 48.0531 33.9446 47.9188L33.8997 47.7811C33.8528 47.5928 33.8568 47.3952 33.9104 47.2088L33.9592 47.0721C34.017 46.9397 34.1006 46.8195 34.2053 46.7186L48.0012 33.4217L48.0833 33.3504C48.1686 33.2829 48.2638 33.2281 48.3655 33.1883L48.469 33.1541C48.5736 33.1246 48.6822 33.1109 48.7913 33.1131L48.9709 33.1317ZM37.1174 46.9803L51.8196 51.202L48.1545 36.3426L37.1174 46.9803Z" fill="#4C4C4C" stroke="#4C4C4C" stroke-width="0.5"/>
</svg>
